<svg width="104" height="106" viewBox="0 0 104 106" fill="none" xmlns="http://www.w3.org/2000/svg">
<path fill-rule="evenodd" clip-rule="evenodd" d="M52.0937 0.397461C23.4318 0.397461 0.189941 24.4857 0.189941 54.2025C0.189941 77.9754 15.0619 98.1441 35.6849 105.259C38.2789 105.757 39.2312 104.092 39.2312 102.67C39.2312 101.387 39.1831 97.1489 39.1607 92.6529C24.721 95.9077 21.6741 86.3045 21.6741 86.3045C19.313 80.0853 15.9111 78.4316 15.9111 78.4316C11.2019 75.0921 16.2661 75.1607 16.2661 75.1607C21.4781 75.5394 24.2225 80.7054 24.2225 80.7054C28.8518 88.9312 36.3647 86.5531 39.3266 85.1783C39.7925 81.7016 41.1376 79.3261 42.6219 77.9834C31.0934 76.6228 18.9744 72.0092 18.9744 51.3923C18.9744 45.5179 21.002 40.7181 24.3222 36.95C23.7833 35.5939 22.0067 30.1222 24.825 22.7109C24.825 22.7109 29.1836 21.2648 39.1023 28.2262C43.2425 27.034 47.6827 26.4362 52.0937 26.4157C56.5046 26.4362 60.9483 27.034 65.0963 28.2262C75.0029 21.2648 79.3554 22.7109 79.3554 22.7109C82.1806 30.1222 80.4032 35.5939 79.8642 36.95C83.1922 40.7181 85.2061 45.5179 85.2061 51.3923C85.2061 72.0582 73.0639 76.6086 61.5061 77.9406C63.3678 79.6104 65.0266 82.8848 65.0266 87.9047C65.0266 95.1032 64.9665 100.897 64.9665 102.67C64.9665 104.102 65.9007 105.78 68.5317 105.252C89.1435 98.129 103.997 77.9674 103.997 54.2025C103.997 24.4857 80.7581 0.397461 52.0937 0.397461Z" fill="#F2FADE"/>
<path fill-rule="evenodd" clip-rule="evenodd" d="M19.8485 77.6502C19.7342 77.9184 19.3285 77.9977 18.9589 77.8141C18.5825 77.6386 18.371 77.2742 18.4931 77.006C18.6048 76.7307 19.0114 76.6549 19.387 76.8376C19.7643 77.014 19.9792 77.382 19.8485 77.6502Z" fill="#F2FADE"/>
<path fill-rule="evenodd" clip-rule="evenodd" d="M21.9509 80.0808C21.7033 80.3187 21.2194 80.2082 20.8911 79.8322C20.5516 79.4571 20.488 78.9555 20.739 78.714C20.9942 78.4761 21.4635 78.5875 21.8039 78.9626C22.1434 79.3422 22.2096 79.8403 21.9509 80.0808Z" fill="#F2FADE"/>
<path fill-rule="evenodd" clip-rule="evenodd" d="M23.9973 83.1797C23.6793 83.4087 23.1593 83.194 22.8379 82.7155C22.5199 82.2371 22.5199 81.6632 22.8447 81.4334C23.1671 81.2035 23.6793 81.4102 24.0051 81.8851C24.3222 82.3707 24.3222 82.9454 23.9973 83.1797Z" fill="#F2FADE"/>
<path fill-rule="evenodd" clip-rule="evenodd" d="M26.801 86.1735C26.5166 86.4987 25.9106 86.4114 25.4671 85.9677C25.0133 85.5338 24.8869 84.9181 25.1723 84.5929C25.4602 84.2668 26.0696 84.3585 26.5166 84.7987C26.9669 85.2317 27.1045 85.8519 26.801 86.1735Z" fill="#F2FADE"/>
<path fill-rule="evenodd" clip-rule="evenodd" d="M30.6688 87.9119C30.5433 88.3333 29.9597 88.5249 29.3718 88.3458C28.7848 88.1613 28.4006 87.6677 28.5192 87.2418C28.6412 86.8177 29.2274 86.6181 29.8196 86.8097C30.4058 86.9932 30.7909 87.4833 30.6688 87.9119Z" fill="#F2FADE"/>
<path fill-rule="evenodd" clip-rule="evenodd" d="M34.9165 88.2344C34.9311 88.6781 34.4326 89.0461 33.8155 89.0532C33.1949 89.0684 32.6929 88.7093 32.6861 88.2727C32.6861 87.8245 33.1734 87.4601 33.794 87.4494C34.4111 87.437 34.9165 87.7934 34.9165 88.2344Z" fill="#F2FADE"/>
<path fill-rule="evenodd" clip-rule="evenodd" d="M38.8693 87.5367C38.9433 87.9698 38.5144 88.4144 37.9015 88.532C37.299 88.6469 36.7412 88.3796 36.6647 87.9502C36.5899 87.5065 37.0266 87.0618 37.6282 86.9469C38.2419 86.8364 38.7911 87.0966 38.8693 87.5367Z" fill="#F2FADE"/>
</svg>
