<svg xmlns="http://www.w3.org/2000/svg" width="107" height="104" fill="none" viewBox="0 0 107 104"><path fill="#F2FADE" fill-rule="evenodd" d="M0.0847778 52C0.0847778 23.2812 23.8137 0 53.0848 0C82.3559 0 106.085 23.2812 106.085 52C106.085 80.7188 82.3559 104 53.0848 104C23.8137 104 0.0847778 80.7188 0.0847778 52ZM53.0874 24.2667C45.4106 24.2667 44.4472 24.2996 41.432 24.4342C38.4228 24.5694 36.3687 25.0369 34.5714 25.7227C32.7122 26.431 31.1352 27.3786 29.564 28.9207C27.9917 30.4622 27.0259 32.0095 26.3015 33.833C25.6008 35.597 25.1237 37.6129 24.9883 40.5642C24.8534 43.5225 24.8181 44.4683 24.8181 52.0003C24.8181 59.5323 24.8523 60.4746 24.9889 63.4329C25.1273 66.3854 25.6037 68.4007 26.3021 70.1641C27.0247 71.9881 27.9905 73.5354 29.5622 75.077C31.1328 76.6197 32.7099 77.5695 34.5679 78.2779C36.3663 78.9637 38.421 79.4312 41.4297 79.5664C44.4448 79.701 45.4076 79.7339 53.0839 79.7339C60.7613 79.7339 61.7218 79.701 64.7369 79.5664C67.7462 79.4312 69.8026 78.9637 71.6011 78.2779C73.4597 77.5695 75.0344 76.6197 76.6049 75.077C78.1773 73.5354 79.1431 71.9881 79.8674 70.1647C80.5623 68.4007 81.0393 66.3848 81.1807 63.4335C81.3161 60.4752 81.3514 59.5323 81.3514 52.0003C81.3514 44.4683 81.3161 43.523 81.1807 40.5648C81.0393 37.6123 80.5623 35.597 79.8674 33.8336C79.1431 32.0095 78.1773 30.4622 76.6049 28.9207C75.0326 27.378 73.4602 26.4305 71.5993 25.7227C69.7973 25.0369 67.7421 24.5694 64.7328 24.4342C61.7177 24.2996 60.7578 24.2667 53.0786 24.2667H53.0874Z" clip-rule="evenodd"/><path fill="#F2FADE" fill-rule="evenodd" d="M50.5516 29.2645C51.3043 29.2633 52.144 29.2645 53.0874 29.2645C60.6347 29.2645 61.5292 29.2911 64.5096 29.424C67.2657 29.5476 68.7615 29.9994 69.7579 30.379C71.077 30.8817 72.0175 31.4826 73.0062 32.4533C73.9956 33.424 74.608 34.3484 75.1215 35.6427C75.5084 36.6191 75.9695 38.0867 76.095 40.7907C76.2304 43.7143 76.2599 44.5925 76.2599 51.9939C76.2599 59.3953 76.2304 60.2736 76.095 63.1972C75.9689 65.9012 75.5084 67.3688 75.1215 68.3452C74.6092 69.6395 73.9956 70.561 73.0062 71.5311C72.0169 72.5018 71.0776 73.1027 69.7579 73.6054C68.7626 73.9867 67.2657 74.4374 64.5096 74.561C61.5298 74.6939 60.6347 74.7228 53.0874 74.7228C45.5396 74.7228 44.645 74.6939 41.6652 74.561C38.9092 74.4362 37.4134 73.9844 36.4164 73.6048C35.0973 73.1021 34.155 72.5012 33.1657 71.5305C32.1764 70.5599 31.5639 69.6377 31.0504 68.3429C30.6635 67.3665 30.2024 65.8989 30.0769 63.1949C29.9415 60.2713 29.9144 59.393 29.9144 51.987C29.9144 44.581 29.9415 43.7074 30.0769 40.7838C30.203 38.0797 30.6635 36.6122 31.0504 35.6346C31.5627 34.3403 32.1764 33.4159 33.1657 32.4452C34.155 31.4745 35.0973 30.8736 36.4164 30.3698C37.4128 29.9885 38.9092 29.5378 41.6652 29.4136C44.2728 29.298 45.2834 29.2633 50.5516 29.2576V29.2645ZM68.1761 33.8694C66.3034 33.8694 64.7841 35.3584 64.7841 37.1963C64.7841 39.0337 66.3034 40.5243 68.1761 40.5243C70.0488 40.5243 71.5681 39.0337 71.5681 37.1963C71.5681 35.359 70.0488 33.8694 68.1761 33.8694ZM53.0874 37.7579C45.0708 37.7579 38.5712 44.1349 38.5712 52.0003C38.5712 59.8657 45.0708 66.2398 53.0874 66.2398C61.1041 66.2398 67.6013 59.8657 67.6013 52.0003C67.6013 44.1349 61.1041 37.7579 53.0874 37.7579Z" clip-rule="evenodd"/><path fill="#F2FADE" fill-rule="evenodd" d="M53.0874 42.7557C58.2909 42.7557 62.5097 46.8944 62.5097 52.0003C62.5097 57.1056 58.2909 61.2448 53.0874 61.2448C47.8834 61.2448 43.6651 57.1056 43.6651 52.0003C43.6651 46.8944 47.8834 42.7557 53.0874 42.7557Z" clip-rule="evenodd"/></svg>