<svg width="109" height="104" viewBox="0 0 109 104" fill="none" xmlns="http://www.w3.org/2000/svg">
<path fill-rule="evenodd" clip-rule="evenodd" d="M0 52C0 23.2812 24.4005 0 54.5 0C84.5995 0 109 23.2812 109 52C109 80.7188 84.5995 104 54.5 104C24.4005 104 0 80.7188 0 52ZM54.5027 24.2667C46.6086 24.2667 45.6179 24.2996 42.5174 24.4342C39.423 24.5694 37.3108 25.0369 35.4626 25.7227C33.5509 26.431 31.9292 27.3786 30.3136 28.9207C28.6967 30.4622 27.7036 32.0095 26.9587 33.833C26.2381 35.597 25.7476 37.6129 25.6083 40.5642C25.4697 43.5225 25.4333 44.4683 25.4333 52.0003C25.4333 59.5323 25.4685 60.4746 25.6089 63.4329C25.7513 66.3854 26.2411 68.4007 26.9593 70.1641C27.7024 71.9881 28.6955 73.5354 30.3117 75.077C31.9268 76.6197 33.5485 77.5695 35.459 78.2779C37.3084 78.9637 39.4212 79.4312 42.515 79.5664C45.6155 79.701 46.6056 79.7339 54.4991 79.7339C62.3938 79.7339 63.3815 79.701 66.4819 79.5664C69.5764 79.4312 71.691 78.9637 73.5404 78.2779C75.4515 77.5695 77.0708 76.6197 78.6858 75.077C80.3027 73.5354 81.2958 71.9881 82.0406 70.1647C82.7552 68.4007 83.2457 66.3848 83.391 63.4335C83.5303 60.4752 83.5667 59.5323 83.5667 52.0003C83.5667 44.4683 83.5303 43.523 83.391 40.5648C83.2457 37.6123 82.7552 35.597 82.0406 33.8336C81.2958 32.0095 80.3027 30.4622 78.6858 28.9207C77.069 27.378 75.4521 26.4305 73.5386 25.7227C71.6855 25.0369 69.5721 24.5694 66.4777 24.4342C63.3772 24.2996 62.3902 24.2667 54.4936 24.2667H54.5027Z" fill="#161D20"/>
<path fill-rule="evenodd" clip-rule="evenodd" d="M51.8952 29.2645C52.6691 29.2633 53.5326 29.2645 54.5027 29.2645C62.2636 29.2645 63.1834 29.2911 66.2482 29.424C69.0822 29.5476 70.6204 29.9994 71.645 30.379C73.0014 30.8817 73.9685 31.4826 74.9852 32.4533C76.0026 33.424 76.6324 34.3484 77.1604 35.6427C77.5583 36.6191 78.0324 38.0867 78.1614 40.7907C78.3007 43.7143 78.331 44.5925 78.331 51.9939C78.331 59.3953 78.3007 60.2736 78.1614 63.1972C78.0318 65.9012 77.5583 67.3688 77.1604 68.3452C76.6336 69.6395 76.0026 70.561 74.9852 71.5311C73.9679 72.5018 73.002 73.1027 71.645 73.6054C70.6216 73.9867 69.0822 74.4374 66.2482 74.561C63.1841 74.6939 62.2636 74.7228 54.5027 74.7228C46.7412 74.7228 45.8214 74.6939 42.7572 74.561C39.9232 74.4362 38.3851 73.9844 37.3599 73.6048C36.0034 73.1021 35.0345 72.5012 34.0172 71.5305C32.9998 70.5599 32.37 69.6377 31.842 68.3429C31.4441 67.3665 30.97 65.8989 30.841 63.1949C30.7017 60.2713 30.6739 59.393 30.6739 51.987C30.6739 44.581 30.7017 43.7074 30.841 40.7838C30.9706 38.0797 31.4441 36.6122 31.842 35.6346C32.3688 34.3403 32.9998 33.4159 34.0172 32.4452C35.0345 31.4745 36.0034 30.8736 37.3599 30.3698C38.3845 29.9885 39.9232 29.5378 42.7572 29.4136C45.4387 29.298 46.4778 29.2633 51.8952 29.2576V29.2645ZM70.0184 33.8694C68.0927 33.8694 66.5304 35.3584 66.5304 37.1963C66.5304 39.0337 68.0927 40.5243 70.0184 40.5243C71.9441 40.5243 73.5065 39.0337 73.5065 37.1963C73.5065 35.359 71.9441 33.8694 70.0184 33.8694ZM54.5027 37.7579C46.2592 37.7579 39.5756 44.1349 39.5756 52.0003C39.5756 59.8657 46.2592 66.2398 54.5027 66.2398C62.7462 66.2398 69.4274 59.8657 69.4274 52.0003C69.4274 44.1349 62.7462 37.7579 54.5027 37.7579Z" fill="#161D20"/>
<path fill-rule="evenodd" clip-rule="evenodd" d="M54.5027 42.7557C59.8535 42.7557 64.1917 46.8944 64.1917 52.0003C64.1917 57.1056 59.8535 61.2448 54.5027 61.2448C49.1514 61.2448 44.8137 57.1056 44.8137 52.0003C44.8137 46.8944 49.1514 42.7557 54.5027 42.7557Z" fill="#161D20"/>
</svg>
