<svg width="84" height="80" viewBox="0 0 84 80" fill="none" xmlns="http://www.w3.org/2000/svg">
<path fill-rule="evenodd" clip-rule="evenodd" d="M0.333328 16.506C0.333328 12.3499 2.08928 8.36397 5.21488 5.42516C8.34049 2.48634 12.5797 0.835331 17 0.835331H67C71.4203 0.835331 75.6595 2.48634 78.7851 5.42516C81.9107 8.36397 83.6667 12.3499 83.6667 16.506V63.5179C83.6667 67.674 81.9107 71.6599 78.7851 74.5987C75.6595 77.5376 71.4203 79.1886 67 79.1886H17C12.5797 79.1886 8.34049 77.5376 5.21488 74.5987C2.08928 71.6599 0.333328 67.674 0.333328 63.5179V16.506ZM17 8.67066C14.7899 8.67066 12.6702 9.49616 11.1074 10.9656C9.54464 12.435 8.66666 14.4279 8.66666 16.506V63.5179C8.66666 65.596 9.54464 67.5889 11.1074 69.0583C12.6702 70.5277 14.7899 71.3533 17 71.3533H67C69.2101 71.3533 71.3298 70.5277 72.8926 69.0583C74.4554 67.5889 75.3333 65.596 75.3333 63.5179V16.506C75.3333 14.4279 74.4554 12.435 72.8926 10.9656C71.3298 9.49616 69.2101 8.67066 67 8.67066H17ZM42 28.259C38.6848 28.259 35.5054 29.4972 33.1612 31.7013C30.817 33.9054 29.5 36.8949 29.5 40.012C29.5 43.129 30.817 46.1185 33.1612 48.3226C35.5054 50.5267 38.6848 51.7649 42 51.7649C45.3152 51.7649 48.4946 50.5267 50.8388 48.3226C53.183 46.1185 54.5 43.129 54.5 40.012C54.5 36.8949 53.183 33.9054 50.8388 31.7013C48.4946 29.4972 45.3152 28.259 42 28.259ZM21.1667 40.012C21.1667 34.8168 23.3616 29.8344 27.2686 26.1609C31.1756 22.4874 36.4747 20.4236 42 20.4236C47.5253 20.4236 52.8244 22.4874 56.7314 26.1609C60.6384 29.8344 62.8333 34.8168 62.8333 40.012C62.8333 45.2071 60.6384 50.1895 56.7314 53.863C52.8244 57.5365 47.5253 59.6003 42 59.6003C36.4747 59.6003 31.1756 57.5365 27.2686 53.863C23.3616 50.1895 21.1667 45.2071 21.1667 40.012V40.012ZM64.9167 24.3413C66.5743 24.3413 68.164 23.7222 69.3361 22.6201C70.5082 21.5181 71.1667 20.0234 71.1667 18.4648C71.1667 16.9063 70.5082 15.4116 69.3361 14.3095C68.164 13.2074 66.5743 12.5883 64.9167 12.5883C63.2591 12.5883 61.6694 13.2074 60.4973 14.3095C59.3251 15.4116 58.6667 16.9063 58.6667 18.4648C58.6667 20.0234 59.3251 21.5181 60.4973 22.6201C61.6694 23.7222 63.2591 24.3413 64.9167 24.3413Z" fill="#333333"/>
</svg>
