<svg xmlns="http://www.w3.org/2000/svg" width="51" height="72" fill="none" viewBox="0 0 51 72"><path fill="#333" fill-rule="evenodd" d="M38.3333 8.58848C37.2282 8.58848 36.1684 9.00123 35.387 9.73594C34.6056 10.4706 34.1666 11.4671 34.1666 12.5061C34.1666 13.5452 34.6056 14.5416 35.387 15.2763C36.1684 16.0111 37.2282 16.4238 38.3333 16.4238C39.4384 16.4238 40.4982 16.0111 41.2796 15.2763C42.061 14.5416 42.4999 13.5452 42.4999 12.5061C42.4999 11.4671 42.061 10.4706 41.2796 9.73594C40.4982 9.00123 39.4384 8.58848 38.3333 8.58848ZM25.8333 12.5061C25.8332 9.95812 26.7139 7.47909 28.3425 5.44256C29.9712 3.40602 32.2596 1.9223 34.8631 1.21492C37.4665 0.507546 40.244 0.614838 42.7769 1.52063C45.3099 2.42643 47.4611 4.08167 48.9066 6.23696C50.3521 8.39225 51.0135 10.9308 50.7911 13.4703C50.5688 16.0097 49.4747 18.4124 47.6738 20.3164C45.8729 22.2204 43.4627 23.5225 40.8062 24.0266C38.1498 24.5307 35.3911 24.2095 32.9458 23.1113L24.6124 30.9466C25.3958 32.4784 25.8333 34.1982 25.8333 36.0121C25.8333 37.826 25.3958 39.5459 24.6124 41.0777L32.9458 48.913C35.6066 47.718 38.631 47.4459 41.4845 48.1448C44.3381 48.8438 46.8369 50.4687 48.5395 52.7324C50.242 54.9961 51.0385 57.7529 50.7884 60.5154C50.5382 63.278 49.2574 65.8684 47.1723 67.8289C45.0872 69.7893 42.3321 70.9936 39.394 71.2289C36.4559 71.4641 33.5239 70.7151 31.1163 69.1143C28.7087 67.5136 26.9805 65.164 26.2371 62.481C25.4938 59.798 25.7832 56.9544 27.0541 54.4526L18.7208 46.6172C16.8154 47.4722 14.7107 47.8594 12.6031 47.7429C10.4955 47.6263 8.45367 47.0097 6.66802 45.9506C4.88238 44.8915 3.41113 43.4244 2.39152 41.6862C1.37191 39.948 0.837158 37.9952 0.837158 36.0102C0.837158 34.0251 1.37191 32.0724 2.39152 30.3341C3.41113 28.5959 4.88238 27.1288 6.66802 26.0697C8.45367 25.0106 10.4955 24.394 12.6031 24.2775C14.7107 24.1609 16.8154 24.5481 18.7208 25.4031L27.0541 17.5717C26.2491 15.9903 25.8319 14.2593 25.8333 12.5061ZM13.3333 32.0945C12.2282 32.0945 11.1684 32.5072 10.387 33.2419C9.6056 33.9766 9.16662 34.9731 9.16662 36.0121C9.16662 37.0512 9.6056 38.0476 10.387 38.7823C11.1684 39.517 12.2282 39.9298 13.3333 39.9298C14.4384 39.9298 15.4982 39.517 16.2796 38.7823C17.061 38.0476 17.4999 37.0512 17.4999 36.0121C17.4999 34.9731 17.061 33.9766 16.2796 33.2419C15.4982 32.5072 14.4384 32.0945 13.3333 32.0945V32.0945ZM38.3333 55.6004C37.7859 55.5993 37.2438 55.7001 36.7382 55.8971C36.2325 56.0942 35.7735 56.3835 35.3875 56.7483C34.7059 57.3893 34.2818 58.2327 34.1875 59.1347C34.0932 60.0368 34.3344 60.9416 34.8701 61.6952C35.4058 62.4487 36.2028 63.0043 37.1254 63.2673C38.0479 63.5302 39.0388 63.4843 39.9294 63.1373C40.8199 62.7903 41.555 62.1637 42.0092 61.3642C42.4635 60.5648 42.6089 59.642 42.4206 58.753C42.2324 57.8641 41.7221 57.0641 40.9768 56.4892C40.2315 55.9143 39.2973 55.6002 38.3333 55.6004V55.6004Z" clip-rule="evenodd"/></svg>