<svg width="104" height="106" viewBox="0 0 104 106" fill="none" xmlns="http://www.w3.org/2000/svg">
<path fill-rule="evenodd" clip-rule="evenodd" d="M0 53C0 23.7289 23.2812 0 52 0C80.7188 0 104 23.7289 104 53C104 82.2711 80.7188 106 52 106C23.2812 106 0 82.2711 0 53ZM52.5333 26.5H52.5309C52.483 26.5 52.438 26.5 52.3952 26.5006C52.0537 26.5041 51.4922 26.5096 51.4417 26.5102C50.2104 26.5102 47.7468 26.687 45.1004 27.8741C43.5874 28.5523 42.2264 29.4694 41.0555 30.6C39.6594 31.947 38.5221 33.6078 37.6758 35.537C36.4362 38.3617 36.7305 43.1194 36.9668 46.9429L36.9677 46.9489C36.993 47.3583 37.0196 47.7859 37.0438 48.2026C36.862 48.2874 36.5672 48.377 36.1327 48.377C35.4335 48.377 34.6021 48.1498 33.6621 47.7022C33.3855 47.5713 33.0699 47.5052 32.7216 47.5052C32.162 47.5052 31.5721 47.6726 31.0603 47.9783C30.4165 48.3625 30.0005 48.9055 29.8875 49.5075C29.8131 49.9057 29.8167 50.6928 30.677 51.491C31.1502 51.9305 31.8453 52.3357 32.7426 52.6961C32.978 52.7903 33.2575 52.8803 33.5534 52.9757C34.5805 53.3074 36.135 53.8086 36.5403 54.7782C36.7457 55.2698 36.6573 55.9166 36.2783 56.6985C36.2683 56.7198 36.2584 56.7407 36.2494 56.7626C36.1546 56.9874 35.2709 59.0218 33.4581 61.1673C32.4281 62.3874 31.2935 63.407 30.0878 64.1988C28.6161 65.1654 27.0237 65.7974 25.3553 66.0767C24.7001 66.186 24.2322 66.7792 24.2687 67.4534C24.2799 67.6477 24.3248 67.8414 24.4025 68.0288C24.4031 68.03 24.4038 68.0312 24.4044 68.0322C24.6693 68.6619 25.2835 69.1969 26.2821 69.6687C27.5024 70.2448 29.3274 70.7293 31.7059 71.1084C31.8261 71.3407 31.9508 71.9244 32.0372 72.3241C32.1276 72.7489 32.2219 73.1857 32.3563 73.6497C32.5014 74.1523 32.8776 74.753 33.844 74.753C34.2102 74.753 34.6314 74.6692 35.1191 74.5731C35.8334 74.4306 36.8101 74.2363 38.0292 74.2363C38.7051 74.2363 39.4056 74.2968 40.1106 74.4159C41.4697 74.6458 42.6414 75.4869 43.9971 76.461C45.9813 77.8865 48.2273 79.5 51.6589 79.5C51.7525 79.5 51.8464 79.4969 51.9391 79.4904C52.0525 79.4958 52.1931 79.5 52.3414 79.5C55.7741 79.5 58.0195 77.8859 60.0016 76.4616L60.0048 76.4587C61.3607 75.4858 62.5311 74.6458 63.8897 74.4159C64.5945 74.297 65.2948 74.2363 65.971 74.2363C67.1356 74.2363 68.0578 74.3872 68.8811 74.5504C69.4184 74.6579 69.836 74.7096 70.1564 74.7096L70.1878 74.7102H70.2203C70.927 74.7102 71.4464 74.3159 71.6446 73.626C71.7763 73.1718 71.8703 72.7453 71.963 72.3133C72.0438 71.9387 72.1729 71.3383 72.293 71.1036C74.6732 70.7238 76.4974 70.2402 77.7178 69.6644C78.7141 69.1947 79.3276 68.6603 79.5941 68.0332C79.674 67.8452 79.7208 67.6503 79.7313 67.4519C79.7688 66.7789 79.3002 66.1845 78.6445 66.0752C71.2295 64.8332 67.889 57.0903 67.7509 56.7613C67.742 56.7397 67.7319 56.7182 67.7214 56.6973C67.3423 55.9152 67.2548 55.269 67.4604 54.7766C67.8649 53.8079 69.4183 53.3067 70.4461 52.9751C70.7436 52.8798 71.0241 52.7893 71.2577 52.6955C72.2695 52.2894 72.9927 51.8488 73.4697 51.3485C74.0395 50.752 74.1505 50.1805 74.1436 49.8065C74.1262 48.9017 73.4456 48.0977 72.3629 47.704C71.9972 47.5503 71.5802 47.4692 71.1556 47.4692C70.8665 47.4692 70.4385 47.5095 70.0332 47.7018C69.1657 48.1143 68.3887 48.3399 67.7215 48.372C67.3668 48.3538 67.118 48.2756 66.9568 48.2009C66.9771 47.848 66.9995 47.4854 67.0227 47.1074L67.0323 46.9455C67.2699 43.1196 67.5651 38.3582 66.3251 35.5314C65.4751 33.5954 64.3338 31.9303 62.9321 30.5804C61.7566 29.4491 60.391 28.5322 58.8725 27.8543C56.2299 26.676 53.7664 26.5 52.5333 26.5Z" fill="#161D20"/>
</svg>
