<svg xmlns="http://www.w3.org/2000/svg" width="88" height="69" fill="none" viewBox="0 0 88 69"><path fill="#333" fill-rule="evenodd" d="M55.8708 8.16647C53.9673 8.16573 52.0874 8.56236 50.3667 9.32773C48.646 10.0931 47.1275 11.2081 45.9209 12.5923C44.7142 13.9765 43.8494 15.5953 43.389 17.3319C42.9285 19.0686 42.8839 20.8796 43.2583 22.6344C43.3872 23.2424 43.3608 23.8705 43.1813 24.4671C43.0018 25.0636 42.6742 25.6116 42.2256 26.0659C41.7769 26.5203 41.22 26.868 40.6006 27.0806C39.9812 27.2931 39.3169 27.3644 38.6625 27.2886C29.703 26.2538 21.2572 22.7909 14.3542 17.3221C14.4833 19.6805 15.3542 22.1878 17.2417 24.8126L20.0708 28.746L15.425 30.6068L14.5292 30.9673C15.1958 31.6842 15.9958 32.4168 16.8917 33.1416C18.0892 34.1053 19.3561 34.9902 20.6833 35.7899L20.7292 35.8173H20.7333L27.1833 39.496L20.4333 42.6693C20.1 42.826 19.7667 42.9671 19.4333 43.0924C20.8847 44.2264 22.4837 45.1821 24.1917 45.9367L29.9833 48.5106L25.1333 52.4439C22.4875 54.5908 19.825 56.1931 16.3708 57.0393C21.6685 59.6925 27.581 61.0746 33.5833 61.0628C53.6083 61.0628 69.7333 46.0385 69.7333 27.6294V25.5922L71.5042 24.4209C74.2708 22.5952 76.225 20.1271 77.625 17.3025H68.625L67.4917 15.0694C66.4481 13.0035 64.8026 11.2583 62.7464 10.0364C60.6901 8.81455 58.3075 8.16614 55.875 8.16647H55.8708ZM8.87083 36.7654C8.47764 37.1888 8.18595 37.6868 8.01556 38.2255C7.84517 38.7643 7.80008 39.3312 7.88333 39.8878C8.35416 43.0258 10.35 45.729 12.5583 47.7936C13.1583 48.3539 13.8 48.8906 14.475 49.4038L14.1625 49.4821C12.1583 49.9523 9.45416 50.0502 4.95 49.6389C4.09941 49.5604 3.24373 49.7297 2.49898 50.124C1.75422 50.5182 1.15641 51.1182 0.786616 51.8427C0.416818 52.5672 0.292915 53.3811 0.431707 54.174C0.570499 54.9669 0.965271 55.7005 1.5625 56.2754C5.73238 60.2828 10.7137 63.4644 16.2126 65.6324C21.7115 67.8003 27.6165 68.9107 33.5792 68.8981C57.3833 68.8981 76.9083 51.5193 78.0125 29.5883C83.3875 25.3454 86.075 19.5982 87.525 14.376C87.6862 13.7964 87.7039 13.1897 87.5767 12.6027C87.4494 12.0156 87.1807 11.4638 86.7912 10.9897C86.4016 10.5156 85.9016 10.1318 85.3296 9.86786C84.7576 9.60391 84.1288 9.46682 83.4917 9.46714H73.6875C71.2893 5.96601 67.7848 3.25937 63.6662 1.72753C59.5477 0.195699 55.0222 -0.084326 50.7256 0.926806C46.4291 1.93794 42.5775 4.1894 39.712 7.36483C36.8465 10.5403 35.1113 14.48 34.75 18.6306C27.0694 16.7507 20.1972 12.6789 15.0792 6.97551C14.6259 6.47162 14.0446 6.08356 13.3892 5.84734C12.7339 5.61111 12.0256 5.53438 11.3303 5.62426C10.635 5.71414 9.97503 5.96772 9.41177 6.36147C8.8485 6.75522 8.40015 7.27638 8.10833 7.87657C5.58333 13.0557 5.1 19.0262 7.91666 25.0986L6.94166 25.4904C6.00864 25.8642 5.25266 26.5451 4.81543 27.4056C4.3782 28.266 4.28975 29.2468 4.56667 30.1642C5.34167 32.7185 7.08333 34.975 8.86667 36.7654H8.87083Z" clip-rule="evenodd"/></svg>