<svg width="107" height="104" viewBox="0 0 107 104" fill="none" xmlns="http://www.w3.org/2000/svg">
<path fill-rule="evenodd" clip-rule="evenodd" d="M0.740967 52C0.740967 23.2812 24.4699 0 53.741 0C83.0121 0 106.741 23.2812 106.741 52C106.741 80.7188 83.0121 104 53.741 104C24.4699 104 0.740967 80.7188 0.740967 52ZM52.1536 42.2663L52.2648 44.0656L50.4112 43.8452C43.664 43.0007 37.7695 40.1364 32.7648 35.326L30.318 32.9392L29.6877 34.7018C28.3531 38.6309 29.2058 42.7803 31.9862 45.5711C33.4691 47.1134 33.1355 47.3337 30.5775 46.4157C29.6877 46.1219 28.9092 45.9016 28.8351 46.0118C28.5756 46.2688 29.4653 49.6104 30.1697 50.9324C31.1336 52.7684 33.0984 54.5677 35.2486 55.6326L37.0652 56.4772L34.915 56.5139C32.8389 56.5139 32.7648 56.5506 32.9872 57.3218C33.7286 59.7086 36.6574 62.2423 39.9197 63.344L42.2182 64.1151L40.2163 65.2902C37.2505 66.9793 33.7657 67.9341 30.2809 68.0075C28.6126 68.0442 27.241 68.1911 27.241 68.3013C27.241 68.6685 31.7638 70.7248 34.3959 71.5327C42.2924 73.9195 51.6717 72.8914 58.7154 68.8154C63.7202 65.9144 68.725 60.1493 71.0605 54.5677C72.321 51.5933 73.5815 46.1587 73.5815 43.5515C73.5815 41.8623 73.6927 41.642 75.7687 39.6224C76.9921 38.4473 78.1414 37.1621 78.3638 36.7949C78.7345 36.0972 78.6975 36.0972 76.8068 36.7214C73.6556 37.823 73.2107 37.6762 74.7678 36.0237C75.917 34.8487 77.2887 32.7189 77.2887 32.0946C77.2887 31.9844 76.7326 32.168 76.1024 32.4985C75.4351 32.8657 73.9522 33.4165 72.84 33.747L70.8381 34.3713L69.0216 33.1595C68.0206 32.4985 66.6119 31.7641 65.8704 31.5438C63.9797 31.0297 61.0881 31.1031 59.3827 31.6907C54.7487 33.3431 51.82 37.6027 52.1536 42.2663Z" fill="#F2FADE"/>
</svg>
