<svg width="106" height="104" viewBox="0 0 106 104" fill="none" xmlns="http://www.w3.org/2000/svg">
<path fill-rule="evenodd" clip-rule="evenodd" d="M0 52C0 23.2812 23.7289 0 53 0C82.2711 0 106 23.2812 106 52C106 80.7188 82.2711 104 53 104C23.7289 104 0 80.7188 0 52ZM51.4127 42.2663L51.5239 44.0656L49.6703 43.8452C42.9231 43.0007 37.0286 40.1364 32.0238 35.326L29.577 32.9392L28.9468 34.7018C27.6122 38.6309 28.4648 42.7803 31.2453 45.5711C32.7282 47.1134 32.3945 47.3337 29.8365 46.4157C28.9468 46.1219 28.1683 45.9016 28.0941 46.0118C27.8346 46.2688 28.7243 49.6104 29.4287 50.9324C30.3926 52.7684 32.3574 54.5677 34.5076 55.6326L36.3242 56.4772L34.174 56.5139C32.0979 56.5139 32.0238 56.5506 32.2462 57.3218C32.9877 59.7086 35.9164 62.2423 39.1788 63.344L41.4773 64.1151L39.4753 65.2902C36.5095 66.9793 33.0247 67.9341 29.5399 68.0075C27.8717 68.0442 26.5 68.1911 26.5 68.3013C26.5 68.6685 31.0228 70.7248 33.655 71.5327C41.5514 73.9195 50.9307 72.8914 57.9745 68.8154C62.9792 65.9144 67.984 60.1493 70.3196 54.5677C71.58 51.5933 72.8405 46.1587 72.8405 43.5515C72.8405 41.8623 72.9517 41.642 75.0278 39.6224C76.2512 38.4473 77.4004 37.1621 77.6228 36.7949C77.9936 36.0972 77.9565 36.0972 76.0658 36.7214C72.9146 37.823 72.4698 37.6762 74.0268 36.0237C75.1761 34.8487 76.5477 32.7189 76.5477 32.0946C76.5477 31.9844 75.9917 32.168 75.3614 32.4985C74.6941 32.8657 73.2112 33.4165 72.0991 33.747L70.0971 34.3713L68.2806 33.1595C67.2796 32.4985 65.8709 31.7641 65.1294 31.5438C63.2388 31.0297 60.3471 31.1031 58.6418 31.6907C54.0077 33.3431 51.079 37.6027 51.4127 42.2663Z" fill="#161D20"/>
</svg>
