<svg width="90" height="84" viewBox="0 0 90 84" fill="none" xmlns="http://www.w3.org/2000/svg">
<path fill-rule="evenodd" clip-rule="evenodd" d="M10.5833 42.012C10.5833 35.4258 12.6605 28.9876 16.5521 23.5114C20.4437 18.0352 25.975 13.7671 32.4466 11.2466C38.9181 8.72623 46.0393 8.06678 52.9094 9.35167C59.7796 10.6366 66.0902 13.8081 71.0433 18.4652C75.9964 23.1223 79.3696 29.0558 80.7361 35.5154C82.1027 41.975 81.4013 48.6706 78.7207 54.7554C76.0401 60.8402 71.5007 66.0409 65.6764 69.7C59.8522 73.3591 53.0047 75.3121 46 75.3121C39.2993 75.3233 32.7343 73.5375 27.075 70.1643C26.5716 69.8649 26.0057 69.6704 25.4156 69.594C24.8255 69.5177 24.2249 69.5612 23.6541 69.7216L11.6541 73.0868L16.175 63.1477C16.4377 62.5691 16.5484 61.9395 16.4977 61.3121C16.4469 60.6847 16.2362 60.0781 15.8833 59.5435C12.408 54.2805 10.5718 48.2068 10.5833 42.012V42.012ZM46 0.876495C21.8375 0.876495 2.24997 19.2934 2.24997 42.012C2.24997 49.2126 4.2208 55.9902 7.68747 61.8863L0.499967 77.6901C0.188883 78.3747 0.0916935 79.1285 0.219781 79.8631C0.347869 80.5978 0.695932 81.2829 1.22321 81.8383C1.75048 82.3936 2.43514 82.7963 3.19699 82.999C3.95885 83.2017 4.76636 83.1961 5.52497 82.9829L24.275 77.7254C30.8876 81.2883 38.3786 83.1579 46 83.1474C70.1625 83.1474 89.75 64.7305 89.75 42.012C89.75 19.2934 70.1625 0.876495 46 0.876495ZM55.5541 50.5603L50.075 54.188C47.0561 52.555 44.2841 50.5482 41.8333 48.2214C39.2022 45.751 36.9272 42.9665 35.0666 39.9395L38.5458 37.1619C39.2708 36.5836 39.7636 35.7895 39.9424 34.9116C40.1213 34.0337 39.9755 33.1246 39.5291 32.3353L35.0958 24.5C34.8008 23.9796 34.3846 23.5286 33.8784 23.1805C33.3721 22.8325 32.7888 22.5963 32.172 22.4898C31.5552 22.3832 30.9207 22.4089 30.3159 22.565C29.7111 22.7211 29.1516 23.0036 28.6791 23.3913L27.3625 24.4687C24.2 27.0622 22.3291 31.3246 23.8791 35.6418C26.3729 42.4708 30.4996 48.6708 35.9416 53.7649C43.4958 60.8677 51.1708 63.6649 55.6625 64.754C59.2791 65.6276 62.7 64.4562 65.1125 62.6071L67.575 60.7188C68.0941 60.3207 68.5036 59.8109 68.7686 59.2324C69.0336 58.6539 69.1463 58.0239 69.0972 57.3957C69.0482 56.7675 68.8388 56.1597 68.4867 55.6238C68.1347 55.088 67.6504 54.6398 67.075 54.3173L60.0833 50.3997C59.3919 50.0118 58.5959 49.8205 57.7913 49.849C56.9868 49.8775 56.2083 50.1246 55.55 50.5603H55.5541Z" fill="#333333"/>
</svg>
