<svg width="257" height="260" viewBox="0 0 257 260" fill="none" xmlns="http://www.w3.org/2000/svg">
<path d="M127.309 240.373C130.868 246.498 138.054 250.692 143.188 255.366C144.359 256.638 146.393 255.235 145.213 253.502C140.755 248.206 134.91 242.307 129.335 238.509C127.948 237.905 126.597 239.148 127.309 240.373Z" fill="#F2FADE" fill-opacity="0.75"/>
<path d="M105.285 204.25C105.413 210.712 109.889 216.931 114.329 221.303C115.266 222.321 116.617 221.078 115.68 220.06C113.563 217.309 111.906 214.605 110.473 211.694C109.275 209.037 108.536 206.428 107.338 203.771C107.085 202.593 105.258 202.866 105.285 204.25Z" fill="#F2FADE" fill-opacity="0.75"/>
<path d="M98.2509 161.378C97.162 164.26 97.2349 167.952 97.758 171.231C97.8218 174.462 98.579 177.994 99.3271 181.065C99.5795 182.243 101.182 182.178 100.93 181C100.407 177.722 100.343 174.491 100.513 171.514C100.45 168.283 101.304 165.147 101.24 161.916C101.439 160.324 98.9082 159.834 98.2509 161.378Z" fill="#F2FADE" fill-opacity="0.75"/>
<path d="M107.521 143.446C107.098 145.245 109.638 146.198 110.061 144.398C110.718 142.854 111.365 140.847 112.022 139.303C113.129 137.344 114.939 136.149 115.587 134.142C116.028 133.267 114.857 131.994 113.948 132.362C110.301 133.368 108.592 139.641 107.521 143.446Z" fill="#F2FADE" fill-opacity="0.75"/>
<path d="M129.331 110.683C127.081 112.754 124.83 114.826 123.273 117.199C122.382 118.489 123.787 120.016 124.912 118.98C127.172 117.37 128.972 115.713 130.998 113.848C133.023 111.984 135.517 110.628 136.84 108.001C137.506 106.918 135.867 105.137 134.733 105.711C132.464 106.859 130.897 108.771 129.331 110.683Z" fill="#F2FADE" fill-opacity="0.75"/>
<path d="M154.757 98.5586C157.944 97.5047 161.131 96.4511 164.786 95.9061C167.983 95.3134 171.648 95.23 174.133 93.4128C175.492 92.6315 174.078 90.6434 172.925 90.2948C169.477 89.7092 165.838 91.1773 162.652 92.2316C159.23 93.0307 156.277 94.3391 153.558 95.9018C151.974 96.8903 153.397 99.3404 154.757 98.5586Z" fill="#F2FADE" fill-opacity="0.75"/>
<path d="M182.625 94.057C185.605 94.1337 188.811 94.0026 191.566 94.2862C192.944 94.428 194.556 94.8242 195.942 95.4275C197.329 96.0309 197.798 96.5397 199.4 96.4743C200.544 96.3617 200.976 95.0243 200.498 94.0539C198.841 91.3495 194.942 91.1789 192.186 90.8953C188.747 90.7716 185.551 91.3636 182.129 92.1631C181.219 92.53 181.481 94.1696 182.625 94.057Z" fill="#F2FADE" fill-opacity="0.75"/>
<path d="M206.283 108.468C208.354 108.911 210.434 109.816 211.839 111.343C213.01 112.615 214.19 114.349 216.027 114.538C216.945 114.632 217.62 114.011 217.602 113.088C217.511 108.472 209.677 106.284 206.471 106.415C205.327 106.527 205.129 108.119 206.283 108.468Z" fill="#F2FADE" fill-opacity="0.75"/>
<path d="M216.543 129.101C218.192 131.344 219.849 134.048 221.047 136.705C222.255 139.823 221.616 142.291 220.986 145.22C220.789 146.812 222.419 148.131 224.003 147.143C230.314 141.804 223.477 132.118 218.119 127.651C217.191 127.095 215.841 128.338 216.543 129.101Z" fill="#F2FADE" fill-opacity="0.75"/>
<path d="M213.398 155.494C211.896 160.637 208.052 163.235 205.153 167.313C204.487 168.396 205.893 169.922 207.027 169.348C211.555 166.59 214.435 161.589 215.244 156.145C215.451 155.014 214.064 154.411 213.398 155.494Z" fill="#F2FADE" fill-opacity="0.75"/>
<path d="M173.751 190.107C181.792 191.165 188.356 187.003 193.298 181.985C194.198 181.156 192.559 179.375 191.659 180.204C186.698 184.3 180.567 187.123 173.697 187.337C171.859 187.148 171.914 189.918 173.751 190.107Z" fill="#F2FADE" fill-opacity="0.75"/>
<path d="M143.964 190.266C150.205 192.981 157.309 193.021 163.711 192.298C165.314 192.232 164.575 189.623 163.207 189.943C157.021 189.997 150.807 188.667 144.603 187.798C142.766 187.609 142.578 189.663 143.964 190.266Z" fill="#F2FADE" fill-opacity="0.75"/>
<path d="M117.095 187.27C120.373 190.832 126.821 192.417 131.179 192.635C133.016 192.824 132.961 190.055 131.124 189.866C128.828 189.63 126.523 188.932 124.442 188.027C122.362 187.122 120.273 185.755 117.968 185.057C116.815 184.708 116.392 186.507 117.095 187.27Z" fill="#F2FADE" fill-opacity="0.75"/>
<path d="M76.2622 161.879C78.1356 163.914 80.6842 165.328 82.7826 167.156C85.5745 169.286 88.1413 171.623 91.1492 173.084C92.7702 173.942 93.8772 171.983 92.4813 170.918C89.9236 169.043 87.3568 166.706 85.0241 164.623C82.9257 162.795 80.5839 160.251 77.8194 159.505C76.1984 158.648 75.0917 160.607 76.2622 161.879Z" fill="#F2FADE" fill-opacity="0.75"/>
<path d="M53.1699 141.307C55.539 145.236 59.961 148.685 63.4646 152.04C64.6354 153.312 66.2109 151.862 65.04 150.59C61.9866 146.821 59.1491 142.383 55.1955 139.443C53.7999 138.378 52.2245 139.828 53.1699 141.307Z" fill="#F2FADE" fill-opacity="0.75"/>
<path d="M32.5169 116.611C33.706 118.806 35.5703 120.38 37.2099 122.161C38.8487 123.942 40.7225 125.977 42.5868 127.551C43.7577 128.823 45.5582 127.166 44.3873 125.894C42.7481 124.113 40.8743 122.077 39.4605 120.09C37.8213 118.309 36.4071 116.321 34.3174 114.954C33.3806 113.936 32.0303 115.179 32.5169 116.611Z" fill="#F2FADE" fill-opacity="0.75"/>
<path d="M13.7558 94.8734C13.8743 100.874 14.2179 106.667 15.0203 112.507C15.5616 116.709 15.6987 123.633 18.968 126.733C20.1389 128.005 22.426 127.78 22.8488 125.981C23.6943 122.383 21.7662 117.578 21.009 114.045C20.2336 109.589 19.9082 104.719 19.5829 99.8491C26.0669 103.28 33.2261 106.09 39.926 108.852C42.0063 109.757 43.5453 106.461 41.4555 105.094C33.8006 100.391 25.0478 98.108 17.8339 92.5289C16.2042 91.21 13.9441 92.8196 13.7558 94.8734Z" fill="#F2FADE" fill-opacity="0.75"/>
</svg>
