<svg xmlns="http://www.w3.org/2000/svg" width="277" height="278" fill="none" viewBox="0 0 277 278"><g clip-path="url(#clip0)"><path fill="#161D20" fill-opacity=".75" d="M137.309 249.373C140.868 255.498 148.054 259.692 153.188 264.366C154.359 265.638 156.393 264.235 155.213 262.502C150.755 257.206 144.91 251.307 139.335 247.509C137.948 246.905 136.597 248.148 137.309 249.373Z"/><path fill="#161D20" fill-opacity=".75" d="M115.285 213.25C115.413 219.712 119.889 225.931 124.329 230.303C125.266 231.321 126.617 230.078 125.68 229.06C123.563 226.309 121.906 223.605 120.473 220.694C119.275 218.037 118.536 215.428 117.338 212.771C117.085 211.593 115.258 211.866 115.285 213.25Z"/><path fill="#161D20" fill-opacity=".75" d="M108.251 170.378C107.162 173.26 107.235 176.952 107.758 180.231C107.822 183.462 108.579 186.994 109.327 190.065C109.58 191.243 111.182 191.178 110.93 190C110.407 186.722 110.343 183.491 110.513 180.514C110.45 177.283 111.304 174.147 111.241 170.916C111.439 169.324 108.908 168.834 108.251 170.378Z"/><path fill="#161D20" fill-opacity=".75" d="M117.521 152.446C117.098 154.245 119.638 155.198 120.061 153.398C120.718 151.854 121.365 149.847 122.022 148.303C123.129 146.344 124.939 145.149 125.587 143.142C126.028 142.267 124.857 140.994 123.948 141.362C120.301 142.368 118.592 148.641 117.521 152.446Z"/><path fill="#161D20" fill-opacity=".75" d="M139.331 119.683C137.081 121.754 134.83 123.826 133.273 126.199C132.382 127.489 133.787 129.016 134.912 127.98C137.172 126.37 138.972 124.713 140.998 122.848C143.024 120.984 145.517 119.628 146.84 117.001C147.506 115.918 145.867 114.137 144.733 114.711C142.464 115.859 140.897 117.771 139.331 119.683Z"/><path fill="#161D20" fill-opacity=".75" d="M164.756 107.559C167.944 106.505 171.131 105.451 174.786 104.906C177.983 104.313 181.648 104.23 184.133 102.413C185.492 101.631 184.078 99.6434 182.925 99.2948C179.477 98.7092 175.838 100.177 172.651 101.232C169.23 102.031 166.277 103.339 163.558 104.902C161.974 105.89 163.397 108.34 164.756 107.559Z"/><path fill="#161D20" fill-opacity=".75" d="M192.625 103.057C195.605 103.134 198.811 103.003 201.566 103.286C202.944 103.428 204.556 103.824 205.942 104.428C207.329 105.031 207.798 105.54 209.4 105.474C210.544 105.362 210.976 104.024 210.498 103.054C208.841 100.349 204.942 100.179 202.187 99.8953C198.747 99.7716 195.551 100.364 192.129 101.163C191.219 101.53 191.481 103.17 192.625 103.057Z"/><path fill="#161D20" fill-opacity=".75" d="M216.283 117.468C218.354 117.911 220.434 118.816 221.839 120.343C223.01 121.615 224.19 123.349 226.027 123.538C226.945 123.632 227.62 123.011 227.602 122.088C227.511 117.472 219.677 115.284 216.471 115.415C215.327 115.527 215.129 117.119 216.283 117.468Z"/><path fill="#161D20" fill-opacity=".75" d="M226.543 138.101C228.192 140.344 229.849 143.048 231.047 145.705C232.255 148.823 231.616 151.291 230.986 154.22C230.789 155.812 232.419 157.131 234.003 156.143C240.314 150.804 233.477 141.118 228.119 136.651C227.191 136.095 225.841 137.338 226.543 138.101Z"/><path fill="#161D20" fill-opacity=".75" d="M223.398 164.494C221.896 169.637 218.052 172.235 215.153 176.313C214.488 177.396 215.893 178.922 217.027 178.348C221.555 175.59 224.435 170.589 225.244 165.145C225.451 164.014 224.064 163.411 223.398 164.494Z"/><path fill="#161D20" fill-opacity=".75" d="M183.751 199.107C191.792 200.165 198.356 196.003 203.298 190.985C204.198 190.156 202.559 188.375 201.659 189.204C196.698 193.3 190.567 196.123 183.697 196.337C181.859 196.148 181.914 198.918 183.751 199.107Z"/><path fill="#161D20" fill-opacity=".75" d="M153.964 199.266C160.205 201.981 167.309 202.021 173.711 201.298C175.314 201.232 174.575 198.623 173.206 198.943C167.02 198.997 160.807 197.667 154.603 196.798C152.766 196.609 152.578 198.663 153.964 199.266Z"/><path fill="#161D20" fill-opacity=".75" d="M127.095 196.27C130.373 199.832 136.821 201.417 141.179 201.635C143.016 201.824 142.961 199.055 141.124 198.866C138.828 198.63 136.523 197.932 134.442 197.027C132.362 196.122 130.273 194.755 127.968 194.057C126.815 193.708 126.392 195.507 127.095 196.27Z"/><path fill="#161D20" fill-opacity=".75" d="M86.262 170.879C88.1354 172.914 90.684 174.328 92.7825 176.156C95.5744 178.286 98.1412 180.623 101.149 182.084C102.77 182.942 103.877 180.983 102.481 179.918C99.9234 178.043 97.3566 175.706 95.024 173.623C92.9255 171.795 90.5838 169.251 87.8192 168.505C86.1982 167.648 85.0915 169.607 86.262 170.879Z"/><path fill="#161D20" fill-opacity=".75" d="M63.1698 150.307C65.5389 154.236 69.9609 157.685 73.4645 161.04C74.6353 162.312 76.2108 160.862 75.0399 159.59C71.9865 155.821 69.149 151.383 65.1954 148.443C63.7998 147.378 62.2244 148.828 63.1698 150.307Z"/><path fill="#161D20" fill-opacity=".75" d="M42.5168 125.611C43.7059 127.806 45.5702 129.38 47.2098 131.161C48.8487 132.942 50.7225 134.977 52.5868 136.551C53.7576 137.823 55.5581 136.166 54.3872 134.894C52.748 133.113 50.8742 131.077 49.4604 129.09C47.8212 127.309 46.407 125.321 44.3173 123.954C43.3806 122.936 42.0302 124.179 42.5168 125.611Z"/><path fill="#161D20" fill-opacity=".75" d="M23.7557 103.873C23.8742 109.874 24.2178 115.667 25.0202 121.507C25.5615 125.709 25.6986 132.633 28.9679 135.733C30.1388 137.005 32.4259 136.78 32.8486 134.981C33.6942 131.383 31.7661 126.578 31.0089 123.045C30.2334 118.589 29.9081 113.719 29.5828 108.849C36.0668 112.28 43.226 115.09 49.9259 117.852C52.0062 118.757 53.5451 115.461 51.4554 114.094C43.8005 109.391 35.0477 107.108 27.8338 101.529C26.204 100.21 23.9439 101.82 23.7557 103.873Z"/></g><defs><clipPath id="clip0"><rect width="208" height="184" fill="#fff" transform="translate(140.864 277.651) rotate(-132.628)"/></clipPath></defs></svg>