<svg width="302" height="242" viewBox="0 0 302 242" fill="none" xmlns="http://www.w3.org/2000/svg">
<path d="M286.212 220.761H13.8718C12.1858 220.761 10.8062 219.234 10.8062 217.366V215.541C10.8062 213.674 12.1858 212.146 13.8718 212.146H286.212C287.898 212.146 289.278 213.674 289.278 215.541V217.366C289.316 219.234 287.937 220.761 286.212 220.761Z" fill="white"/>
<path d="M285.637 221.313H14.4466C12.1858 221.313 10.3464 219.149 10.3464 216.475C10.3464 213.802 12.1858 211.637 14.4466 211.637H285.637C287.898 211.637 289.738 213.802 289.738 216.475C289.738 219.149 287.898 221.313 285.637 221.313ZM14.4466 212.656C12.6839 212.656 11.2661 214.353 11.2661 216.433C11.2661 218.512 12.6839 220.21 14.4466 220.21H285.637C287.4 220.21 288.818 218.512 288.818 216.433C288.818 214.353 287.4 212.656 285.637 212.656H14.4466Z" fill="black"/>
<path d="M283.415 163.895C283.415 167.714 280.617 170.812 277.207 170.812C273.758 170.812 270.961 167.714 270.961 163.895C270.961 160.075 273.758 156.977 277.207 156.977C280.617 156.977 283.415 160.075 283.415 163.895ZM266.477 138.856L264.102 141.488L262.569 139.79L264.945 137.159L266.477 138.856ZM257.434 143.185L257.472 143.567C257.702 147.386 256.514 151.121 254.253 153.922L236.051 133.806C238.619 131.303 241.953 129.987 245.401 130.242L245.746 130.284L255.326 119.675L267.014 132.618L257.434 143.185ZM248.812 202.386C249.195 199.585 251.341 197.378 253.985 197.378C256.629 197.378 258.813 199.542 259.158 202.386H248.812ZM276.441 204.041V211.17H231.53V204.041H235.055H276.441ZM241.723 202.386H236.549V201.325H241.723V202.386ZM277.169 172.425C281.422 172.425 284.871 168.605 284.871 163.852C284.871 159.142 281.422 155.322 277.169 155.322C276.211 155.322 275.291 155.534 274.448 155.874L266.784 140.851L268.585 138.856L266.018 136.013L269.121 132.576L255.326 117.298L245.171 128.586C241.148 128.417 237.278 130.072 234.442 133.212L233.905 133.806L254.215 156.298L254.751 155.704C257.587 152.564 259.082 148.278 258.928 143.822L261.496 140.978L264.063 143.822L265.634 142.082L273.068 156.638C270.884 158.166 269.428 160.839 269.428 163.895C269.428 167.375 271.306 170.388 274.026 171.703L257.012 196.572C256.093 196.063 255.058 195.766 253.947 195.766C250.498 195.766 247.624 198.694 247.241 202.428H243.179V199.755H235.055V202.428H230.035V212.868H277.897V202.428H260.653C260.461 200.476 259.58 198.694 258.239 197.505L275.521 172.297C276.096 172.382 276.632 172.425 277.169 172.425Z" fill="#F2FADE"/>
<path d="M218.386 106.179C218.386 106.179 214.975 88.4403 214.899 84.6634C214.822 80.8864 214.4 73.2476 215.818 72.9081C217.236 72.5262 231.836 73.3749 231.836 73.3749C231.836 73.3749 234.825 74.6481 233.484 82.1171C232.143 89.5862 231.759 88.6525 232.258 91.9627C232.756 95.2728 232.986 106.773 227.429 113.479L218.961 109.447L218.386 106.179Z" fill="white"/>
<path d="M227.429 113.945C227.353 113.945 227.314 113.945 227.238 113.903L218.769 109.871C218.616 109.786 218.501 109.659 218.501 109.489L217.926 106.264C217.773 105.5 214.515 88.4403 214.439 84.6633C214.439 84.1965 214.4 83.6873 214.4 83.178C214.209 76.1333 214.362 72.7383 215.742 72.3988C217.16 72.0169 230.38 72.7808 231.874 72.8656C231.913 72.8656 231.989 72.8656 232.028 72.9081C232.181 72.9505 235.362 74.4358 233.982 82.2444C233.522 84.7482 233.216 86.276 232.947 87.4218C232.488 89.5437 232.411 89.7983 232.717 91.9202C233.254 95.4425 233.484 107.028 227.774 113.86C227.698 113.903 227.544 113.945 227.429 113.945ZM219.382 108.98L227.276 112.757C232.564 106.052 232.143 94.7211 231.721 92.0051C231.376 89.7134 231.453 89.289 231.951 87.0823C232.181 85.9789 232.526 84.4511 232.986 81.9473C234.097 75.709 232.066 74.0963 231.683 73.8417C225.82 73.5022 216.891 73.1203 215.895 73.3749C215.052 73.7568 215.244 80.5469 215.32 83.0931C215.32 83.6448 215.358 84.1541 215.358 84.6209C215.435 88.313 218.807 105.84 218.846 106.01L219.382 108.98Z" fill="black"/>
<path d="M217.773 104.185C217.773 104.185 218.309 104.227 218.041 105.373C217.773 106.519 222.103 111.187 228.272 109.15L230.801 106.816C230.801 106.816 223.482 138.092 223.176 139.663C222.908 141.233 221.03 147.683 211.986 149.763C202.943 151.842 180.181 156.129 180.181 156.129L170.026 211.043H106.376C106.376 211.043 95.6467 208.327 103.847 187.617C112.048 166.908 118.869 137.371 133.469 137.795C134.235 138.899 139.906 145.349 149.256 145.137C158.607 144.925 165.159 145.774 164.546 135.249C171.712 133.212 208.767 128.968 208.767 128.968L217.773 104.185Z" fill="#1A52FF"/>
<path d="M170.064 211.595H106.376C106.338 211.595 106.3 211.595 106.261 211.595C106.146 211.552 103.119 210.746 101.433 207.011C99.4021 202.513 100.054 195.935 103.387 187.448C104.997 183.416 106.568 178.918 108.101 174.589C114.615 156.086 121.359 137.498 133.469 137.838C133.622 137.838 133.775 137.753 133.89 137.88C135.231 139.79 140.941 144.84 149.256 144.628C150.061 144.628 150.828 144.585 151.556 144.585C156.614 144.501 160.638 144.458 162.63 142.039C163.78 140.639 164.47 138.644 164.278 135.504C164.278 135.249 164.546 135.037 164.776 134.995C171.635 133.042 204.667 128.926 208.423 128.502L217.351 104.015C217.428 103.803 217.619 103.675 217.849 103.675C218.041 103.675 218.271 103.803 218.424 104.1C218.654 104.439 218.654 104.949 218.501 105.585C218.501 105.712 218.807 106.434 219.842 107.283C220.685 107.962 223.712 110.126 228.042 108.726L230.495 106.476C230.648 106.349 230.878 106.307 231.07 106.434C231.261 106.561 231.338 106.816 231.261 107.028C231.185 107.325 223.942 138.305 223.636 139.875C223.482 140.724 221.873 148.15 212.063 150.399C203.709 152.309 183.4 156.171 180.564 156.68L170.524 211.17C170.486 211.425 170.294 211.595 170.064 211.595Z" fill="#F2FADE" fill-opacity="0.68"/>
<path d="M36.6723 211.213H22.3789L20.6162 196.572H34.603H38.435L36.6723 211.213ZM21.9574 187.999L24.2566 187.363L26.0959 195.511H23.6818L21.9574 187.999ZM28.5484 190.291H30.9242V195.511H28.5484V190.291ZM28.5484 184.01H30.9242V186.641H28.5484V184.01ZM28.0886 187.66H31.3841V189.23H28.0886V187.66ZM35.331 187.957C35.5226 188.084 35.7526 188.212 35.9825 188.339L34.2581 195.511H33.53L35.331 187.957ZM37.4003 188.636C37.477 188.636 37.5153 188.636 37.5919 188.636L35.9442 195.511H35.2161L36.9022 188.593C37.0555 188.636 37.2471 188.636 37.4003 188.636ZM37.3237 184.732L37.7069 187.575C37.0171 187.66 36.2891 187.448 35.7143 186.981L37.3237 184.732ZM22.7621 184.01L23.3369 186.556L22.4172 186.811L21.8424 184.265L22.7621 184.01ZM39.3163 195.681C39.2397 195.553 39.0864 195.511 38.9715 195.511H36.9405L38.7415 188.127C38.7415 188.042 38.7799 187.999 38.7415 187.914L38.1284 183.416C38.0901 183.204 37.9751 183.034 37.7835 182.992C37.7835 182.992 37.7835 182.992 37.7452 182.992C37.5536 182.949 37.4003 183.034 37.2854 183.161L34.7179 186.726C34.6796 186.769 34.6413 186.854 34.6413 186.896L32.572 195.511H31.9206V190.291C32.1888 190.291 32.3804 190.036 32.3804 189.782V187.151C32.3804 186.854 32.1505 186.641 31.9206 186.641V183.501C31.9206 183.204 31.6906 182.992 31.4607 182.992H28.1652C27.897 182.992 27.7054 183.246 27.7054 183.501V186.641C27.4371 186.641 27.2455 186.896 27.2455 187.151V189.782C27.2455 190.079 27.4755 190.291 27.7054 190.291V195.511H27.1306L25.1379 186.599C25.0613 186.302 24.8314 186.132 24.5631 186.217L24.3332 186.302L23.7584 183.756C23.6434 183.204 23.107 182.864 22.6088 182.992L21.6891 183.246C21.4592 183.331 21.2293 183.501 21.1143 183.713C20.9994 183.968 20.961 184.222 20.9994 184.519L21.5742 187.066L21.3442 187.108L20.8844 187.235C20.118 187.448 19.6582 188.296 19.8498 189.145L20.9994 194.238C21.0377 194.492 21.2293 194.62 21.4592 194.62C21.4975 194.62 21.5358 194.62 21.5742 194.62C21.8424 194.535 21.9957 194.28 21.919 193.983L20.7694 188.891C20.6928 188.593 20.8461 188.339 21.1143 188.254L22.7621 195.511H20.1563C20.003 195.511 19.8881 195.596 19.8114 195.681C19.7348 195.808 19.6965 195.935 19.6965 196.105L21.5742 211.807C21.6125 212.062 21.8041 212.274 22.034 212.274H37.1321C37.362 212.274 37.5536 212.062 37.5919 211.807L39.4696 196.105C39.4313 195.935 39.393 195.808 39.3163 195.681Z" fill="#F2FADE"/>
<path d="M88.7491 93.9572C88.7491 95.3152 86.8715 95.3152 86.8715 93.9572C86.8715 92.5567 88.7491 92.5567 88.7491 93.9572Z" fill="#F2FADE"/>
<path d="M91.5465 93.9572C91.5465 95.3152 89.6689 95.3152 89.6689 93.9572C89.6689 92.5567 91.5465 92.5567 91.5465 93.9572Z" fill="#F2FADE"/>
<path d="M94.3439 93.9572C94.3439 95.3152 92.4662 95.3152 92.4662 93.9572C92.4662 92.5567 94.3439 92.5567 94.3439 93.9572Z" fill="#F2FADE"/>
<path d="M62.4233 90.3076H80.8169V93.4055H60.3157V92.6416C60.3157 91.3685 61.2354 90.3076 62.4233 90.3076ZM96.6814 92.6841V97.5644H81.7749V90.35H94.5738C95.7234 90.3076 96.6814 91.3685 96.6814 92.6841ZM94.5738 124.428H62.4233C61.2737 124.428 60.3157 123.367 60.3157 122.094V98.6254H96.6814V122.094C96.6814 123.367 95.7234 124.428 94.5738 124.428ZM80.8169 97.5644H60.3157V94.4665H80.8169V97.5644ZM62.4233 125.446H94.5738C96.2599 125.446 97.6011 123.918 97.6011 122.094V92.6841C97.6011 90.8168 96.2216 89.3315 94.5738 89.3315H62.4233C60.7372 89.3315 59.396 90.8592 59.396 92.6841V122.094C59.3577 123.918 60.7372 125.446 62.4233 125.446Z" fill="#F2FADE"/>
<path d="M64.4926 86.1911C64.7608 86.1911 64.9524 86.4033 64.9524 86.7003C64.9524 86.9974 64.7608 87.2096 64.4926 87.2096C64.2243 87.2096 64.0327 86.9974 64.0327 86.7003C64.0327 86.4033 64.2243 86.1911 64.4926 86.1911ZM64.4926 88.2705C65.259 88.2705 65.8721 87.5915 65.8721 86.7428C65.8721 85.894 65.259 85.215 64.4926 85.215C63.7262 85.215 63.1131 85.894 63.1131 86.7428C63.1131 87.5491 63.7262 88.2705 64.4926 88.2705Z" fill="#F2FADE"/>
<path d="M94.3439 84.1116C95.1103 84.1116 95.7234 84.7907 95.7234 85.6394C95.7234 86.4882 95.1103 87.1672 94.3439 87.1672C93.5775 87.1672 92.9644 86.4882 92.9644 85.6394C92.9261 84.8331 93.5775 84.1116 94.3439 84.1116ZM94.3439 88.2705C95.6468 88.2705 96.6814 87.1247 96.6814 85.6818C96.6814 84.239 95.6468 83.0931 94.3439 83.0931C93.041 83.0931 92.0064 84.239 92.0064 85.6818C92.0064 87.0823 93.041 88.2705 94.3439 88.2705Z" fill="#F2FADE"/>
<path d="M58.8978 89.5436C58.8978 90.5622 57.48 90.5622 57.48 89.5436C57.5183 88.5251 58.8978 88.5251 58.8978 89.5436Z" fill="#F2FADE"/>
<path d="M71.965 85.4272C71.965 86.4457 70.5472 86.4457 70.5472 85.4272C70.5472 84.3662 71.965 84.3662 71.965 85.4272Z" fill="#F2FADE"/>
<path d="M81.7366 87.4642C81.7366 88.4827 80.3571 88.4827 80.3571 87.4642C80.3571 86.4457 81.7366 86.4457 81.7366 87.4642Z" fill="#F2FADE"/>
<path d="M90.1287 85.4272C90.1287 86.4457 88.7108 86.4457 88.7108 85.4272C88.7492 84.3662 90.1287 84.3662 90.1287 85.4272Z" fill="#F2FADE"/>
<path d="M93.4242 101.681H63.5729C63.3047 101.681 63.1131 101.893 63.1131 102.19V120.778C63.1131 121.075 63.3047 121.287 63.5729 121.287H93.4242C93.6924 121.287 93.884 121.075 93.884 120.778V102.19C93.884 101.935 93.6541 101.681 93.4242 101.681Z" fill="#F2FADE"/>
<path d="M78.4794 118.529C78.1345 118.529 77.9046 118.232 77.9046 117.892C77.9046 117.51 78.1728 117.256 78.4794 117.256C78.8243 117.256 79.0542 117.553 79.0542 117.892C79.0925 118.232 78.8243 118.529 78.4794 118.529ZM78.4794 116.195C77.6363 116.195 76.9466 116.958 76.9466 117.892C76.9466 118.826 77.6363 119.59 78.4794 119.59C79.3224 119.59 80.0122 118.826 80.0122 117.892C80.0122 116.916 79.3224 116.195 78.4794 116.195Z" fill="#F2FADE"/>
<path d="M110.477 193.686C110.285 193.686 110.132 193.559 110.055 193.389C109.94 193.134 110.055 192.795 110.285 192.668C114.002 190.673 121.934 191.055 129.56 191.395C132.511 191.522 135.27 191.649 137.722 191.649C137.99 191.649 138.22 191.904 138.22 192.201C138.22 192.498 137.99 192.753 137.722 192.753C135.27 192.753 132.472 192.625 129.522 192.498C122.317 192.158 114.194 191.776 110.707 193.644C110.592 193.686 110.515 193.686 110.477 193.686Z" fill="black"/>
<path d="M121.513 191.649C121.436 191.649 121.398 191.649 121.321 191.607C121.091 191.479 120.938 191.182 121.053 190.928C121.551 189.527 122.164 187.745 122.777 185.92C125.69 177.347 129.675 165.592 133.085 162.197C133.277 161.985 133.584 162.027 133.775 162.24C133.967 162.452 133.928 162.791 133.737 163.004C130.518 166.229 126.418 178.324 123.697 186.344C123.046 188.212 122.471 189.994 121.973 191.394C121.896 191.522 121.704 191.649 121.513 191.649Z" fill="black"/>
<path d="M123.544 212.146C123.314 212.146 123.084 211.934 123.046 211.637C123.007 211.34 123.237 211.086 123.467 211.043C130.403 210.364 137.186 206.163 137.224 206.12C137.454 205.993 137.76 206.078 137.875 206.333C137.99 206.587 137.914 206.927 137.684 207.054C137.416 207.224 130.671 211.425 123.505 212.104C123.582 212.146 123.582 212.146 123.544 212.146Z" fill="black"/>
<path d="M107.104 188.848C106.951 188.848 106.836 188.806 106.721 188.763C106.223 188.509 106.031 187.872 106.223 187.32C106.3 187.151 113.427 169.878 118.6 156.68C123.965 143.058 130.326 140.511 130.595 140.427C131.093 140.257 131.668 140.554 131.821 141.106C131.974 141.657 131.706 142.251 131.208 142.464C131.131 142.506 125.306 144.925 120.363 157.571C115.19 170.77 108.062 188.042 107.986 188.254C107.833 188.636 107.488 188.848 107.104 188.848Z" fill="white"/>
<path d="M150.713 197.59C150.713 197.59 158.721 192.413 159.373 191.097C160.024 189.782 165.121 187.66 166.577 187.914C168.033 188.127 165.313 183.034 160.446 185.75C155.579 188.466 147.417 192.243 147.417 192.243L148.337 198.524L150.713 197.59Z" fill="white"/>
<path d="M148.337 199.033C148.26 199.033 148.183 198.991 148.107 198.948C147.992 198.863 147.915 198.736 147.877 198.566L146.957 192.286C146.919 192.031 147.034 191.819 147.264 191.691C147.34 191.649 155.464 187.914 160.254 185.198C163.09 183.586 165.427 184.477 166.654 185.835C167.344 186.599 167.612 187.405 167.382 187.914C167.229 188.254 166.922 188.424 166.539 188.339C165.159 188.127 160.331 190.206 159.833 191.267C159.143 192.668 152.36 197.081 151.019 197.972C150.981 197.972 150.981 198.015 150.943 198.015L148.567 198.948C148.413 199.033 148.375 199.033 148.337 199.033ZM147.954 192.583L148.72 197.802L150.521 197.123C153.778 195.002 158.53 191.691 158.951 190.843C159.718 189.272 164.584 187.363 166.386 187.363H166.424C166.309 187.066 165.964 186.599 165.389 186.175C164.623 185.623 163.013 184.944 160.676 186.217C156.384 188.593 149.563 191.819 147.954 192.583Z" fill="black"/>
<path d="M137.531 206.587C137.301 206.587 137.109 206.417 137.071 206.205C136.956 205.823 134.618 196.954 137.147 193.049C137.875 191.904 138.948 191.267 140.328 191.182C140.328 191.182 140.328 191.182 140.366 191.182C140.519 191.182 140.673 191.267 140.749 191.394C140.749 191.394 140.941 191.691 141.286 191.691C141.631 191.691 142.359 191.394 143.355 189.527C143.547 189.188 143.777 188.721 144.045 188.169C146.229 183.84 151.402 173.655 158.53 173.655C160.752 173.655 163.013 174.632 165.198 176.584C165.313 176.711 165.389 176.881 165.389 177.05C165.351 177.645 164.891 178.833 163.435 178.833C162.86 178.833 162.094 178.621 161.212 178.366C160.254 178.111 159.181 177.814 158.415 177.814C157.955 177.814 157.763 177.899 157.649 177.984C157.15 178.408 156.652 178.833 156.307 179.215C157.074 179.385 158.147 179.724 159.258 180.276C161.902 181.591 163.167 183.543 162.937 185.92C162.937 185.962 162.937 186.005 162.898 186.047C162.822 186.344 162.439 186.811 161.749 186.811C161.289 186.811 160.752 186.599 160.139 186.217C158.836 185.411 154.506 183.501 151.939 183.501C151.517 183.501 151.172 183.543 150.904 183.671C150.866 183.883 150.828 184.053 150.828 184.18C150.904 184.18 151.057 184.222 151.211 184.222C153.203 184.477 159.258 185.241 161.787 188.127L161.825 188.169C162.209 188.721 162.094 189.145 161.979 189.357C161.634 190.121 160.561 190.333 160.063 190.333C159.986 190.333 159.948 190.333 159.871 190.333C159.641 190.333 158.99 190.121 157.687 189.739C155.349 189.018 151.441 187.83 149.716 187.83C149.295 187.83 149.18 187.915 149.18 187.915C148.873 188.212 148.873 188.339 148.873 188.339C148.912 188.381 149.141 188.551 149.486 188.594C158.453 189.485 158.683 190.503 158.798 190.885C158.875 191.182 158.836 191.479 158.645 191.734C158.262 192.286 157.38 192.498 155.273 192.498C154.66 192.498 154.008 192.498 153.28 192.455H153.203C152.897 192.455 152.59 192.455 152.284 192.413C151.939 192.413 151.594 192.37 151.287 192.37C150.483 192.37 150.023 192.498 149.793 192.795C149.486 193.177 149.333 193.941 149.371 195.171C149.371 195.596 149.41 196.02 149.448 196.444C149.755 200.179 150.176 205.314 137.454 206.63C137.531 206.587 137.531 206.587 137.531 206.587Z" fill="white"/>
<path d="M158.568 174.207C160.561 174.207 162.668 175.014 164.968 177.008C164.968 177.008 164.891 178.281 163.473 178.281C162.4 178.281 159.986 177.263 158.453 177.263C158.032 177.263 157.649 177.348 157.419 177.517C156.269 178.409 155.349 179.512 155.349 179.512C155.349 179.512 162.975 180.615 162.477 185.793C162.477 185.793 162.324 186.217 161.787 186.217C161.481 186.217 161.059 186.09 160.408 185.708C158.99 184.817 154.583 182.907 151.977 182.907C151.402 182.907 150.904 182.992 150.559 183.204C150.559 183.204 150.176 184.477 150.636 184.604C151.057 184.732 158.721 185.199 161.557 188.424C162.132 189.273 160.982 189.739 160.178 189.739C160.139 189.739 160.063 189.739 160.024 189.739C159.335 189.697 152.399 187.236 149.831 187.236C149.448 187.236 149.141 187.278 148.988 187.448C147.877 188.466 148.873 189.018 149.525 189.103C150.214 189.188 158.147 189.994 158.377 191.013C158.568 191.776 157.227 191.946 155.311 191.946C154.66 191.946 153.97 191.946 153.242 191.904C152.514 191.904 151.862 191.819 151.326 191.819C149.678 191.819 148.835 192.243 148.912 195.171C149.027 199.076 151.172 204.635 137.454 206.078C137.454 206.078 133.699 192.116 140.251 191.776C140.251 191.776 140.596 192.286 141.209 192.286C141.822 192.286 142.665 191.776 143.7 189.867C145.463 186.726 150.828 174.207 158.568 174.207ZM158.568 173.146C151.134 173.146 145.884 183.501 143.662 187.957C143.393 188.509 143.164 188.976 142.972 189.315C141.976 191.182 141.363 191.225 141.286 191.225C141.209 191.225 141.133 191.182 141.133 191.14C140.941 190.843 140.711 190.715 140.366 190.715C140.328 190.715 140.328 190.715 140.29 190.715C138.795 190.8 137.569 191.522 136.726 192.795C135.576 194.577 135.231 197.421 135.653 201.282C135.959 204.041 136.573 206.29 136.573 206.375C136.687 206.842 137.071 207.139 137.492 207.139C137.531 207.139 137.569 207.139 137.569 207.139C143.355 206.545 146.881 205.187 148.682 202.895C150.368 200.773 150.138 198.312 149.985 196.36C149.946 195.935 149.908 195.511 149.908 195.087C149.87 193.686 150.061 193.262 150.176 193.092C150.329 192.922 150.674 192.837 151.326 192.837C151.632 192.837 151.939 192.837 152.284 192.88C152.59 192.88 152.897 192.922 153.203 192.922H153.28C153.97 192.922 154.66 192.965 155.273 192.965C157.304 192.965 158.492 192.795 159.028 191.989C159.296 191.607 159.373 191.14 159.258 190.673C159.565 190.758 159.718 190.8 159.833 190.8C159.909 190.8 159.986 190.8 160.063 190.8C160.714 190.8 161.979 190.546 162.439 189.527C162.707 188.976 162.63 188.296 162.209 187.745C162.17 187.702 162.17 187.66 162.132 187.66C162.017 187.533 161.902 187.405 161.749 187.278C162.553 187.236 163.09 186.726 163.282 186.175C163.32 186.09 163.32 186.005 163.32 185.92C163.741 181.549 159.718 179.682 157.227 178.918C157.419 178.748 157.61 178.578 157.802 178.409C157.802 178.409 157.917 178.324 158.262 178.324C158.99 178.324 160.024 178.621 160.944 178.875C161.864 179.13 162.668 179.342 163.282 179.342C164.968 179.342 165.657 177.984 165.734 177.093C165.772 176.753 165.619 176.414 165.351 176.159C163.243 174.165 160.906 173.146 158.568 173.146Z" fill="black"/>
<path d="M133.43 137.796C133.43 137.796 142.819 139.493 144.888 137.456C146.957 135.419 149.218 127.526 148.03 125.489C146.842 123.452 136.343 120.438 136.343 120.438L135.538 102.784L153.663 93.1934L160.791 95.9518C160.791 95.9518 167.765 106.604 168.416 112.29C169.068 117.977 166.807 126.04 159.526 125.955C159.526 125.955 157.38 136.522 157.84 136.522C158.338 136.522 164.546 135.292 164.546 135.292C164.546 135.292 165.926 143.015 160.944 143.991C155.962 144.925 139.906 148.023 133.43 137.796Z" fill="white"/>
<path d="M150.138 145.646C141.937 145.646 136.189 143.143 133.009 138.135C132.894 137.965 132.894 137.711 133.009 137.541C133.124 137.371 133.315 137.244 133.507 137.286C136.036 137.753 143.01 138.602 144.581 137.074C146.574 135.122 148.643 127.526 147.609 125.786C146.804 124.428 140.175 122.094 136.189 120.948C135.998 120.905 135.844 120.693 135.844 120.438L135.04 102.784C135.04 102.572 135.155 102.36 135.308 102.275L153.433 92.6841C153.548 92.6417 153.663 92.5992 153.817 92.6417L160.944 95.4001C161.021 95.4426 161.136 95.485 161.174 95.6123C161.481 96.0367 168.225 106.434 168.876 112.205C169.221 115.346 168.723 120.184 166.156 123.367C164.546 125.361 162.439 126.38 159.871 126.465C159.066 130.369 158.338 134.528 158.223 135.886C159.373 135.716 162.439 135.122 164.431 134.698C164.699 134.655 164.929 134.825 165.006 135.122C165.044 135.292 165.772 139.578 164.086 142.336C163.358 143.482 162.362 144.204 161.021 144.458C156.997 145.265 153.395 145.646 150.138 145.646ZM134.542 138.559C139.025 144.331 147.839 145.986 160.829 143.44C161.864 143.228 162.707 142.676 163.243 141.785C164.393 139.917 164.24 137.074 164.086 135.928C162.439 136.268 158.223 137.074 157.763 137.074C157.61 137.074 157.457 136.989 157.342 136.862C157.15 136.607 156.844 136.183 158.951 125.87C158.99 125.616 159.181 125.446 159.411 125.446C161.864 125.489 163.856 124.555 165.351 122.688C167.727 119.759 168.148 115.303 167.842 112.375C167.267 107.24 161.212 97.6918 160.408 96.4186L153.625 93.7875L135.998 103.124L136.764 120.014C138.795 120.608 147.225 123.197 148.413 125.191C149.793 127.483 147.417 135.716 145.195 137.88C143.432 139.62 137.262 138.941 134.542 138.559Z" fill="black"/>
<path d="M148.184 129.223C148.184 129.223 144.888 124.64 140.136 124.767C135.385 124.937 128.909 110.508 132.817 98.9649C136.381 88.4828 144.581 86.955 150.674 86.5307C156.767 86.0638 161.519 86.3609 162.439 84.8756C163.397 83.3903 166.5 93.8724 162.439 96.2913C158.377 98.7103 144.696 102.445 142.819 101.851C140.941 101.257 143.777 105.967 143.585 106.986C143.164 109.32 147.455 118.02 147.455 118.02C147.455 118.02 141.861 111.442 140.366 113.351C138.872 115.303 138.067 119.759 141.324 120.82C144.581 121.881 145.846 120.311 145.846 120.311L149.333 124.173L148.184 129.223Z" fill="black"/>
<path d="M164.891 89.5438C164.738 88.016 164.24 86.0214 163.588 84.918C163.358 84.5361 163.128 84.2815 162.86 84.1966C162.553 84.1117 162.247 84.239 162.055 84.5361C161.481 85.4273 158.53 85.5546 155.081 85.7244C153.74 85.7668 152.245 85.8517 150.636 85.979C143.968 86.4882 135.883 88.3555 132.357 98.7528C131.974 99.8986 131.668 101.044 131.476 102.233C130.288 109.32 132.242 116.916 135.155 121.457C136.764 123.961 138.527 125.276 140.136 125.234C144.581 125.064 147.762 129.435 147.8 129.478C147.877 129.605 148.03 129.69 148.183 129.69C148.222 129.69 148.26 129.69 148.298 129.69C148.49 129.648 148.605 129.478 148.682 129.308L149.831 124.343C149.87 124.173 149.831 123.961 149.716 123.834L146.229 119.972C146.153 119.887 145.999 119.802 145.884 119.802C145.769 119.802 145.616 119.887 145.539 119.972C145.501 120.014 144.39 121.287 141.516 120.311C140.596 120.014 139.983 119.378 139.753 118.444C139.332 116.874 139.945 114.837 140.826 113.733C140.903 113.648 140.979 113.564 141.171 113.564C142.512 113.521 145.578 116.492 147.187 118.401C147.34 118.614 147.647 118.614 147.839 118.486C148.03 118.317 148.107 118.02 147.992 117.807C146.344 114.497 143.892 108.683 144.16 107.113C144.237 106.604 143.968 105.84 143.47 104.567C143.24 103.93 142.78 102.827 142.742 102.36H142.78C144.888 103.039 158.721 99.1771 162.783 96.7582C164.508 95.6972 165.313 93.0661 164.891 89.5438ZM142.972 101.299C142.397 101.129 142.052 101.341 141.899 101.511C141.401 102.105 141.822 103.209 142.512 104.949C142.78 105.585 143.164 106.604 143.125 106.858C142.819 108.471 144.428 112.545 145.693 115.388C144.237 113.988 142.359 112.46 141.094 112.46C140.634 112.46 140.29 112.672 140.021 113.012C139.025 114.327 138.259 116.789 138.795 118.741C139.14 120.014 139.983 120.948 141.209 121.33C143.738 122.178 145.195 121.499 145.846 121.033L148.835 124.343L147.915 128.077C146.727 126.762 143.968 124.173 140.328 124.173H140.021C138.795 124.173 137.301 122.985 135.921 120.863C132.932 116.195 131.016 108.174 132.702 101.044C132.855 100.408 133.047 99.7713 133.239 99.1347C136.534 89.374 143.93 87.5492 150.674 87.0399C152.245 86.9126 153.74 86.8702 155.081 86.7853C159.028 86.6155 161.672 86.4882 162.668 85.3424C162.745 85.4273 162.822 85.597 162.898 85.7668C163.397 86.8277 164.01 89.1194 163.971 91.411C163.933 92.9388 163.626 94.9334 162.209 95.7821C158.223 98.1586 144.696 101.851 142.972 101.299Z" fill="black"/>
<path d="M163.128 86.0215C163.052 86.1912 163.435 86.5307 163.32 86.7005C163.205 86.8278 163.167 87.1248 163.052 87.2946C162.592 87.8887 161.596 88.695 160.446 88.9072C156.844 89.6711 154.123 88.8648 149.716 89.7135C145.195 90.6047 139.255 93.1086 135.921 97.8616C134.35 100.111 133.737 101.681 133.315 102.869C133.162 103.336 132.817 103.93 132.626 104.142C132.434 104.355 132.434 104.27 132.242 104.439C132.434 103.209 132.626 101.681 133.009 100.493C136.419 89.5862 144.237 87.6341 150.674 87.1248C152.207 86.9975 153.663 86.9126 154.966 86.8702C158.3 86.7005 161.174 86.5732 161.71 85.6395C161.902 85.3 162.17 85.1727 162.477 85.2576C162.668 85.3425 162.898 85.6395 163.128 86.0215Z" fill="white"/>
<path d="M49.6627 171.024C52.4218 172.764 54.3761 183.883 49.6627 187.32H90.5119V171.024H49.6627Z" fill="white"/>
<path d="M90.5119 187.957H49.6627C49.3945 187.957 49.1646 187.787 49.0879 187.49C49.0113 187.235 49.1263 186.938 49.3179 186.769C51.0423 185.495 52.0003 182.822 51.8853 179.384C51.7703 175.608 50.4675 172.297 49.3179 171.576C49.0879 171.449 48.973 171.152 49.0496 170.855C49.1263 170.557 49.3562 170.388 49.6244 170.388H90.4735C90.7801 170.388 91.0484 170.685 91.0484 171.024V187.32C91.0867 187.702 90.8567 187.957 90.5119 187.957ZM51.1955 186.684H89.9371V171.703H51.0806C52.1919 173.401 52.9966 176.329 53.0732 179.384C53.1499 181.252 52.9199 184.477 51.1955 186.684Z" fill="black"/>
<path d="M87.9827 167.926H48.973C47.1719 167.926 45.7158 169.539 45.7158 171.533V172.212H78.8626C83.2311 172.212 86.7565 175.395 86.7565 179.257C86.7565 181.209 85.8751 182.992 84.4573 184.265C83.0395 185.538 81.0468 186.344 78.8626 186.344H45.7541C45.9457 188.296 47.4019 189.824 49.2029 189.824H88.0211C93.2326 189.824 97.4478 185.156 97.4478 179.384V178.324C97.4095 172.594 93.1943 167.926 87.9827 167.926Z" fill="white"/>
<path d="M87.9827 190.418H49.1646C47.0953 190.418 45.3709 188.721 45.1793 186.429C45.1793 186.259 45.2176 186.09 45.2943 185.962C45.4092 185.835 45.5242 185.75 45.6775 185.75H78.7859C80.7786 185.75 82.6563 185.071 84.0358 183.798C85.4153 182.567 86.1434 180.955 86.1434 179.257C86.1434 175.692 82.8479 172.764 78.7859 172.764H45.6391C45.3326 172.764 45.1027 172.51 45.1027 172.17V171.491C45.1027 169.157 46.7887 167.29 48.8963 167.29H87.9061C93.3859 167.29 97.831 172.213 97.831 178.281V179.342C97.9076 185.496 93.4625 190.418 87.9827 190.418ZM46.3672 186.981C46.7504 188.339 47.8617 189.272 49.2029 189.272H88.0211C92.926 189.272 96.9113 184.859 96.9113 179.427V178.366C96.9113 172.934 92.926 168.52 88.0211 168.52H48.973C47.4785 168.52 46.2523 169.878 46.2523 171.534V171.661H78.8626C83.4993 171.661 87.293 175.098 87.293 179.3C87.293 181.379 86.4116 183.289 84.8022 184.774C83.2311 186.174 81.1235 186.981 78.9009 186.981H46.3672Z" fill="black"/>
<path d="M93.4242 193.049C90.6651 194.789 88.7108 205.908 93.4242 209.346H52.5751V193.049H93.4242Z" fill="white"/>
<path d="M93.4242 209.982H52.5751C52.2685 209.982 52.0003 209.685 52.0003 209.346V193.049C52.0003 192.71 52.2685 192.413 52.5751 192.413H93.4242C93.6924 192.413 93.9223 192.625 93.999 192.88C94.0756 193.177 93.9607 193.474 93.7307 193.601C92.5811 194.323 91.2783 197.633 91.1633 201.41C91.0867 204.847 92.0063 207.521 93.7307 208.794C93.9607 208.964 94.0373 209.261 93.9607 209.515C93.9223 209.812 93.6924 209.982 93.4242 209.982ZM53.1499 208.709H91.8914C90.167 206.502 89.9754 203.319 90.0137 201.41C90.0903 198.354 90.8951 195.426 92.0063 193.728H53.1499V208.709Z" fill="black"/>
<path d="M55.1042 189.951H94.114C95.915 189.951 97.3712 191.564 97.3712 193.559V194.238H64.2244C59.8559 194.238 56.3304 197.421 56.3304 201.282C56.3304 203.234 57.2118 205.017 58.6296 206.29C60.0475 207.563 62.0401 208.369 64.2244 208.369H97.3328C97.1412 210.322 95.6851 211.849 93.884 211.849H55.1042C49.8927 211.849 45.6775 207.181 45.6775 201.41V200.349C45.6775 194.62 49.8927 189.951 55.1042 189.951Z" fill="white"/>
<path d="M93.9224 212.444H55.1042C49.6244 212.444 45.1793 207.521 45.1793 201.452V200.391C45.1793 194.323 49.6244 189.4 55.1042 189.4H94.114C96.2216 189.4 97.9076 191.267 97.9076 193.601V194.28C97.9076 194.62 97.6777 194.874 97.3712 194.874H64.2243C60.1624 194.874 56.8669 197.76 56.8669 201.367C56.8669 203.065 57.6333 204.677 58.9745 205.908C60.354 207.139 62.2317 207.86 64.2243 207.86H97.3328C97.4861 207.86 97.6394 207.945 97.716 208.072C97.831 208.2 97.8693 208.369 97.831 208.539C97.6777 210.746 95.9916 212.444 93.9224 212.444ZM55.1042 190.546C50.1992 190.546 46.2139 194.959 46.2139 200.391V201.452C46.2139 206.884 50.1992 211.298 55.1042 211.298H93.9224C95.2252 211.298 96.3748 210.364 96.758 209.006H64.301C62.0784 209.006 59.9708 208.242 58.3997 206.799C56.7903 205.356 55.9089 203.404 55.9089 201.325C55.9089 197.123 59.7026 193.686 64.3393 193.686H96.9496V193.559C96.9496 191.904 95.7234 190.546 94.2289 190.546H55.1042Z" fill="black"/>
<path d="M227.391 211.807H151.939V205.823C151.939 203.998 153.28 202.513 154.928 202.513H227.391V211.807Z" fill="white"/>
<path d="M227.391 212.359H151.939C151.671 212.359 151.441 212.104 151.441 211.807V206.714C151.441 204.126 153.357 202.004 155.694 202.004H227.391C227.659 202.004 227.889 202.258 227.889 202.556V211.849C227.889 212.104 227.659 212.359 227.391 212.359ZM152.437 211.255H226.931V203.065H155.694C153.893 203.065 152.399 204.677 152.399 206.714V211.255H152.437Z" fill="black"/>
<path d="M188.036 162.834C188.036 162.834 181.867 162.579 179.798 169.496C177.115 178.536 168.455 201.24 168.455 201.24C168.455 201.24 166.232 206.545 175.812 206.417C185.392 206.248 226.241 206.417 226.241 206.417C226.241 206.417 231.185 207.648 233.79 200.179C236.396 192.752 244.597 170.43 244.597 170.43C244.597 170.43 246.513 162.621 240.228 162.579C233.944 162.537 188.036 162.834 188.036 162.834Z" fill="white"/>
<path d="M227.008 207.012C226.625 207.012 226.356 206.969 226.241 206.969C224.747 206.969 185.201 206.799 175.851 206.969C171.827 207.054 169.298 206.163 168.263 204.38C167.343 202.768 168.033 201.113 168.033 201.028C168.11 200.816 176.694 178.281 179.338 169.369C181.445 162.282 187.653 162.324 188.036 162.324C188.764 162.324 234.02 162.027 240.267 162.07C242.144 162.07 243.524 162.749 244.405 164.022C246.129 166.526 245.171 170.43 245.133 170.6V170.642C245.057 170.854 236.894 193.049 234.327 200.391C232.219 206.29 228.617 207.012 227.008 207.012ZM192.788 205.781C207.694 205.781 226.011 205.866 226.28 205.866C226.318 205.866 226.356 205.866 226.395 205.866C226.586 205.908 230.993 206.842 233.369 199.967C235.898 192.752 243.83 171.236 244.175 170.26C244.252 169.921 244.942 166.611 243.6 164.616C242.911 163.64 241.799 163.131 240.228 163.088C234.02 163.046 188.458 163.343 187.998 163.343C187.998 163.343 187.998 163.343 187.96 163.343C187.73 163.343 182.135 163.173 180.219 169.666C177.575 178.621 168.953 201.198 168.876 201.452C168.838 201.537 168.378 202.683 169.03 203.786C169.604 204.762 171.252 205.951 175.774 205.866C178.954 205.823 185.469 205.781 192.788 205.781Z" fill="black"/>
<path d="M147.494 108.344C147.494 108.344 147.877 102.827 154.851 103.081L147.494 108.344Z" fill="white"/>
<path d="M147.494 108.895H147.455C147.187 108.853 146.996 108.598 146.996 108.301C146.996 108.259 147.494 102.275 154.851 102.572C155.119 102.572 155.311 102.827 155.311 103.124C155.311 103.421 155.081 103.675 154.813 103.633C148.413 103.378 147.954 108.174 147.954 108.386C147.954 108.683 147.762 108.895 147.494 108.895Z" fill="black"/>
<path d="M163.818 101.044C163.818 101.044 157.687 102.148 157.84 105.712C157.993 109.277 158.415 112.248 160.829 112.545C163.167 112.842 163.511 114.624 163.052 115.813" fill="white"/>
<path d="M163.052 116.364C162.975 116.364 162.937 116.364 162.86 116.322C162.63 116.195 162.515 115.898 162.592 115.601C162.783 115.091 162.783 114.497 162.553 114.073C162.247 113.521 161.634 113.182 160.791 113.054C157.917 112.715 157.495 109.065 157.38 105.713C157.189 101.723 163.511 100.535 163.78 100.493C164.048 100.45 164.278 100.662 164.355 100.917C164.393 101.214 164.201 101.469 163.971 101.554C162.4 101.851 158.262 103.124 158.377 105.67C158.53 109.405 159.028 111.781 160.944 111.993C162.439 112.163 163.128 112.927 163.435 113.521C163.818 114.243 163.856 115.176 163.55 116.025C163.397 116.28 163.243 116.364 163.052 116.364Z" fill="black"/>
<path d="M154.889 117.383C154.889 117.383 156.92 121.881 161.94 119.165L154.889 117.383Z" fill="white"/>
<path d="M158.913 120.566C155.809 120.566 154.468 117.638 154.43 117.638C154.315 117.383 154.391 117.043 154.66 116.916C154.89 116.789 155.196 116.874 155.311 117.171C155.388 117.34 157.189 121.16 161.749 118.699C161.979 118.571 162.285 118.698 162.4 118.953C162.515 119.208 162.4 119.547 162.17 119.675C160.906 120.311 159.833 120.566 158.913 120.566Z" fill="black"/>
<path d="M219.689 73.7994C218.961 77.9583 218.079 80.6318 218.961 82.0323C219.842 83.4327 221.336 87.6765 221.336 87.6765C221.336 87.6765 220.034 75.8788 223.367 73.7994" fill="white"/>
<path d="M221.336 88.1712C221.145 88.1712 220.953 88.0439 220.877 87.8317C220.877 87.7893 219.42 83.6304 218.577 82.3148C217.773 81.0417 218.156 79.132 218.731 76.2887C218.884 75.5248 219.075 74.6336 219.229 73.6575C219.267 73.3605 219.535 73.1907 219.804 73.2331C220.072 73.2756 220.225 73.5726 220.187 73.8697C220.033 74.8458 219.842 75.737 219.689 76.5008C219.19 79.0047 218.807 80.7871 219.382 81.6782C219.765 82.2724 220.225 83.2909 220.647 84.3518C220.608 83.4606 220.608 82.4846 220.647 81.4661C220.762 77.0101 221.605 74.2516 223.176 73.318C223.406 73.1907 223.712 73.2756 223.827 73.5302C223.942 73.7848 223.866 74.1243 223.636 74.2516C221.145 75.8218 221.49 84.3943 221.835 87.5771C221.873 87.8317 221.72 88.0863 221.451 88.1712C221.413 88.1712 221.375 88.1712 221.336 88.1712Z" fill="black"/>
<path d="M227.199 73.7994C227.199 73.7994 224.019 80.1226 224.938 85.6819L227.199 73.7994Z" fill="white"/>
<path d="M224.9 86.2179C224.67 86.2179 224.479 86.0481 224.44 85.7935C223.521 80.1068 226.625 73.826 226.778 73.529C226.893 73.2744 227.199 73.1895 227.429 73.3168C227.659 73.4441 227.736 73.7836 227.621 74.0382C227.583 74.0807 224.555 80.2342 225.398 85.5813C225.437 85.8784 225.283 86.133 225.015 86.2179C224.977 86.2179 224.938 86.2179 224.9 86.2179Z" fill="black"/>
<path d="M231.798 73.375C231.798 73.375 228.081 80.6743 228.311 83.8996C228.541 87.1248 228.311 87.6765 228.311 87.6765" fill="white"/>
<path d="M228.311 88.1857C228.234 88.1857 228.157 88.1857 228.081 88.1433C227.851 88.016 227.736 87.6765 227.889 87.4219C227.889 87.4219 228.042 86.7429 227.851 83.942C227.583 80.5894 231.261 73.4174 231.415 73.1204C231.53 72.8657 231.836 72.7808 232.066 72.9082C232.296 73.0355 232.373 73.375 232.258 73.6296C232.219 73.7145 228.617 80.8016 228.847 83.8571C229.077 86.9126 228.885 87.7189 228.77 87.9311C228.656 88.1009 228.502 88.1857 228.311 88.1857Z" fill="black"/>
<path d="M216.163 93.9996C216.163 93.9996 220.57 83.7722 223.367 82.3293C226.126 80.8864 226.203 84.5785 224.9 87.2945C223.597 90.0105 222.601 90.2651 224.287 92.0475C225.973 93.8299 228.617 97.14 226.931 104.736" fill="white"/>
<path d="M226.931 105.331C226.893 105.331 226.855 105.331 226.816 105.331C226.548 105.246 226.395 104.949 226.471 104.694C228.157 97.0128 225.322 93.9572 223.942 92.5144C222.448 90.9017 222.793 90.0954 223.636 88.6101C223.866 88.1857 224.172 87.7189 224.44 87.0823C225.322 85.2575 225.398 83.3478 224.9 82.7961C224.594 82.4142 223.98 82.6264 223.521 82.881C221.375 83.9844 217.773 91.4958 216.546 94.2967C216.431 94.5514 216.125 94.6787 215.895 94.5514C215.665 94.4241 215.55 94.0846 215.665 93.8299C215.857 93.4056 220.187 83.4327 223.099 81.9049C224.44 81.2259 225.168 81.6078 225.59 82.0747C226.586 83.2205 226.165 85.7667 225.283 87.5916C224.977 88.2281 224.67 88.7798 224.44 89.2042C223.674 90.5198 223.597 90.6895 224.594 91.7505C225.973 93.2358 229.192 96.7157 227.391 104.949C227.353 105.161 227.161 105.331 226.931 105.331Z" fill="black"/>
<path d="M154.091 110.552C154.846 110.245 155.144 109.05 154.757 107.884C154.369 106.719 153.444 106.023 152.689 106.33C151.934 106.638 151.636 107.832 152.024 108.998C152.411 110.164 153.337 110.86 154.091 110.552Z" fill="#F2FADE"/>
<path d="M162.646 108.385C163.4 108.077 163.698 106.883 163.311 105.717C162.924 104.551 161.998 103.856 161.243 104.163C160.488 104.471 160.19 105.665 160.578 106.831C160.965 107.997 161.891 108.692 162.646 108.385Z" fill="#F2FADE"/>
<path d="M219.842 39.7218H220.417C220.455 40.4856 221.068 41.0798 221.758 41.0798C222.448 41.0798 223.022 40.4856 223.099 39.7218C223.099 39.552 223.214 39.4247 223.367 39.4247C223.521 39.4247 223.636 39.552 223.636 39.7218C223.674 40.4856 224.287 41.0798 224.977 41.0798C225.667 41.0798 226.241 40.4856 226.318 39.7218H226.854V40.4432C226.854 41.0373 226.663 41.589 226.318 42.0558C226.165 42.268 226.011 42.4802 225.896 42.7348L225.552 43.4987C225.13 44.3899 224.287 44.984 223.367 44.984C222.448 44.984 221.605 44.4323 221.183 43.4987L220.838 42.7348C220.723 42.4802 220.57 42.268 220.417 42.0558C220.072 41.589 219.88 41.0373 219.88 40.4432V39.7218H219.842ZM221.72 39.8915C221.949 39.8915 222.141 39.6793 222.141 39.4247C222.141 39.3398 222.141 39.2974 222.103 39.2125C222.179 39.2125 222.256 39.1276 222.294 39.0427C222.448 39.2125 222.563 39.4247 222.563 39.6793C222.563 40.1461 222.218 40.5705 221.758 40.5705C221.336 40.5705 220.953 40.1886 220.953 39.6793C220.953 39.4671 221.03 39.2549 221.183 39.0852C221.221 39.1701 221.298 39.1701 221.375 39.2125C221.336 39.2549 221.336 39.3398 221.336 39.4247C221.336 39.552 221.375 39.6793 221.451 39.7642C221.451 39.8915 221.566 39.9339 221.72 39.8915ZM224.9 39.8915C225.13 39.8915 225.322 39.6793 225.322 39.4247C225.322 39.3398 225.283 39.2974 225.245 39.2125C225.322 39.2125 225.398 39.1701 225.437 39.0852C225.59 39.2549 225.667 39.4671 225.667 39.7218C225.667 40.1886 225.322 40.6129 224.862 40.6129C224.44 40.6129 224.057 40.231 224.057 39.7218C224.057 39.4671 224.134 39.2549 224.287 39.0852C224.325 39.1701 224.402 39.2125 224.479 39.2125C224.44 39.2549 224.44 39.3398 224.44 39.4247C224.44 39.552 224.479 39.6793 224.555 39.7642C224.67 39.8915 224.785 39.9339 224.9 39.8915ZM219.842 38.9154V38.7457C219.842 38.7032 219.842 38.6608 219.842 38.6184V37.5999C219.842 37.5999 219.919 36.3267 220.877 36.3267C221.681 36.7087 222.524 36.9633 223.367 37.0906C224.134 37.0906 224.9 36.836 225.552 36.3267C225.896 36.3267 226.203 36.454 226.433 36.7511C226.663 37.0057 226.778 37.3877 226.739 37.7696V39.1276H226.088C225.896 38.6184 225.437 38.2789 224.938 38.2364C224.44 38.194 223.98 38.4911 223.712 39.0003C223.444 38.7881 223.099 38.7881 222.831 39.0003C222.601 38.5335 222.103 38.2364 221.605 38.2364C221.106 38.2789 220.647 38.6184 220.455 39.1276H219.765L219.842 38.9154ZM218.807 37.0482C218.807 37.3877 218.884 37.7272 218.961 38.0667V40.4008C218.961 41.2071 219.229 42.0134 219.727 42.65C219.842 42.8197 219.957 42.947 220.034 43.1592L220.378 43.9231C220.953 45.1538 222.064 45.9177 223.329 45.9177C224.594 45.9177 225.705 45.1538 226.28 43.9231L226.625 43.1592C226.701 42.9895 226.816 42.8197 226.931 42.65C227.429 42.0134 227.697 41.2495 227.697 40.4008V38.3213C227.697 38.2789 227.697 38.2364 227.697 38.194C227.774 37.6847 227.774 37.1755 227.697 36.6662C227.697 36.4965 227.659 36.2843 227.621 36.1145V35.8599C227.621 35.9448 227.659 36.0297 227.697 36.0721C227.697 36.157 227.774 36.2843 227.812 36.4116C227.851 36.5389 227.812 36.4116 227.812 36.3692C227.774 36.1145 227.697 35.8599 227.621 35.6477C227.621 35.3931 227.582 35.1385 227.544 34.9263C227.544 34.9263 227.544 34.8414 227.506 34.799C227.506 34.7565 227.506 34.7565 227.506 34.7141C227.468 34.5443 227.391 34.417 227.314 34.2897C227.238 34.1624 227.161 34.0775 227.046 33.9502C227.008 33.9078 226.969 33.8653 226.931 33.8229C226.816 33.6107 226.663 33.3985 226.471 33.2288C226.356 33.1439 226.241 33.059 226.088 32.9741L225.628 32.762L225.513 32.7195C225.973 32.762 226.395 32.8893 226.778 33.1015L227.008 33.2288L226.931 33.1863C226.854 33.1439 226.778 33.059 226.663 33.0166C226.241 32.762 225.781 32.5922 225.283 32.5498C225.053 32.5498 224.823 32.5073 224.632 32.4225C224.555 32.38 224.479 32.38 224.402 32.3376H224.325L224.057 32.2527H225.053C224.632 32.1678 224.172 32.1254 223.751 32.1678C223.597 32.1678 223.444 32.1678 223.291 32.1678H223.099L224.095 31.9556C223.751 31.9556 223.406 31.9981 223.099 32.0405C222.907 32.0405 222.754 32.1254 222.563 32.1678C222.371 32.2103 222.026 32.2103 221.796 32.2527C222.333 31.9981 222.869 31.8283 223.444 31.7859H223.099C222.716 31.7859 222.294 31.8708 221.911 31.9981C221.605 32.083 221.298 32.2103 221.03 32.4649C220.991 32.5073 220.915 32.5498 220.877 32.5922L221.221 32.2951C221.375 32.2103 221.49 32.1254 221.605 32.0405L221.988 31.8708C221.72 31.9556 221.49 32.0405 221.221 32.2103C220.838 32.4225 220.455 32.7195 220.148 33.059L219.919 33.2712L219.842 33.3985C219.842 33.4834 219.765 33.5683 219.727 33.6107C219.689 33.6531 219.689 33.6532 219.65 33.6956C219.574 33.6956 219.459 33.738 219.382 33.7805C219.305 33.8229 219.229 33.8653 219.152 33.9502C218.961 34.12 218.807 34.417 218.769 34.6717C218.846 34.4595 218.961 34.2897 219.114 34.1624C219.075 34.3322 219.037 34.4595 218.999 34.6292C218.999 34.6717 218.961 34.7565 218.922 34.799C218.846 34.9687 218.769 35.096 218.731 35.2658C218.807 35.1385 218.884 35.0112 218.922 34.8838C218.922 34.9263 218.922 34.9263 218.922 34.9687C218.884 35.6053 218.807 36.3267 218.807 37.0482Z" fill="#F2FADE"/>
<path d="M239.653 55.8057H232.794C232.717 54.4477 232.679 51.6892 232.641 51.5195C232.679 50.4161 232.219 49.3976 231.453 48.7186C229.92 47.6152 228.196 47.3181 226.586 46.724L224.325 53.4292L223.942 48.9732V48.8459L224.479 48.2093V48.1669C224.479 48.1244 224.479 48.082 224.479 48.0396C224.479 47.6152 224.172 47.2757 223.789 47.2757H222.946C222.754 47.2757 222.524 47.3605 222.409 47.5727C222.256 47.7425 222.218 47.9971 222.256 48.2093V48.2517L222.831 48.9307L222.371 53.4716L220.11 46.6815C218.654 47.2332 217.236 47.7425 215.857 48.3366C214.899 48.761 214.247 49.7371 214.094 50.8404C214.056 51.0526 213.941 54.2355 213.864 55.8905H207.426V28.3484H239.73L239.653 55.8057ZM239.27 26.6934H207.388C206.545 26.6934 205.855 27.4572 205.855 28.3909V55.8481C205.855 56.2725 206.008 56.7393 206.315 57.0364C206.583 57.3334 207.005 57.5456 207.388 57.5456H239.308C239.692 57.5456 240.113 57.3759 240.381 57.0364C240.65 56.7393 240.841 56.2725 240.841 55.8481V28.3484C240.841 27.8816 240.688 27.4572 240.381 27.1602C240.037 26.8631 239.653 26.6934 239.27 26.6934Z" fill="#F2FADE"/>
<path d="M220.877 67.6035C219.957 67.6035 219.229 66.7547 219.229 65.7362V62.3836C219.19 61.8743 219.344 61.3651 219.689 60.9831C219.995 60.6012 220.455 60.389 220.915 60.389C221.375 60.389 221.835 60.6012 222.141 60.9831C222.448 61.3651 222.601 61.8743 222.601 62.3836V65.7362C222.601 66.2454 222.409 66.7123 222.103 67.0518C221.72 67.3913 221.298 67.6035 220.877 67.6035Z" fill="#F2FADE"/>
<path d="M218.118 65.7361V62.3836V62.2138H207.043C206.162 62.2987 205.472 63.105 205.472 64.0386C205.472 64.9723 206.162 65.821 207.043 65.8635H218.118C218.118 65.8635 218.118 65.7786 218.118 65.7361Z" fill="#F2FADE"/>
<path d="M238.58 62.2562H223.444V62.426V65.7786V65.9483H238.58C239.462 65.8634 240.152 65.0571 240.152 64.1235C240.152 63.1899 239.462 62.2987 238.58 62.2562Z" fill="#F2FADE"/>
<path d="M200.912 71.932H245.708V22.3223H200.912V71.932ZM245.708 73.6296H200.912C200.069 73.6296 199.379 72.8657 199.379 71.932V22.3223C199.379 21.3886 200.069 20.6248 200.912 20.6248H245.708C246.091 20.6248 246.513 20.7945 246.781 21.134C247.049 21.4311 247.241 21.8979 247.241 22.3223V71.932C247.241 72.3564 247.087 72.8232 246.781 73.1203C246.513 73.4598 246.091 73.6296 245.708 73.6296Z" fill="#F2FADE"/>
</svg>
