<svg xmlns="http://www.w3.org/2000/svg" width="302" height="205" fill="none" viewBox="0 0 302 205"><path fill="#fff" d="M286.212 187.748H13.872C12.1859 187.748 10.8064 186.449 10.8064 184.861V183.309C10.8064 181.721 12.1859 180.422 13.872 180.422H286.212C287.898 180.422 289.278 181.721 289.278 183.309V184.861C289.316 186.449 287.937 187.748 286.212 187.748Z"/><path fill="#000" d="M285.637 188.217H14.4467C12.1858 188.217 10.3464 186.377 10.3464 184.103C10.3464 181.829 12.1858 179.989 14.4467 179.989H285.637C287.898 179.989 289.738 181.829 289.738 184.103C289.738 186.377 287.898 188.217 285.637 188.217ZM14.4467 180.855C12.684 180.855 11.2661 182.298 11.2661 184.067C11.2661 185.835 12.684 187.279 14.4467 187.279H285.637C287.4 187.279 288.818 185.835 288.818 184.067C288.818 182.298 287.4 180.855 285.637 180.855H14.4467Z"/><path fill="#000" d="M283.415 139.386C283.415 142.634 280.618 145.268 277.207 145.268C273.758 145.268 270.961 142.634 270.961 139.386C270.961 136.137 273.758 133.503 277.207 133.503C280.618 133.503 283.415 136.137 283.415 139.386ZM266.477 118.092L264.102 120.329L262.569 118.886L264.945 116.648L266.477 118.092ZM257.434 121.773L257.472 122.098C257.702 125.346 256.514 128.522 254.253 130.904L236.051 113.797C238.619 111.667 241.953 110.548 245.401 110.765L245.746 110.801L255.326 101.778L267.014 112.786L257.434 121.773ZM248.812 172.121C249.195 169.739 251.341 167.862 253.985 167.862C256.629 167.862 258.813 169.702 259.158 172.121H248.812ZM276.441 173.528V179.592H231.53V173.528H235.055H276.441ZM241.723 172.121H236.55V171.218H241.723V172.121ZM277.169 146.64C281.422 146.64 284.871 143.392 284.871 139.349C284.871 135.343 281.422 132.095 277.169 132.095C276.211 132.095 275.291 132.276 274.448 132.564L266.784 119.788L268.585 118.092L266.018 115.673L269.122 112.75L255.326 99.757L245.172 109.357C241.148 109.213 237.278 110.621 234.442 113.291L233.905 113.797L254.215 132.925L254.752 132.42C257.587 129.749 259.082 126.104 258.928 122.314L261.496 119.896L264.063 122.314L265.634 120.834L273.069 133.214C270.884 134.513 269.428 136.787 269.428 139.386C269.428 142.345 271.306 144.908 274.027 146.026L257.012 167.176C256.093 166.743 255.058 166.49 253.947 166.49C250.498 166.49 247.624 168.981 247.241 172.157H243.179V169.883H235.055V172.157H230.035V181.035H277.897V172.157H260.653C260.461 170.496 259.58 168.981 258.239 167.97L275.521 146.532C276.096 146.604 276.632 146.64 277.169 146.64Z"/><path fill="#fff" d="M218.386 90.3011C218.386 90.3011 214.975 75.2148 214.899 72.0026C214.822 68.7905 214.401 62.294 215.818 62.0053C217.236 61.6805 231.836 62.4023 231.836 62.4023C231.836 62.4023 234.825 63.485 233.484 69.8371C232.143 76.1893 231.76 75.3952 232.258 78.2104C232.756 81.0255 232.986 90.8063 227.429 96.5088L218.961 93.0801L218.386 90.3011Z"/><path fill="#000" d="M227.429 96.9058C227.353 96.9058 227.314 96.9058 227.238 96.8697L218.769 93.441C218.616 93.3688 218.501 93.2606 218.501 93.1162L217.926 90.3732C217.773 89.7236 214.515 75.2148 214.439 72.0026C214.439 71.6056 214.401 71.1725 214.401 70.7394C214.209 64.7482 214.362 61.8609 215.742 61.5722C217.16 61.2474 230.38 61.897 231.874 61.9692C231.913 61.9692 231.989 61.9692 232.028 62.0053C232.181 62.0414 235.362 63.3046 233.982 69.9454C233.522 72.0748 233.216 73.3741 232.947 74.3486C232.488 76.1532 232.411 76.3697 232.717 78.1743C233.254 81.1699 233.484 91.0229 227.774 96.8336C227.698 96.8697 227.544 96.9058 227.429 96.9058ZM219.382 92.6831L227.276 95.8953C232.564 90.1928 232.143 80.5563 231.721 78.2465C231.376 76.2975 231.453 75.9366 231.951 74.0599C232.181 73.1215 232.526 71.8222 232.986 69.6928C234.097 64.3873 232.066 63.0159 231.683 62.7993C225.82 62.5106 216.891 62.1857 215.895 62.4023C215.052 62.7271 215.244 68.5018 215.32 70.6673C215.32 71.1365 215.359 71.5695 215.359 71.9666C215.435 75.1065 218.807 90.0123 218.846 90.1567L219.382 92.6831Z"/><path fill="#1A52FF" stroke="#000" stroke-miterlimit="10" stroke-width="2.531" d="M217.773 88.6047C217.773 88.6047 218.309 88.6408 218.041 89.6153C217.773 90.5898 222.103 94.5598 228.272 92.8275L230.801 90.8424C230.801 90.8424 223.482 117.442 223.176 118.777C222.908 120.113 221.03 125.599 211.986 127.367C202.943 129.136 180.181 132.781 180.181 132.781L170.026 179.483H106.376C106.376 179.483 95.6468 177.173 103.847 159.561C112.048 141.948 118.869 116.828 133.469 117.189C134.235 118.128 139.906 123.614 149.257 123.433C158.607 123.253 165.159 123.974 164.546 115.024C171.712 113.291 208.767 109.682 208.767 109.682L217.773 88.6047Z"/><path fill="#111" fill-opacity=".85" d="M170.064 179.952H106.376C106.338 179.952 106.3 179.952 106.261 179.952C106.146 179.916 103.119 179.231 101.433 176.055C99.4021 172.229 100.054 166.635 103.387 159.416C104.997 155.988 106.568 152.162 108.101 148.481C114.615 132.745 121.359 116.937 133.469 117.225C133.622 117.225 133.775 117.153 133.89 117.261C135.231 118.886 140.941 123.18 149.256 123C150.061 123 150.828 122.964 151.556 122.964C156.614 122.892 160.638 122.856 162.63 120.798C163.78 119.607 164.47 117.911 164.278 115.24C164.278 115.024 164.546 114.843 164.776 114.807C171.635 113.147 204.667 109.646 208.423 109.285L217.351 88.4604C217.428 88.2799 217.619 88.1716 217.849 88.1716C218.041 88.1716 218.271 88.2799 218.424 88.5325C218.654 88.8213 218.654 89.2544 218.501 89.7958C218.501 89.904 218.807 90.5176 219.842 91.2394C220.685 91.8169 223.712 93.6575 228.042 92.4665L230.495 90.5537C230.648 90.4454 230.878 90.4093 231.07 90.5176C231.261 90.6259 231.338 90.8424 231.261 91.0229C231.185 91.2755 223.942 117.622 223.636 118.958C223.482 119.68 221.873 125.996 212.063 127.908C203.709 129.533 183.4 132.817 180.564 133.25L170.524 179.592C170.486 179.808 170.294 179.952 170.064 179.952Z"/><path fill="#000" d="M36.6723 179.628H22.3789L20.6162 167.176H34.603H38.435L36.6723 179.628ZM21.9574 159.886L24.2566 159.344L26.096 166.274H23.6818L21.9574 159.886ZM28.5485 161.834H30.9243V166.274H28.5485V161.834ZM28.5485 156.493H30.9243V158.731H28.5485V156.493ZM28.0886 159.597H31.3841V160.932H28.0886V159.597ZM35.3311 159.849C35.5227 159.958 35.7526 160.066 35.9825 160.174L34.2581 166.274H33.5301L35.3311 159.849ZM37.4004 160.427C37.477 160.427 37.5153 160.427 37.592 160.427L35.9442 166.274H35.2161L36.9022 160.391C37.0555 160.427 37.2471 160.427 37.4004 160.427ZM37.3237 157.106L37.7069 159.525C37.0172 159.597 36.2891 159.416 35.7143 159.019L37.3237 157.106ZM22.7621 156.493L23.3369 158.658L22.4173 158.875L21.8425 156.709L22.7621 156.493ZM39.3164 166.418C39.2397 166.31 39.0865 166.274 38.9715 166.274H36.9405L38.7416 159.994C38.7416 159.922 38.7799 159.886 38.7416 159.813L38.1285 155.988C38.0901 155.807 37.9752 155.663 37.7836 155.627C37.7836 155.627 37.7836 155.627 37.7453 155.627C37.5537 155.591 37.4004 155.663 37.2854 155.771L34.718 158.803C34.6797 158.839 34.6413 158.911 34.6413 158.947L32.5721 166.274H31.9206V161.834C32.1889 161.834 32.3805 161.618 32.3805 161.401V159.164C32.3805 158.911 32.1505 158.731 31.9206 158.731V156.06C31.9206 155.807 31.6907 155.627 31.4608 155.627H28.1653C27.897 155.627 27.7054 155.843 27.7054 156.06V158.731C27.4372 158.731 27.2456 158.947 27.2456 159.164V161.401C27.2456 161.654 27.4755 161.834 27.7054 161.834V166.274H27.1306L25.138 158.695C25.0613 158.442 24.8314 158.297 24.5632 158.37L24.3333 158.442L23.7585 156.276C23.6435 155.807 23.107 155.518 22.6089 155.627L21.6892 155.843C21.4593 155.915 21.2293 156.06 21.1144 156.24C20.9994 156.457 20.9611 156.673 20.9994 156.926L21.5742 159.092L21.3443 159.128L20.8845 159.236C20.1181 159.416 19.6582 160.138 19.8498 160.86L20.9994 165.191C21.0377 165.408 21.2293 165.516 21.4593 165.516C21.4976 165.516 21.5359 165.516 21.5742 165.516C21.8425 165.444 21.9957 165.227 21.9191 164.974L20.7695 160.643C20.6929 160.391 20.8461 160.174 21.1144 160.102L22.7621 166.274H20.1564C20.0031 166.274 19.8881 166.346 19.8115 166.418C19.7349 166.526 19.6965 166.635 19.6965 166.779L21.5742 180.133C21.6125 180.349 21.8041 180.53 22.0341 180.53H37.1321C37.3621 180.53 37.5537 180.349 37.592 180.133L39.4697 166.779C39.4313 166.635 39.393 166.526 39.3164 166.418Z"/><path fill="#000" d="M88.7493 79.9066C88.7493 81.0616 86.8716 81.0616 86.8716 79.9066C86.8716 78.7156 88.7493 78.7156 88.7493 79.9066Z"/><path fill="#000" d="M91.5466 79.9066C91.5466 81.0616 89.6689 81.0616 89.6689 79.9066C89.6689 78.7156 91.5466 78.7156 91.5466 79.9066Z"/><path fill="#000" d="M94.344 79.9066C94.344 81.0616 92.4663 81.0616 92.4663 79.9066C92.4663 78.7156 94.344 78.7156 94.344 79.9066Z"/><path fill="#000" d="M62.4233 76.8028H80.8169V79.4375H60.3157V78.7879C60.3157 77.7051 61.2354 76.8028 62.4233 76.8028ZM96.6814 78.824V82.9745H81.7749V76.8389H94.5738C95.7234 76.8028 96.6814 77.7051 96.6814 78.824ZM94.5738 105.82H62.4233C61.2737 105.82 60.3157 104.918 60.3157 103.835V83.8768H96.6814V103.835C96.6814 104.918 95.7234 105.82 94.5738 105.82ZM80.8169 82.9745H60.3157V80.3398H80.8169V82.9745ZM62.4233 106.687H94.5738C96.2599 106.687 97.6011 105.387 97.6011 103.835V78.824C97.6011 77.2359 96.2216 75.9727 94.5738 75.9727H62.4233C60.7372 75.9727 59.396 77.272 59.396 78.824V103.835C59.3577 105.387 60.7372 106.687 62.4233 106.687Z"/><path fill="#000" d="M64.4926 73.3019C64.7608 73.3019 64.9524 73.4824 64.9524 73.735C64.9524 73.9876 64.7608 74.1681 64.4926 74.1681C64.2243 74.1681 64.0327 73.9876 64.0327 73.735C64.0327 73.4824 64.2243 73.3019 64.4926 73.3019ZM64.4926 75.0704C65.259 75.0704 65.8721 74.4929 65.8721 73.7711C65.8721 73.0493 65.259 72.4718 64.4926 72.4718C63.7262 72.4718 63.113 73.0493 63.113 73.7711C63.113 74.4568 63.7262 75.0704 64.4926 75.0704Z"/><path fill="#000" d="M94.3439 71.5334C95.1103 71.5334 95.7234 72.1109 95.7234 72.8327C95.7234 73.5546 95.1103 74.132 94.3439 74.132C93.5775 74.132 92.9643 73.5546 92.9643 72.8327C92.926 72.147 93.5775 71.5334 94.3439 71.5334ZM94.3439 75.0704C95.6467 75.0704 96.6814 74.0959 96.6814 72.8688C96.6814 71.6417 95.6467 70.6672 94.3439 70.6672C93.041 70.6672 92.0063 71.6417 92.0063 72.8688C92.0063 74.0598 93.041 75.0704 94.3439 75.0704Z"/><path fill="#000" d="M58.8978 76.1531C58.8978 77.0193 57.48 77.0193 57.48 76.1531C57.5183 75.2869 58.8978 75.2869 58.8978 76.1531Z"/><path fill="#000" d="M71.965 72.6523C71.965 73.5185 70.5471 73.5185 70.5471 72.6523C70.5471 71.75 71.965 71.75 71.965 72.6523Z"/><path fill="#000" d="M81.7367 74.3846C81.7367 75.2508 80.3572 75.2508 80.3572 74.3846C80.3572 73.5184 81.7367 73.5184 81.7367 74.3846Z"/><path fill="#000" d="M90.1288 72.6523C90.1288 73.5185 88.7109 73.5185 88.7109 72.6523C88.7493 71.75 90.1288 71.75 90.1288 72.6523Z"/><path fill="#000" d="M93.4242 86.4753H63.5729C63.3046 86.4753 63.113 86.6558 63.113 86.9084V102.717C63.113 102.969 63.3046 103.15 63.5729 103.15H93.4242C93.6924 103.15 93.884 102.969 93.884 102.717V86.9084C93.884 86.6919 93.6541 86.4753 93.4242 86.4753Z"/><path fill="#000" d="M78.4793 100.804C78.1345 100.804 77.9045 100.551 77.9045 100.262C77.9045 99.9374 78.1728 99.7209 78.4793 99.7209C78.8242 99.7209 79.0541 99.9735 79.0541 100.262C79.0925 100.551 78.8242 100.804 78.4793 100.804ZM78.4793 98.8186C77.6363 98.8186 76.9465 99.4683 76.9465 100.262C76.9465 101.056 77.6363 101.706 78.4793 101.706C79.3224 101.706 80.0122 101.056 80.0122 100.262C80.0122 99.4322 79.3224 98.8186 78.4793 98.8186Z"/><path fill="#000" d="M110.477 164.722C110.285 164.722 110.132 164.614 110.055 164.469C109.94 164.253 110.055 163.964 110.285 163.856C114.002 162.159 121.934 162.484 129.56 162.773C132.511 162.881 135.27 162.989 137.722 162.989C137.99 162.989 138.22 163.206 138.22 163.459C138.22 163.711 137.99 163.928 137.722 163.928C135.27 163.928 132.472 163.82 129.522 163.711C122.318 163.423 114.194 163.098 110.707 164.686C110.592 164.722 110.515 164.722 110.477 164.722Z"/><path fill="#000" d="M121.513 162.989C121.436 162.989 121.398 162.989 121.321 162.953C121.091 162.845 120.938 162.592 121.053 162.376C121.551 161.185 122.164 159.669 122.777 158.117C125.69 150.827 129.675 140.829 133.085 137.942C133.277 137.761 133.584 137.798 133.775 137.978C133.967 138.158 133.929 138.447 133.737 138.628C130.518 141.371 126.418 151.657 123.697 158.478C123.046 160.066 122.471 161.582 121.973 162.773C121.896 162.881 121.704 162.989 121.513 162.989Z"/><path fill="#000" d="M123.544 180.422C123.314 180.422 123.084 180.241 123.046 179.988C123.007 179.736 123.237 179.519 123.467 179.483C130.403 178.906 137.186 175.333 137.224 175.297C137.454 175.188 137.761 175.26 137.876 175.477C137.991 175.694 137.914 175.982 137.684 176.091C137.416 176.235 130.671 179.808 123.506 180.385C123.582 180.422 123.582 180.422 123.544 180.422Z"/><path fill="#fff" d="M107.104 160.607C106.951 160.607 106.836 160.571 106.721 160.535C106.223 160.319 106.031 159.777 106.223 159.308C106.3 159.164 113.427 144.474 118.6 133.25C123.965 121.665 130.326 119.499 130.595 119.427C131.093 119.283 131.668 119.535 131.821 120.004C131.974 120.474 131.706 120.979 131.208 121.159C131.131 121.195 125.306 123.253 120.363 134.008C115.19 145.232 108.062 159.922 107.986 160.102C107.832 160.427 107.488 160.607 107.104 160.607Z"/><path fill="#fff" d="M150.713 168.042C150.713 168.042 158.721 163.639 159.373 162.52C160.024 161.401 165.121 159.597 166.577 159.813C168.033 159.994 165.312 155.663 160.446 157.973C155.579 160.283 147.417 163.495 147.417 163.495L148.337 168.836L150.713 168.042Z"/><path fill="#000" d="M148.337 169.269C148.26 169.269 148.183 169.233 148.107 169.197C147.992 169.125 147.915 169.017 147.877 168.872L146.957 163.531C146.919 163.314 147.034 163.134 147.264 163.026C147.34 162.989 155.464 159.813 160.254 157.504C163.09 156.132 165.427 156.89 166.654 158.045C167.343 158.695 167.612 159.38 167.382 159.813C167.228 160.102 166.922 160.247 166.539 160.174C165.159 159.994 160.331 161.762 159.833 162.665C159.143 163.856 152.36 167.609 151.019 168.367C150.981 168.367 150.981 168.403 150.942 168.403L148.567 169.197C148.413 169.269 148.375 169.269 148.337 169.269ZM147.954 163.783L148.72 168.223L150.521 167.645C153.778 165.841 158.53 163.026 158.951 162.304C159.718 160.968 164.584 159.344 166.385 159.344H166.424C166.309 159.092 165.964 158.695 165.389 158.334C164.623 157.864 163.013 157.287 160.676 158.37C156.384 160.391 149.563 163.134 147.954 163.783Z"/><path fill="#fff" d="M137.531 175.694C137.301 175.694 137.109 175.549 137.071 175.369C136.956 175.044 134.618 167.501 137.147 164.18C137.875 163.206 138.948 162.665 140.328 162.592C140.328 162.592 140.328 162.592 140.366 162.592C140.52 162.592 140.673 162.665 140.749 162.773C140.749 162.773 140.941 163.026 141.286 163.026C141.631 163.026 142.359 162.773 143.355 161.185C143.547 160.896 143.777 160.499 144.045 160.03C146.229 156.349 151.402 147.687 158.53 147.687C160.752 147.687 163.013 148.517 165.198 150.177C165.313 150.285 165.389 150.43 165.389 150.574C165.351 151.079 164.891 152.09 163.435 152.09C162.86 152.09 162.094 151.909 161.212 151.693C160.254 151.476 159.181 151.224 158.415 151.224C157.955 151.224 157.764 151.296 157.649 151.368C157.15 151.729 156.652 152.09 156.307 152.415C157.074 152.559 158.147 152.848 159.258 153.317C161.902 154.436 163.167 156.096 162.937 158.117C162.937 158.153 162.937 158.189 162.898 158.225C162.822 158.478 162.439 158.875 161.749 158.875C161.289 158.875 160.752 158.695 160.139 158.37C158.836 157.684 154.506 156.06 151.939 156.06C151.517 156.06 151.172 156.096 150.904 156.204C150.866 156.385 150.828 156.529 150.828 156.637C150.904 156.637 151.058 156.673 151.211 156.673C153.203 156.89 159.258 157.54 161.787 159.994L161.825 160.03C162.209 160.499 162.094 160.86 161.979 161.041C161.634 161.69 160.561 161.871 160.063 161.871C159.986 161.871 159.948 161.871 159.871 161.871C159.641 161.871 158.99 161.69 157.687 161.365C155.349 160.752 151.441 159.741 149.716 159.741C149.295 159.741 149.18 159.813 149.18 159.813C148.873 160.066 148.873 160.174 148.873 160.174C148.912 160.21 149.142 160.355 149.486 160.391C158.453 161.149 158.683 162.015 158.798 162.34C158.875 162.592 158.836 162.845 158.645 163.062C158.262 163.531 157.38 163.711 155.273 163.711C154.66 163.711 154.008 163.711 153.28 163.675H153.203C152.897 163.675 152.59 163.675 152.284 163.639C151.939 163.639 151.594 163.603 151.287 163.603C150.483 163.603 150.023 163.711 149.793 163.964C149.486 164.289 149.333 164.938 149.371 165.985C149.371 166.346 149.41 166.707 149.448 167.068C149.755 170.244 150.176 174.611 137.454 175.73C137.531 175.694 137.531 175.694 137.531 175.694Z"/><path fill="#000" d="M158.568 148.156C160.561 148.156 162.668 148.842 164.968 150.538C164.968 150.538 164.891 151.621 163.473 151.621C162.4 151.621 159.986 150.754 158.453 150.754C158.032 150.754 157.649 150.827 157.419 150.971C156.269 151.729 155.349 152.667 155.349 152.667C155.349 152.667 162.975 153.606 162.477 158.009C162.477 158.009 162.324 158.37 161.787 158.37C161.481 158.37 161.059 158.261 160.408 157.937C158.99 157.179 154.583 155.555 151.977 155.555C151.402 155.555 150.904 155.627 150.559 155.807C150.559 155.807 150.176 156.89 150.636 156.998C151.057 157.107 158.721 157.504 161.557 160.246C162.132 160.968 160.982 161.365 160.178 161.365C160.139 161.365 160.063 161.365 160.024 161.365C159.335 161.329 152.399 159.236 149.831 159.236C149.448 159.236 149.141 159.272 148.988 159.416C147.877 160.283 148.873 160.752 149.525 160.824C150.214 160.896 158.147 161.582 158.377 162.448C158.568 163.098 157.227 163.242 155.311 163.242C154.66 163.242 153.97 163.242 153.242 163.206C152.514 163.206 151.862 163.134 151.326 163.134C149.678 163.134 148.835 163.495 148.912 165.985C149.027 169.305 151.172 174.033 137.454 175.261C137.454 175.261 133.699 163.386 140.251 163.098C140.251 163.098 140.596 163.531 141.209 163.531C141.822 163.531 142.665 163.098 143.7 161.474C145.463 158.803 150.828 148.156 158.568 148.156ZM158.568 147.254C151.134 147.254 145.884 156.06 143.662 159.849C143.393 160.319 143.164 160.716 142.972 161.004C141.976 162.592 141.363 162.629 141.286 162.629C141.209 162.629 141.133 162.592 141.133 162.556C140.941 162.304 140.711 162.195 140.366 162.195C140.328 162.195 140.328 162.195 140.29 162.195C138.795 162.268 137.569 162.881 136.726 163.964C135.576 165.48 135.231 167.898 135.653 171.182C135.959 173.528 136.573 175.441 136.573 175.513C136.687 175.91 137.071 176.163 137.492 176.163C137.531 176.163 137.569 176.163 137.569 176.163C143.355 175.658 146.881 174.503 148.682 172.554C150.368 170.749 150.138 168.656 149.985 166.996C149.946 166.635 149.908 166.274 149.908 165.913C149.87 164.722 150.061 164.361 150.176 164.217C150.329 164.072 150.674 164 151.326 164C151.632 164 151.939 164 152.284 164.036C152.59 164.036 152.897 164.072 153.203 164.072H153.28C153.97 164.072 154.66 164.108 155.273 164.108C157.304 164.108 158.492 163.964 159.028 163.278C159.296 162.953 159.373 162.556 159.258 162.159C159.565 162.232 159.718 162.268 159.833 162.268C159.909 162.268 159.986 162.268 160.063 162.268C160.714 162.268 161.979 162.051 162.439 161.185C162.707 160.716 162.63 160.138 162.209 159.669C162.17 159.633 162.17 159.597 162.132 159.597C162.017 159.489 161.902 159.38 161.749 159.272C162.553 159.236 163.09 158.803 163.282 158.334C163.32 158.261 163.32 158.189 163.32 158.117C163.741 154.4 159.718 152.812 157.227 152.162C157.419 152.018 157.61 151.873 157.802 151.729C157.802 151.729 157.917 151.657 158.262 151.657C158.99 151.657 160.024 151.909 160.944 152.126C161.864 152.342 162.668 152.523 163.282 152.523C164.968 152.523 165.657 151.368 165.734 150.61C165.772 150.321 165.619 150.033 165.351 149.816C163.243 148.12 160.906 147.254 158.568 147.254Z"/><path fill="#fff" d="M133.43 117.189C133.43 117.189 142.819 118.633 144.888 116.901C146.957 115.168 149.218 108.455 148.03 106.723C146.842 104.99 136.343 102.428 136.343 102.428L135.538 87.4138L153.663 79.2571L160.791 81.603C160.791 81.603 167.765 90.662 168.417 95.4983C169.068 100.335 166.807 107.192 159.526 107.12C159.526 107.12 157.38 116.107 157.84 116.107C158.338 116.107 164.546 115.06 164.546 115.06C164.546 115.06 165.926 121.629 160.944 122.459C155.963 123.253 139.906 125.887 133.43 117.189Z"/><path fill="#000" d="M150.138 123.866C141.937 123.866 136.189 121.737 133.009 117.478C132.894 117.334 132.894 117.117 133.009 116.973C133.124 116.828 133.315 116.72 133.507 116.756C136.036 117.153 143.01 117.875 144.581 116.576C146.574 114.916 148.643 108.455 147.609 106.975C146.804 105.82 140.175 103.835 136.189 102.861C135.998 102.825 135.845 102.644 135.845 102.428L135.04 87.4138C135.04 87.2333 135.155 87.0529 135.308 86.9807L153.433 78.824C153.548 78.7879 153.663 78.7518 153.817 78.7879L160.944 81.1339C161.021 81.1699 161.136 81.206 161.174 81.3143C161.481 81.6752 168.225 90.5177 168.876 95.4261C169.221 98.0969 168.723 102.211 166.156 104.918C164.546 106.614 162.439 107.481 159.871 107.553C159.066 110.873 158.338 114.41 158.223 115.565C159.373 115.421 162.439 114.916 164.431 114.555C164.699 114.519 164.929 114.663 165.006 114.916C165.044 115.06 165.772 118.705 164.086 121.051C163.358 122.026 162.362 122.639 161.021 122.856C156.997 123.541 153.395 123.866 150.138 123.866ZM134.542 117.839C139.025 122.747 147.839 124.155 160.829 121.989C161.864 121.809 162.707 121.34 163.243 120.582C164.393 118.994 164.24 116.576 164.086 115.601C162.439 115.89 158.223 116.576 157.764 116.576C157.61 116.576 157.457 116.504 157.342 116.395C157.15 116.179 156.844 115.818 158.951 107.048C158.99 106.831 159.181 106.687 159.411 106.687C161.864 106.723 163.856 105.929 165.351 104.341C167.727 101.85 168.148 98.0608 167.842 95.5705C167.267 91.2034 161.212 83.0828 160.408 82L153.625 79.7624L135.998 87.7025L136.764 102.067C138.795 102.572 147.226 104.774 148.413 106.47C149.793 108.419 147.417 115.421 145.195 117.262C143.432 118.741 137.262 118.164 134.542 117.839Z"/><path fill="#000" d="M148.184 109.899C148.184 109.899 144.888 106.001 140.136 106.109C135.385 106.254 128.909 93.9825 132.817 84.1656C136.381 75.2509 144.582 73.9517 150.674 73.5907C156.767 73.1937 161.519 73.4464 162.439 72.1832C163.397 70.92 166.501 79.8346 162.439 81.8918C158.377 83.949 144.696 87.1251 142.819 86.6198C140.941 86.1145 143.777 90.1207 143.585 90.9869C143.164 92.9719 147.456 100.371 147.456 100.371C147.456 100.371 141.861 94.7765 140.366 96.4006C138.872 98.0608 138.067 101.85 141.324 102.753C144.582 103.655 145.846 102.32 145.846 102.32L149.333 105.604L148.184 109.899Z"/><path fill="#000" d="M164.891 76.1532C164.738 74.8539 164.24 73.1576 163.588 72.2193C163.358 71.8944 163.128 71.6779 162.86 71.6057C162.554 71.5335 162.247 71.6418 162.055 71.8944C161.481 72.6523 158.53 72.7606 155.081 72.905C153.74 72.9411 152.246 73.0133 150.636 73.1215C143.968 73.5546 135.883 75.1427 132.357 83.9851C131.974 84.9596 131.668 85.934 131.476 86.9446C130.288 92.9719 132.242 99.4323 135.155 103.294C136.764 105.423 138.527 106.542 140.136 106.506C144.582 106.362 147.762 110.079 147.8 110.115C147.877 110.224 148.03 110.296 148.184 110.296C148.222 110.296 148.26 110.296 148.299 110.296C148.49 110.26 148.605 110.115 148.682 109.971L149.831 105.748C149.87 105.604 149.831 105.423 149.716 105.315L146.229 102.031C146.153 101.959 145.999 101.887 145.884 101.887C145.769 101.887 145.616 101.959 145.539 102.031C145.501 102.067 144.39 103.15 141.516 102.32C140.596 102.067 139.983 101.526 139.753 100.732C139.332 99.3962 139.945 97.6638 140.826 96.7254C140.903 96.6532 140.979 96.581 141.171 96.581C142.512 96.545 145.578 99.0714 147.187 100.695C147.341 100.876 147.647 100.876 147.839 100.768C148.03 100.623 148.107 100.371 147.992 100.19C146.344 97.3751 143.892 92.4305 144.16 91.0951C144.237 90.662 143.968 90.0124 143.47 88.9296C143.24 88.3883 142.78 87.4499 142.742 87.0529H142.78C144.888 87.6303 158.722 84.346 162.784 82.2888C164.508 81.3865 165.313 79.1488 164.891 76.1532ZM142.972 86.1506C142.397 86.0062 142.052 86.1867 141.899 86.331C141.401 86.8363 141.822 87.7747 142.512 89.2545C142.78 89.7958 143.164 90.662 143.125 90.8786C142.819 92.2501 144.428 95.7148 145.693 98.133C144.237 96.942 142.359 95.6427 141.094 95.6427C140.635 95.6427 140.29 95.8231 140.021 96.1119C139.025 97.2307 138.259 99.324 138.795 100.984C139.14 102.067 139.983 102.861 141.209 103.186C143.738 103.908 145.195 103.33 145.846 102.933L148.835 105.748L147.915 108.924C146.727 107.806 143.968 105.604 140.328 105.604H140.021C138.795 105.604 137.301 104.593 135.921 102.789C132.932 98.8187 131.016 91.9974 132.702 85.934C132.856 85.3927 133.047 84.8513 133.239 84.3099C136.534 76.0089 143.93 74.4569 150.674 74.0238C152.246 73.9156 153.74 73.8795 155.081 73.8073C159.028 73.6629 161.672 73.5546 162.669 72.5802C162.745 72.6524 162.822 72.7967 162.898 72.9411C163.397 73.8434 164.01 75.7923 163.971 77.7413C163.933 79.0406 163.627 80.7369 162.209 81.4587C158.223 83.4798 144.696 86.6198 142.972 86.1506Z"/><path fill="#fff" d="M163.128 73.1576C163.052 73.3019 163.435 73.5907 163.32 73.735C163.205 73.8433 163.167 74.096 163.052 74.2403C162.592 74.7456 161.596 75.4313 160.446 75.6118C156.844 76.2614 154.123 75.5757 149.716 76.2975C145.195 77.0555 139.255 79.1849 135.921 83.2271C134.35 85.14 133.737 86.4753 133.315 87.4859C133.162 87.8829 132.817 88.3882 132.626 88.5687C132.434 88.7491 132.434 88.6769 132.242 88.8213C132.434 87.7746 132.626 86.4753 133.009 85.4648C136.419 76.1893 144.237 74.5291 150.674 74.096C152.207 73.9877 153.663 73.9155 154.966 73.8794C158.3 73.735 161.174 73.6268 161.711 72.8327C161.902 72.544 162.17 72.4357 162.477 72.5079C162.669 72.5801 162.898 72.8327 163.128 73.1576Z"/><path fill="#fff" d="M49.6626 145.449C52.4216 146.929 54.376 156.385 49.6626 159.308H90.5117V145.449H49.6626Z"/><path fill="#000" d="M90.5118 159.849H49.6626C49.3944 159.849 49.1645 159.705 49.0878 159.452C49.0112 159.236 49.1262 158.983 49.3178 158.839C51.0422 157.756 52.0002 155.482 51.8852 152.559C51.7702 149.347 50.4674 146.532 49.3178 145.918C49.0878 145.81 48.9729 145.557 49.0495 145.305C49.1262 145.052 49.3561 144.908 49.6243 144.908H90.4735C90.78 144.908 91.0483 145.16 91.0483 145.449V159.308C91.0866 159.633 90.8567 159.849 90.5118 159.849ZM51.1954 158.767H89.937V146.026H51.0805C52.1918 147.47 52.9965 149.96 53.0731 152.559C53.1498 154.147 52.9198 156.89 51.1954 158.767Z"/><path fill="#fff" d="M87.9826 142.814H48.9728C47.1717 142.814 45.7156 144.186 45.7156 145.882V146.46H78.8624C83.2309 146.46 86.7563 149.166 86.7563 152.451C86.7563 154.111 85.8749 155.627 84.4571 156.71C83.0393 157.792 81.0466 158.478 78.8624 158.478H45.7539C45.9455 160.138 47.4017 161.438 49.2027 161.438H88.0209C93.2324 161.438 97.4476 157.467 97.4476 152.559V151.657C97.4093 146.784 93.1941 142.814 87.9826 142.814Z"/><path fill="#000" d="M87.9826 161.943H49.1645C47.0952 161.943 45.3708 160.499 45.1792 158.55C45.1792 158.406 45.2175 158.261 45.2941 158.153C45.4091 158.045 45.5241 157.973 45.6773 157.973H78.7858C80.7785 157.973 82.6562 157.395 84.0357 156.313C85.4152 155.266 86.1433 153.894 86.1433 152.451C86.1433 149.419 82.8478 146.929 78.7858 146.929H45.639C45.3325 146.929 45.1025 146.712 45.1025 146.423V145.846C45.1025 143.861 46.7886 142.273 48.8962 142.273H87.906C93.3857 142.273 97.8309 146.46 97.8309 151.621V152.523C97.9075 157.756 93.4624 161.943 87.9826 161.943ZM46.3671 159.019C46.7503 160.174 47.8616 160.968 49.2028 160.968H88.0209C92.9259 160.968 96.9112 157.215 96.9112 152.595V151.693C96.9112 147.073 92.9259 143.32 88.0209 143.32H48.9729C47.4784 143.32 46.2521 144.475 46.2521 145.882V145.99H78.8625C83.4992 145.99 87.2929 148.914 87.2929 152.487C87.2929 154.255 86.4115 155.879 84.8021 157.143C83.2309 158.334 81.1233 159.019 78.9008 159.019H46.3671Z"/><path fill="#fff" d="M93.4241 164.18C90.665 165.66 88.7107 175.116 93.4241 178.04H52.575V164.18H93.4241Z"/><path fill="#000" d="M93.4242 178.581H52.575C52.2685 178.581 52.0002 178.328 52.0002 178.04V164.18C52.0002 163.892 52.2685 163.639 52.575 163.639H93.4242C93.6924 163.639 93.9223 163.819 93.999 164.036C94.0756 164.289 93.9607 164.541 93.7307 164.65C92.5811 165.263 91.2782 168.078 91.1633 171.29C91.0866 174.214 92.0063 176.488 93.7307 177.57C93.9607 177.715 94.0373 177.967 93.9606 178.184C93.9223 178.437 93.6924 178.581 93.4242 178.581ZM53.1498 177.498H91.8914C90.167 175.621 89.9754 172.915 90.0137 171.29C90.0903 168.692 90.8951 166.202 92.0063 164.758H53.1498V177.498Z"/><path fill="#fff" d="M55.1042 161.546H94.114C95.915 161.546 97.3712 162.917 97.3712 164.613V165.191H64.2244C59.8559 165.191 56.3305 167.898 56.3305 171.182C56.3305 172.842 57.2118 174.358 58.6297 175.441C60.0475 176.524 62.0401 177.209 64.2244 177.209H97.3329C97.1413 178.87 95.6851 180.169 93.8841 180.169H55.1042C49.8927 180.169 45.6775 176.199 45.6775 171.29V170.388C45.6775 165.516 49.8927 161.546 55.1042 161.546Z"/><path fill="#000" d="M93.9223 180.674H55.1041C49.6243 180.674 45.1792 176.488 45.1792 171.327V170.424C45.1792 165.263 49.6243 161.077 55.1041 161.077H94.1139C96.2215 161.077 97.9075 162.665 97.9075 164.65V165.227C97.9075 165.516 97.6776 165.732 97.3711 165.732H64.2242C60.1623 165.732 56.8668 168.187 56.8668 171.254C56.8668 172.698 57.6332 174.07 58.9744 175.116C60.3539 176.163 62.2316 176.776 64.2242 176.776H97.3327C97.486 176.776 97.6393 176.849 97.7159 176.957C97.8309 177.065 97.8692 177.209 97.8309 177.354C97.6776 179.231 95.9915 180.674 93.9223 180.674ZM55.1041 162.051C50.1991 162.051 46.2138 165.805 46.2138 170.424V171.327C46.2138 175.946 50.1991 179.7 55.1041 179.7H93.9223C95.2251 179.7 96.3747 178.906 96.7579 177.751H64.3009C62.0783 177.751 59.9707 177.101 58.3996 175.874C56.7902 174.647 55.9088 172.987 55.9088 171.218C55.9088 167.645 59.7025 164.722 64.3392 164.722H96.9495V164.614C96.9495 163.206 95.7233 162.051 94.2288 162.051H55.1041Z"/><path fill="#fff" d="M227.391 180.133H151.939V175.044C151.939 173.492 153.28 172.229 154.928 172.229H227.391V180.133Z"/><path fill="#000" d="M227.391 180.602H151.939C151.671 180.602 151.441 180.386 151.441 180.133V175.802C151.441 173.6 153.357 171.796 155.694 171.796H227.391C227.659 171.796 227.889 172.012 227.889 172.265V180.169C227.889 180.386 227.659 180.602 227.391 180.602ZM152.437 179.664H226.931V172.698H155.694C153.893 172.698 152.399 174.07 152.399 175.802V179.664H152.437Z"/><path fill="#fff" d="M188.036 138.483C188.036 138.483 181.867 138.267 179.797 144.15C177.115 151.837 168.455 171.146 168.455 171.146C168.455 171.146 166.232 175.658 175.812 175.549C185.392 175.405 226.241 175.549 226.241 175.549C226.241 175.549 231.185 176.596 233.79 170.244C236.396 163.928 244.597 144.944 244.597 144.944C244.597 144.944 246.513 138.303 240.228 138.267C233.944 138.231 188.036 138.483 188.036 138.483Z"/><path fill="#000" d="M227.008 176.055C226.625 176.055 226.356 176.018 226.241 176.018C224.747 176.018 185.201 175.874 175.851 176.018C171.827 176.091 169.298 175.333 168.263 173.817C167.343 172.445 168.033 171.038 168.033 170.966C168.11 170.785 176.694 151.621 179.338 144.041C181.445 138.014 187.653 138.05 188.036 138.05C188.764 138.05 234.02 137.798 240.266 137.834C242.144 137.834 243.524 138.411 244.405 139.494C246.129 141.623 245.171 144.944 245.133 145.088V145.124C245.057 145.305 236.894 164.18 234.327 170.424C232.219 175.441 228.617 176.055 227.008 176.055ZM192.788 175.008C207.694 175.008 226.011 175.08 226.28 175.08C226.318 175.08 226.356 175.08 226.395 175.08C226.586 175.116 230.993 175.91 233.369 170.063C235.898 163.928 243.83 145.629 244.175 144.799C244.252 144.511 244.942 141.695 243.6 139.999C242.911 139.169 241.799 138.736 240.228 138.7C234.02 138.664 188.458 138.916 187.998 138.916C187.998 138.916 187.998 138.916 187.96 138.916C187.73 138.916 182.135 138.772 180.219 144.294C177.575 151.909 168.953 171.11 168.876 171.327C168.838 171.399 168.378 172.373 169.03 173.312C169.604 174.142 171.252 175.152 175.774 175.08C178.954 175.044 185.469 175.008 192.788 175.008Z"/><path fill="#fff" d="M147.494 92.1417C147.494 92.1417 147.877 87.4498 154.851 87.6663L147.494 92.1417Z"/><path fill="#000" d="M147.494 92.6109H147.455C147.187 92.5748 146.996 92.3582 146.996 92.1056C146.996 92.0695 147.494 86.9806 154.851 87.2332C155.119 87.2332 155.311 87.4498 155.311 87.7024C155.311 87.9551 155.081 88.1716 154.813 88.1355C148.413 87.919 147.954 91.9973 147.954 92.1778C147.954 92.4304 147.762 92.6109 147.494 92.6109Z"/><path fill="#fff" d="M163.818 85.9339C163.818 85.9339 157.687 86.8723 157.84 89.904C157.994 92.9357 158.415 95.4621 160.829 95.7147C163.167 95.9674 163.512 97.4832 163.052 98.4938"/><path fill="#000" d="M163.052 98.963C162.975 98.963 162.937 98.963 162.86 98.9269C162.63 98.8186 162.515 98.566 162.592 98.3134C162.783 97.8803 162.783 97.375 162.553 97.0141C162.247 96.5449 161.634 96.2561 160.791 96.1479C157.917 95.8591 157.495 92.7553 157.38 89.904C157.189 86.5114 163.511 85.5009 163.78 85.4648C164.048 85.4287 164.278 85.6091 164.355 85.8257C164.393 86.0783 164.201 86.2949 163.971 86.3671C162.4 86.6197 158.262 87.7024 158.377 89.8679C158.53 93.044 159.028 95.0651 160.944 95.2456C162.439 95.3899 163.128 96.0396 163.435 96.5449C163.818 97.1584 163.856 97.9524 163.55 98.6743C163.397 98.8908 163.243 98.963 163.052 98.963Z"/><path fill="#fff" d="M154.889 99.8292C154.889 99.8292 156.92 103.655 161.94 101.345L154.889 99.8292Z"/><path fill="#000" d="M158.913 102.536C155.809 102.536 154.468 100.046 154.43 100.046C154.315 99.8292 154.391 99.5405 154.66 99.4322C154.89 99.3239 155.196 99.3961 155.311 99.6488C155.388 99.7931 157.189 103.041 161.749 100.948C161.979 100.84 162.285 100.948 162.4 101.165C162.515 101.381 162.4 101.67 162.17 101.778C160.906 102.32 159.833 102.536 158.913 102.536Z"/><path fill="#fff" d="M219.689 62.7632C218.961 66.3002 218.079 68.574 218.961 69.765C219.842 70.956 221.336 74.5652 221.336 74.5652C221.336 74.5652 220.034 64.5317 223.367 62.7632"/><path fill="#000" d="M221.336 74.9983C221.145 74.9983 220.953 74.89 220.877 74.7096C220.877 74.6735 219.42 71.1365 218.577 70.0177C217.773 68.9349 218.156 67.3108 218.731 64.8927C218.884 64.243 219.075 63.4851 219.229 62.655C219.267 62.4023 219.535 62.258 219.804 62.2941C220.072 62.3302 220.225 62.5828 220.187 62.8354C220.033 63.6655 219.842 64.4235 219.689 65.0731C219.19 67.2025 218.807 68.7184 219.382 69.4763C219.765 69.9816 220.225 70.8478 220.647 71.75C220.608 70.9921 220.608 70.162 220.647 69.2958C220.762 65.5062 221.605 63.1603 223.176 62.3662C223.406 62.258 223.712 62.3302 223.827 62.5467C223.942 62.7633 223.865 63.052 223.636 63.1603C221.145 64.4956 221.49 71.7861 221.835 74.493C221.873 74.7095 221.72 74.9261 221.451 74.9983C221.413 74.9983 221.375 74.9983 221.336 74.9983Z"/><path fill="#fff" d="M227.199 62.7632C227.199 62.7632 224.019 68.1409 224.938 72.8689L227.199 62.7632Z"/><path fill="#000" d="M224.9 73.338C224.67 73.338 224.479 73.1937 224.44 72.9771C223.521 68.1409 226.624 62.7993 226.778 62.5467C226.893 62.3301 227.199 62.2579 227.429 62.3662C227.659 62.4745 227.736 62.7632 227.621 62.9798C227.582 63.0159 224.555 68.2491 225.398 72.7967C225.437 73.0493 225.283 73.2658 225.015 73.338C224.977 73.338 224.938 73.338 224.9 73.338Z"/><path fill="#fff" d="M231.798 62.4023C231.798 62.4023 228.081 68.6101 228.311 71.353C228.54 74.096 228.311 74.5652 228.311 74.5652"/><path fill="#000" d="M228.311 74.9983C228.234 74.9983 228.157 74.9983 228.081 74.9622C227.851 74.8539 227.736 74.5652 227.889 74.3486C227.889 74.3486 228.042 73.7711 227.851 71.3891C227.583 68.5379 231.261 62.4384 231.415 62.1858C231.53 61.9692 231.836 61.897 232.066 62.0053C232.296 62.1136 232.373 62.4023 232.258 62.6189C232.219 62.691 228.617 68.7183 228.847 71.3169C229.077 73.9155 228.885 74.6012 228.77 74.7817C228.656 74.9261 228.502 74.9983 228.311 74.9983Z"/><path fill="#fff" d="M216.163 79.9428C216.163 79.9428 220.57 71.2447 223.367 70.0176C226.126 68.7905 226.203 71.9304 224.9 74.2403C223.597 76.5501 222.601 76.7667 224.287 78.2825C225.973 79.7984 228.617 82.6135 226.931 89.0739"/><path fill="#000" d="M226.931 89.5792C226.893 89.5792 226.854 89.5792 226.816 89.5792C226.548 89.507 226.395 89.2544 226.471 89.0378C228.157 82.5053 225.322 79.9067 223.942 78.6796C222.448 77.3081 222.793 76.6223 223.636 75.3591C223.865 74.9982 224.172 74.6012 224.44 74.0598C225.322 72.5079 225.398 70.8838 224.9 70.4146C224.594 70.0898 223.98 70.2702 223.521 70.4868C221.375 71.4252 217.773 77.8134 216.546 80.1954C216.431 80.4119 216.125 80.5202 215.895 80.4119C215.665 80.3037 215.55 80.0149 215.665 79.7984C215.857 79.4375 220.187 70.956 223.099 69.6567C224.44 69.0792 225.168 69.404 225.59 69.801C226.586 70.7755 226.165 72.941 225.283 74.4929C224.977 75.0343 224.67 75.5035 224.44 75.8644C223.674 76.9832 223.597 77.1276 224.594 78.0299C225.973 79.2931 229.192 82.2526 227.391 89.2544C227.353 89.4348 227.161 89.5792 226.931 89.5792Z"/><path fill="#000" d="M154.091 94.02C154.846 93.7584 155.144 92.7427 154.757 91.7512C154.369 90.7597 153.444 90.168 152.689 90.4296C151.934 90.6911 151.636 91.7069 152.024 92.6983C152.411 93.6898 153.337 94.2815 154.091 94.02Z"/><path fill="#000" d="M162.646 92.1768C163.4 91.9152 163.698 90.8995 163.311 89.908C162.924 88.9165 161.998 88.3248 161.243 88.5864C160.488 88.8479 160.19 89.8637 160.578 90.8551C160.965 91.8466 161.891 92.4383 162.646 92.1768Z"/><path fill="#000" d="M219.842 33.7817H220.417C220.455 34.4314 221.068 34.9366 221.758 34.9366C222.448 34.9366 223.023 34.4314 223.099 33.7817C223.099 33.6373 223.214 33.5291 223.367 33.5291C223.521 33.5291 223.636 33.6373 223.636 33.7817C223.674 34.4314 224.287 34.9366 224.977 34.9366C225.667 34.9366 226.241 34.4314 226.318 33.7817H226.855V34.3953C226.855 34.9006 226.663 35.3697 226.318 35.7667C226.165 35.9472 226.011 36.1277 225.897 36.3442L225.552 36.9939C225.13 37.7518 224.287 38.2571 223.367 38.2571C222.448 38.2571 221.605 37.7879 221.183 36.9939L220.838 36.3442C220.723 36.1277 220.57 35.9472 220.417 35.7667C220.072 35.3697 219.88 34.9006 219.88 34.3953V33.7817H219.842ZM221.72 33.9261C221.95 33.9261 222.141 33.7456 222.141 33.5291C222.141 33.4569 222.141 33.4208 222.103 33.3486C222.179 33.3486 222.256 33.2764 222.294 33.2042C222.448 33.3486 222.563 33.5291 222.563 33.7456C222.563 34.1426 222.218 34.5035 221.758 34.5035C221.336 34.5035 220.953 34.1787 220.953 33.7456C220.953 33.5652 221.03 33.3847 221.183 33.2403C221.222 33.3125 221.298 33.3125 221.375 33.3486C221.336 33.3847 221.336 33.4569 221.336 33.5291C221.336 33.6373 221.375 33.7456 221.451 33.8178C221.451 33.9261 221.566 33.9622 221.72 33.9261ZM224.9 33.9261C225.13 33.9261 225.322 33.7456 225.322 33.5291C225.322 33.4569 225.283 33.4208 225.245 33.3486C225.322 33.3486 225.398 33.3125 225.437 33.2403C225.59 33.3847 225.667 33.5652 225.667 33.7817C225.667 34.1787 225.322 34.5396 224.862 34.5396C224.44 34.5396 224.057 34.2148 224.057 33.7817C224.057 33.5652 224.134 33.3847 224.287 33.2403C224.325 33.3125 224.402 33.3486 224.479 33.3486C224.44 33.3847 224.44 33.4569 224.44 33.5291C224.44 33.6373 224.479 33.7456 224.555 33.8178C224.67 33.9261 224.785 33.9622 224.9 33.9261ZM219.842 33.096V32.9516C219.842 32.9155 219.842 32.8794 219.842 32.8433V31.9771C219.842 31.9771 219.919 30.8944 220.877 30.8944C221.681 31.2192 222.524 31.4358 223.367 31.544C224.134 31.544 224.9 31.3275 225.552 30.8944C225.897 30.8944 226.203 31.0027 226.433 31.2553C226.663 31.4719 226.778 31.7967 226.74 32.1215V33.2764H226.088C225.897 32.8433 225.437 32.5546 224.939 32.5185C224.44 32.4824 223.981 32.7351 223.712 33.1682C223.444 32.9877 223.099 32.9877 222.831 33.1682C222.601 32.7711 222.103 32.5185 221.605 32.5185C221.107 32.5546 220.647 32.8433 220.455 33.2764H219.765L219.842 33.096ZM218.807 31.5079C218.807 31.7967 218.884 32.0854 218.961 32.3741V34.3592C218.961 35.0449 219.229 35.7307 219.727 36.272C219.842 36.4164 219.957 36.5247 220.034 36.7051L220.378 37.3548C220.953 38.4014 222.065 39.0511 223.329 39.0511C224.594 39.0511 225.705 38.4014 226.28 37.3548L226.625 36.7051C226.701 36.5608 226.816 36.4164 226.931 36.272C227.429 35.7307 227.698 35.081 227.698 34.3592V32.5907C227.698 32.5546 227.698 32.5185 227.698 32.4824C227.774 32.0493 227.774 31.6162 227.698 31.1831C227.698 31.0388 227.659 30.8583 227.621 30.7139V30.4974C227.621 30.5696 227.659 30.6417 227.698 30.6778C227.698 30.75 227.774 30.8583 227.813 30.9666C227.851 31.0748 227.813 30.9666 227.813 30.9305C227.774 30.7139 227.698 30.4974 227.621 30.3169C227.621 30.1004 227.583 29.8838 227.544 29.7034C227.544 29.7034 227.544 29.6312 227.506 29.5951C227.506 29.559 227.506 29.559 227.506 29.5229C227.468 29.3785 227.391 29.2703 227.314 29.162C227.238 29.0537 227.161 28.9815 227.046 28.8733C227.008 28.8372 226.969 28.8011 226.931 28.765C226.816 28.5845 226.663 28.4041 226.471 28.2597C226.356 28.1875 226.241 28.1153 226.088 28.0432L225.628 27.8627L225.513 27.8266C225.973 27.8627 226.395 27.971 226.778 28.1514L227.008 28.2597L226.931 28.2236C226.855 28.1875 226.778 28.1153 226.663 28.0792C226.241 27.8627 225.782 27.7183 225.283 27.6822C225.053 27.6822 224.824 27.6461 224.632 27.574C224.555 27.5379 224.479 27.5379 224.402 27.5018H224.325L224.057 27.4296H225.053C224.632 27.3574 224.172 27.3213 223.751 27.3574C223.597 27.3574 223.444 27.3574 223.291 27.3574H223.099L224.095 27.177C223.751 27.177 223.406 27.213 223.099 27.2491C222.908 27.2491 222.754 27.3213 222.563 27.3574C222.371 27.3935 222.026 27.3935 221.796 27.4296C222.333 27.213 222.869 27.0687 223.444 27.0326H223.099C222.716 27.0326 222.294 27.1048 221.911 27.2131C221.605 27.2852 221.298 27.3935 221.03 27.6101C220.992 27.6461 220.915 27.6822 220.877 27.7183L221.222 27.4657C221.375 27.3935 221.49 27.3213 221.605 27.2491L221.988 27.1048C221.72 27.177 221.49 27.2491 221.222 27.3935C220.838 27.574 220.455 27.8266 220.149 28.1153L219.919 28.2958L219.842 28.4041C219.842 28.4763 219.765 28.5484 219.727 28.5845C219.689 28.6206 219.689 28.6206 219.65 28.6567C219.574 28.6567 219.459 28.6928 219.382 28.7289C219.306 28.765 219.229 28.8011 219.152 28.8733C218.961 29.0176 218.807 29.2703 218.769 29.4868C218.846 29.3064 218.961 29.162 219.114 29.0537C219.076 29.1981 219.037 29.3064 218.999 29.4507C218.999 29.4868 218.961 29.559 218.922 29.5951C218.846 29.7395 218.769 29.8477 218.731 29.9921C218.807 29.8838 218.884 29.7755 218.922 29.6673C218.922 29.7034 218.922 29.7034 218.922 29.7395C218.884 30.2808 218.807 30.8944 218.807 31.5079Z"/><path fill="#000" d="M239.653 47.4605H232.794C232.717 46.3055 232.679 43.9596 232.641 43.8152C232.679 42.8768 232.219 42.0106 231.453 41.4332C229.92 40.4948 228.196 40.2421 226.586 39.7369L224.325 45.4393L223.942 41.6497V41.5414L224.479 41.0001V40.964C224.479 40.9279 224.479 40.8918 224.479 40.8557C224.479 40.4948 224.172 40.2061 223.789 40.2061H222.946C222.754 40.2061 222.524 40.2782 222.409 40.4587C222.256 40.6031 222.218 40.8196 222.256 41.0001V41.0362L222.831 41.6136L222.371 45.4754L220.11 39.7008C218.654 40.17 217.236 40.6031 215.856 41.1083C214.898 41.4693 214.247 42.2994 214.094 43.2377C214.055 43.4182 213.94 46.1251 213.864 47.5326H207.426V24.1092H239.73L239.653 47.4605ZM239.27 22.7017H207.388C206.545 22.7017 205.855 23.3513 205.855 24.1453V47.4965C205.855 47.8575 206.008 48.2545 206.315 48.5071C206.583 48.7597 207.005 48.9402 207.388 48.9402H239.308C239.692 48.9402 240.113 48.7958 240.381 48.5071C240.65 48.2545 240.841 47.8575 240.841 47.4965V24.1092C240.841 23.7122 240.688 23.3513 240.381 23.0987C240.036 22.846 239.653 22.7017 239.27 22.7017Z"/><path fill="#000" d="M220.876 57.4939C219.957 57.4939 219.229 56.7721 219.229 55.9059V53.0546C219.19 52.6215 219.344 52.1884 219.688 51.8636C219.995 51.5388 220.455 51.3583 220.915 51.3583C221.375 51.3583 221.834 51.5388 222.141 51.8636C222.448 52.1884 222.601 52.6215 222.601 53.0546V55.9059C222.601 56.339 222.409 56.736 222.103 57.0247C221.719 57.3134 221.298 57.4939 220.876 57.4939Z"/><path fill="#000" d="M218.118 55.9059V53.0546V52.9103H207.043C206.162 52.9825 205.472 53.6682 205.472 54.4622C205.472 55.2562 206.162 55.9781 207.043 56.0141H218.118C218.118 56.0141 218.118 55.942 218.118 55.9059Z"/><path fill="#000" d="M238.58 52.9464H223.444V53.0907V55.942V56.0863H238.58C239.462 56.0141 240.151 55.3284 240.151 54.5344C240.151 53.7404 239.462 52.9824 238.58 52.9464Z"/><path fill="#000" d="M200.912 61.1752H245.708V18.9842H200.912V61.1752ZM245.708 62.6189H200.912C200.069 62.6189 199.379 61.9692 199.379 61.1752V18.9842C199.379 18.1902 200.069 17.5405 200.912 17.5405H245.708C246.091 17.5405 246.513 17.6849 246.781 17.9736C247.049 18.2263 247.241 18.6233 247.241 18.9842V61.1752C247.241 61.5361 247.087 61.9331 246.781 62.1858C246.513 62.4745 246.091 62.6189 245.708 62.6189Z"/></svg>