<svg width="287" height="200" viewBox="0 0 287 200" fill="none" xmlns="http://www.w3.org/2000/svg">
<g clip-path="url(#clip0)">
<path d="M273.166 148.122C266.027 153.221 259.477 158.925 253.612 165.15C244.433 174.86 237.005 185.745 231.588 197.428C231.191 198.281 232.769 198.652 233.161 197.809C242.026 178.821 256.177 162.086 274.32 149.134C275.135 148.552 273.974 147.545 273.166 148.122Z" fill="#161D20"/>
<path d="M70.168 199.613H47.6383C46.877 199.612 46.1471 199.346 45.6088 198.874C45.0705 198.402 44.7677 197.762 44.7668 197.094V156.028C44.7677 155.36 45.0705 154.72 45.6088 154.248C46.1471 153.776 46.877 153.51 47.6383 153.509H70.168C70.9293 153.51 71.6591 153.776 72.1974 154.248C72.7358 154.72 73.0386 155.36 73.0394 156.028V197.094C73.0386 197.762 72.7358 198.402 72.1974 198.874C71.6591 199.346 70.9293 199.612 70.168 199.613Z" fill="#F2FADE" fill-opacity="0.85"/>
<path d="M123.621 200H101.091C100.213 199.999 99.3706 199.693 98.7495 199.148C98.1284 198.603 97.779 197.865 97.778 197.094V117.285C97.779 116.515 98.1284 115.776 98.7495 115.231C99.3706 114.687 100.213 114.38 101.091 114.379H123.621C124.499 114.38 125.341 114.687 125.963 115.231C126.584 115.776 126.933 116.515 126.934 117.285V197.094C126.933 197.865 126.584 198.603 125.963 199.148C125.341 199.693 124.499 199.999 123.621 200ZM101.091 115.154C100.447 115.155 99.8295 115.38 99.374 115.779C98.9185 116.179 98.6623 116.72 98.6615 117.285V197.094C98.6623 197.659 98.9185 198.201 99.374 198.6C99.8295 199 100.447 199.224 101.091 199.225H123.621C124.265 199.224 124.883 199 125.338 198.6C125.794 198.201 126.05 197.659 126.051 197.094V117.285C126.05 116.72 125.794 116.179 125.338 115.779C124.883 115.38 124.265 115.155 123.621 115.154H101.091Z" fill="#F2FADE"/>
<path d="M177.074 200H154.544C153.666 199.999 152.823 199.693 152.202 199.148C151.581 198.603 151.232 197.865 151.231 197.094V66.5327C151.232 65.7624 151.581 65.0238 152.202 64.4791C152.823 63.9343 153.666 63.6279 154.544 63.6271H177.074C177.952 63.6279 178.794 63.9343 179.415 64.4791C180.037 65.0238 180.386 65.7624 180.387 66.5327V197.094C180.386 197.865 180.037 198.603 179.415 199.148C178.794 199.693 177.952 199.999 177.074 200ZM154.544 64.4019C153.9 64.4026 153.282 64.6273 152.827 65.0267C152.371 65.4262 152.115 65.9678 152.114 66.5327V197.094C152.115 197.659 152.371 198.201 152.827 198.6C153.282 199 153.9 199.224 154.544 199.225H177.074C177.718 199.224 178.335 199 178.791 198.6C179.246 198.201 179.503 197.659 179.503 197.094V66.5327C179.503 65.9678 179.246 65.4262 178.791 65.0267C178.335 64.6273 177.718 64.4026 177.074 64.4019H154.544Z" fill="#F2FADE"/>
<path d="M231.025 199.806H208.496C207.734 199.806 207.005 199.54 206.466 199.068C205.928 198.596 205.625 197.956 205.624 197.288V13.2621C205.625 12.5945 205.928 11.9544 206.466 11.4823C207.005 11.0102 207.734 10.7447 208.496 10.7439H231.025C231.787 10.7447 232.517 11.0102 233.055 11.4823C233.593 11.9544 233.896 12.5945 233.897 13.2621V197.288C233.896 197.956 233.593 198.596 233.055 199.068C232.517 199.54 231.787 199.806 231.025 199.806Z" fill="#F2FADE" fill-opacity="0.85"/>
<path d="M90.9049 86.1468C90.9866 85.5818 90.9261 85.0079 90.7276 84.4656C90.5291 83.9233 90.1974 83.4258 89.756 83.0081C89.3145 82.5904 88.774 82.2627 88.1724 82.048C87.5709 81.8333 86.923 81.7369 86.2744 81.7655L78.4215 69.132L76.6544 74.5559L82.0346 86.1344C82.1617 87.0868 82.6828 87.9652 83.499 88.6032C84.3153 89.2411 85.3701 89.5944 86.4634 89.5959C87.5568 89.5974 88.6129 89.2472 89.4315 88.6115C90.2501 87.9758 90.7743 87.0988 90.9049 86.1468V86.1468Z" fill="#A0616A"/>
<path d="M30.4001 136.029L34.7739 138.83L49.1731 125.366L42.7172 121.232L30.4001 136.029Z" fill="#A0616A"/>
<path d="M40.2447 147.793L26.4972 138.991L30.3749 134.333L38.8109 139.734C40.2196 140.636 41.1621 141.992 41.431 143.503C41.6999 145.015 41.2732 146.558 40.2448 147.793L40.2447 147.793Z" fill="#2F2E41"/>
<path d="M53.5417 150.854L58.9576 150.853L61.534 132.533L53.5408 132.533L53.5417 150.854Z" fill="#A0616A"/>
<path d="M69.4028 155.263L52.3815 155.264L52.3812 149.497L62.8261 149.496C64.5702 149.496 66.243 150.104 67.4764 151.185C68.7097 152.267 69.4027 153.734 69.4028 155.263Z" fill="#2F2E41"/>
<path d="M69.8072 79.3987C69.8072 79.3987 72.4577 101.869 65.8313 117.366L60.972 146.81H52.5785L53.4621 111.942L50.3698 80.9484C50.3698 80.9484 56.5544 67.0011 69.8072 79.3987Z" fill="#F2FADE" fill-opacity="0.75"/>
<path d="M41.0929 80.9482L49.9281 107.68L32.6995 131.701L41.3138 138.093L60.972 111.167L55.2292 78.2363L41.0929 80.9482Z" fill="#F2FADE" fill-opacity="0.75"/>
<path d="M63.6243 21.0038C69.6166 21.0038 74.4743 16.7436 74.4743 11.4883C74.4743 6.23302 69.6166 1.97278 63.6243 1.97278C57.632 1.97278 52.7742 6.23302 52.7742 11.4883C52.7742 16.7436 57.632 21.0038 63.6243 21.0038Z" fill="#A0616A"/>
<path d="M54.5664 24.5783C54.5664 24.5783 61.1928 20.7041 68.7027 29.2274L70.6906 82.8855C70.6906 82.8855 64.9478 75.9119 53.0203 82.4981C41.0928 89.0843 38.4422 81.7232 38.4422 81.7232C38.4422 81.7232 30.0488 26.3217 54.5664 24.5783Z" fill="#CCCCCC"/>
<path d="M68.1683 29.0921C70.074 29.1824 71.8744 29.8877 73.223 31.0721C74.5716 32.2565 75.3732 33.8364 75.4735 35.5079L76.8753 58.8652L86.1522 80.9483L80.8511 84.8226L63.6225 58.4778L60.0952 36.8235C59.9335 35.831 60.0248 34.8194 60.3624 33.8616C60.6999 32.9037 61.2755 32.0234 62.0476 31.284C62.8196 30.5446 63.769 29.9645 64.8274 29.5855C65.8857 29.2065 67.0267 29.038 68.1683 29.0921Z" fill="#CCCCCC"/>
<path d="M55.6518 18.6259C57.4256 20.283 60.7197 19.3934 60.9509 17.1296C60.969 16.9539 60.9677 16.777 60.9469 16.6015C60.8276 15.5987 60.1671 14.6883 60.3253 13.6296C60.3611 13.3661 60.473 13.115 60.6505 12.9C62.064 11.2401 65.382 13.6425 66.716 12.1398C67.534 11.2183 66.5725 9.76759 67.2002 8.73774C68.0286 7.37851 70.4825 8.04902 72.0213 7.30464C73.7335 6.47642 73.6311 4.17261 72.504 2.77132C71.1295 1.0624 68.7196 0.150503 66.3397 0.0190693C63.9599 -0.112364 61.5964 0.451855 59.3745 1.21123C56.8501 2.07402 54.3467 3.26643 52.7932 5.21316C50.904 7.58059 50.7222 10.7634 51.667 13.5316C52.2418 15.2156 54.2033 17.2727 55.6518 18.6259Z" fill="#2F2E41"/>
<path d="M286.474 199.836H0.525993C0.386755 199.835 0.253353 199.786 0.155039 199.7C0.0567245 199.613 0.00152588 199.496 0.00152588 199.374C0.00152588 199.252 0.0567245 199.135 0.155039 199.049C0.253353 198.962 0.386755 198.913 0.525993 198.913H286.474C286.613 198.913 286.747 198.962 286.845 199.049C286.943 199.135 286.998 199.252 286.998 199.374C286.998 199.496 286.943 199.613 286.845 199.7C286.747 199.786 286.613 199.835 286.474 199.836Z" fill="#3F3D56"/>
</g>
<defs>
<clipPath id="clip0">
<rect width="287" height="200" fill="white"/>
</clipPath>
</defs>
</svg>
