<svg xmlns="http://www.w3.org/2000/svg" width="1910" height="479" fill="none" viewBox="0 0 1910 479"><path fill="#B28B67" fill-rule="evenodd" d="M1106.41 67.1432C1099.8 62.5979 1094.46 56.2811 1092.87 48.0178C1088.3 24.2087 1122.26 20.5557 1131.74 30.6384C1141.21 40.721 1148.42 70.8384 1140.79 75.1567C1137.74 76.8789 1130.24 76.6979 1122.02 74.3477L1134.82 104.545L1108.56 111.629L1106.41 67.1432Z" clip-rule="evenodd"/><path fill="#191847" fill-rule="evenodd" d="M1115.53 44.672C1120.25 58.3733 1124.77 64.6422 1129.08 63.4788C1135.55 61.7335 1139.95 56.1543 1142.79 55.3886C1144.85 54.8303 1145.08 57.539 1144.22 59.8249C1143.51 61.7109 1138.4 64.7212 1139.05 67.1717C1139.71 69.6223 1143.56 66.5518 1143.94 68.0052C1144.58 70.4093 1146.55 74.7229 1142.37 75.8509C1138.14 76.9925 1125.6 78.7268 1121.85 73.0204C1119.43 69.3377 1116.33 61.1904 1112.56 48.5784C1112.29 48.6172 1112.03 48.672 1111.76 48.7435C1108.13 49.7216 1105.98 53.4475 1106.94 57.0655C1107.43 58.9022 1108.63 60.3581 1110.16 61.2184C1109.21 63.7678 1108.11 66.4621 1106.77 69.2947C1098.27 66.8841 1089.42 55.5071 1093.3 41.2357C1093.67 34.657 1097.29 30.2189 1102.19 27.2914C1106 24.3439 1110.4 22.9409 1114.45 23.0002C1121.98 21.6432 1129.16 22.1103 1131.38 22.9387C1133.23 29.8994 1132.43 32.3293 1120.83 35.2616C1118.39 37.5218 1116.9 40.6843 1115.53 44.672Z" clip-rule="evenodd"/><path fill="#997659" fill-rule="evenodd" d="M1121.35 203.69L1176.94 344.817L1214.23 464.128H1228.95L1171.95 203.69L1121.35 203.69Z" clip-rule="evenodd"/><path fill="#B28B67" fill-rule="evenodd" d="M1110.15 203.69C1109.56 253.283 1100.93 320.052 1099.55 323.143C1098.63 325.204 1066.88 351.412 1004.31 401.768L1014.45 412.652C1088.28 369.479 1126.9 345.013 1130.32 339.255C1135.44 330.617 1152.13 251.134 1165.52 203.69H1110.15Z" clip-rule="evenodd"/><path fill="#E4E4E4" fill-rule="evenodd" d="M1002.89 398.113C999.482 399.324 997.136 400.474 995.85 401.561C994.285 402.883 992.221 405.074 989.656 408.135C991.179 409.963 1004.87 426.388 1030.72 457.41C1035.99 455.138 1037.65 452.481 1035.68 449.439C1033.72 446.397 1032.11 443.85 1030.86 441.797L1021.91 410.327C1021.74 409.722 1021.12 409.371 1020.51 409.545C1020.5 409.548 1020.49 409.551 1020.48 409.554L1015.71 411.078C1012.4 409.524 1010.08 407.949 1008.75 406.352C1007.66 405.055 1006.69 402.824 1005.83 399.658L1005.83 399.658C1005.5 398.444 1004.25 397.73 1003.04 398.064C1002.99 398.078 1002.94 398.094 1002.89 398.113Z" clip-rule="evenodd"/><path fill="#E4E4E4" fill-rule="evenodd" d="M1208.2 458.732C1206.93 462.138 1206.3 464.687 1206.3 466.378C1206.3 468.434 1206.64 471.435 1207.32 475.381C1209.69 475.381 1230.98 475.381 1271.2 475.381C1272.86 469.855 1271.9 466.871 1268.33 466.431C1264.75 465.99 1261.78 465.592 1259.41 465.237L1229.72 451.909C1229.15 451.652 1228.48 451.911 1228.22 452.486C1228.22 452.496 1228.22 452.506 1228.21 452.516L1226.3 457.178C1222.99 458.733 1220.3 459.511 1218.23 459.511C1216.55 459.511 1214.23 458.827 1211.26 457.459L1211.26 457.459C1210.13 456.934 1208.78 457.437 1208.26 458.582C1208.24 458.631 1208.22 458.681 1208.2 458.732Z" clip-rule="evenodd"/><path fill="#69A1AC" fill-rule="evenodd" d="M1158.72 451.839L1228.73 444.219L1176.85 203.69H1114.15L1158.72 451.839Z" clip-rule="evenodd"/><path fill="#89C5CC" fill-rule="evenodd" d="M1018.79 384.208L1064.71 438.721C1113.08 385.741 1141.27 351.171 1149.3 335.012C1157.33 318.853 1164.55 275.079 1170.96 203.69H1100.37C1096.87 266.495 1094.51 299.358 1093.29 302.281C1092.07 305.204 1067.24 332.513 1018.79 384.208Z" clip-rule="evenodd"/><path fill="#B28B67" fill-rule="evenodd" d="M1208.05 177.522L1248.22 197.383C1258.33 198.279 1266.96 200.093 1274.11 202.827C1275.89 203.952 1278.23 206.451 1271.8 207.089C1265.37 207.726 1258.64 208.686 1258.14 211.009C1257.65 213.332 1261.94 215.243 1260.68 218.482C1259.84 220.641 1253.42 216.741 1241.4 206.783L1203.6 198.399L1208.05 177.522ZM1071.59 202.68L1094.92 198.633C1088.68 247.74 1085.24 273.82 1084.59 276.872C1083.13 283.739 1090.3 292.53 1093.55 297.36C1086.54 302.122 1085.14 289.347 1076.33 295.524C1068.28 301.162 1062.92 309.743 1051.7 305.283C1050.32 304.735 1048.45 302.081 1051.35 299.233C1058.57 292.137 1068.67 280.169 1069.7 276.637C1071.1 271.821 1071.73 247.168 1071.59 202.68Z" clip-rule="evenodd"/><path fill="#E87613" fill-rule="evenodd" d="M1120.68 92.9201L1130.03 89.5501C1171.24 114.171 1196.37 171.067 1245.75 194.801L1237.49 209.788C1159.74 213.859 1128.16 144.625 1120.68 92.9201Z" clip-rule="evenodd"/><path fill="#DDE3E9" fill-rule="evenodd" d="M1099.9 221.831C1138.57 214.965 1167.02 209.914 1185.24 206.679C1189.14 205.987 1187.42 200.475 1186.36 197.728C1174.1 166.026 1142.5 135.116 1134.31 88.3441L1109.01 88.847C1094.39 125.273 1094.43 166.919 1099.9 221.831Z" clip-rule="evenodd"/><path fill="#FF9B21" fill-rule="evenodd" d="M1083.92 126.556C1080.16 126.161 1076.91 124.262 1074.16 120.859C1062.32 106.19 1064 96.6569 1073.1 92.0058C1082.2 87.3548 1091.84 91.8962 1107.16 89.1762C1107.99 89.0283 1108.76 88.9451 1109.47 88.9268L1117.26 87.9992C1152.52 159.154 1167.39 208.163 1161.87 235.028L1094.7 246.954C1092.34 256.959 1089.91 265.458 1087.38 272.452L1069.08 275.701C1057.58 220.203 1062.53 170.488 1083.92 126.556Z" clip-rule="evenodd"/><path fill="#000" fill-opacity=".1" fill-rule="evenodd" d="M1102.57 205.797C1107.78 223.132 1113.47 235.376 1119.62 242.528L1094.7 246.954C1097.44 235.283 1100.06 221.565 1102.57 205.797Z" clip-rule="evenodd"/><path fill="#B28B67" fill-rule="evenodd" d="M1730.6 84.5231C1725.61 78.6642 1722.23 71.4841 1722.8 63.4385C1724.42 40.257 1756.69 45.3567 1762.97 57.0567C1769.25 68.7567 1768.5 98.4348 1760.39 100.526C1757.15 101.36 1750.26 99.3171 1743.25 95.0891L1747.65 126.238H1721.65L1730.6 84.5231Z" clip-rule="evenodd"/><path fill="#191847" fill-rule="evenodd" d="M1748.15 43.5719C1744.73 43.01 1735.5 42.6237 1733.8 42.6239C1732.71 42.6239 1731.53 42.8723 1730.89 41.874C1730.36 41.0565 1730.56 39.6738 1730.4 38.7251C1730.22 37.6231 1729.96 36.5352 1729.69 35.4501C1728.95 32.3623 1727.82 29.4247 1726.24 26.6666C1723.27 21.4921 1718.92 17.439 1713.44 15.0804C1707.38 12.4762 1700.53 11.8799 1694.01 12.4081C1687.04 12.9733 1680.72 15.2752 1674.14 17.4415C1667.87 19.5057 1661.29 20.3182 1654.73 19.3102C1648.12 18.2946 1643.13 14.7113 1637.55 11.3103C1631.84 7.82849 1625.32 5.55126 1618.57 6.07474C1612.27 6.56356 1606.46 9.16475 1601.25 12.6396C1596.38 15.8907 1592.36 19.8022 1590.09 25.3074C1587.64 31.2293 1587.65 37.7296 1591.66 42.9631C1597.48 50.5492 1608.29 52.511 1617.28 52.316C1622.49 52.2035 1627.59 51.254 1632.5 49.527C1639.05 47.2235 1644.71 43.3195 1650.84 40.1519C1653.71 38.6655 1656.69 37.4447 1659.8 36.5654C1662.82 35.7117 1665.8 35.3201 1668.54 37.1462C1671.43 39.078 1674.03 40.9757 1677.34 42.185C1680.52 43.3452 1683.88 43.9941 1687.27 43.9679C1693.86 43.9171 1700.35 41.8648 1706.75 40.4901C1711.96 39.3693 1717.54 38.2523 1722.86 39.3297C1725.08 39.7793 1728.32 40.7076 1729.13 43.014C1715.63 45.4591 1710.34 62.1437 1714.14 74.3917C1716.19 81.0025 1728.53 88.7303 1733.33 85.255C1736.37 83.0532 1734.52 80.1628 1733.33 78.2546C1731.04 74.6005 1730.26 69.9066 1734.49 67.3625C1738.14 65.1683 1741.98 70.3789 1742.05 70.3732C1743.05 70.2941 1751.72 65.3916 1757.7 58.2375C1763.59 58.5868 1764.48 54.7018 1763.07 51.5245C1761.67 48.3473 1752.89 44.3488 1748.15 43.5719Z" clip-rule="evenodd"/><path fill="#997659" fill-rule="evenodd" d="M1715.16 216.17L1795.65 350.736L1856 464.5H1869L1767.89 216.17L1715.16 216.17Z" clip-rule="evenodd"/><path fill="#E4E4E4" fill-rule="evenodd" d="M1848.05 459.248C1846.84 462.483 1846.23 464.903 1846.23 466.509C1846.23 468.463 1846.56 471.313 1847.21 475.061C1849.48 475.061 1869.84 475.061 1908.31 475.061C1909.89 469.812 1908.98 466.978 1905.56 466.56C1902.14 466.141 1899.29 465.763 1897.03 465.426L1868.64 452.767C1868.09 452.523 1867.45 452.769 1867.21 453.315C1867.2 453.324 1867.2 453.334 1867.19 453.343L1865.37 457.771C1862.2 459.249 1859.63 459.987 1857.65 459.987C1856.04 459.987 1853.82 459.338 1850.98 458.038L1850.98 458.038C1849.9 457.54 1848.61 458.017 1848.11 459.105C1848.09 459.152 1848.07 459.199 1848.05 459.248Z" clip-rule="evenodd"/><path fill="#DB2721" fill-rule="evenodd" d="M1839.24 446.283L1864.31 438.7C1853.32 405.87 1839.86 369.741 1823.93 330.314C1807.99 290.887 1790.87 252.839 1772.58 216.17H1701.78C1722.12 262.555 1743.69 304.701 1766.47 342.61C1789.26 380.518 1813.52 415.076 1839.24 446.283Z" clip-rule="evenodd"/><path fill="#B28B67" fill-rule="evenodd" d="M1709.87 216.17C1702.28 263.457 1687.63 323.872 1686.24 325.737C1685.32 326.98 1652.13 338.1 1586.68 359.098L1589.49 370.56C1667.54 359.298 1708.67 350.561 1712.87 344.349C1719.17 335.03 1750.64 261.409 1762.83 216.17H1709.87Z" clip-rule="evenodd"/><path fill="#FF4133" fill-rule="evenodd" d="M1609.69 349.191L1614.64 367.65C1673.01 372.77 1708.78 369.071 1721.94 356.552C1735.1 344.032 1750.1 297.239 1766.94 216.17H1699.43C1688.77 282.554 1682.8 317.14 1681.54 319.926C1680.28 322.713 1656.33 332.468 1609.69 349.191Z" clip-rule="evenodd"/><path fill="#E4E4E4" fill-rule="evenodd" d="M1589.89 354.323C1586.49 353.692 1584 353.515 1582.42 353.794C1580.5 354.133 1577.75 354.949 1574.17 356.24C1574.56 358.472 1578.1 378.528 1584.78 416.408C1590.22 417.06 1592.85 415.666 1592.67 412.224C1592.49 408.783 1592.37 405.919 1592.31 403.632L1599.85 373.468C1599.99 372.888 1599.64 372.3 1599.06 372.155C1599.05 372.152 1599.04 372.15 1599.03 372.148L1594.35 371.119C1592.34 368.257 1591.17 365.851 1590.83 363.902C1590.55 362.318 1590.8 360.017 1591.59 357L1591.59 357C1591.89 355.843 1591.2 354.659 1590.04 354.357C1589.99 354.344 1589.94 354.333 1589.89 354.323Z" clip-rule="evenodd"/><path fill="#B28B67" fill-rule="evenodd" d="M1808.37 198.957L1839.05 228.892C1847.98 232.701 1855.3 236.906 1861 241.508C1862.28 243.055 1863.68 246.019 1857.64 244.693C1851.61 243.366 1845.2 242.242 1844.07 244.205C1842.94 246.167 1846.28 249.174 1844.18 251.742C1842.78 253.454 1838.08 248.008 1830.08 235.405L1798.18 216.592L1808.37 198.957ZM1672.17 203.179L1694.8 203.268C1680.83 248.388 1673.28 272.329 1672.17 275.09C1669.66 281.301 1674.96 290.762 1677.23 295.846C1669.84 299.152 1670.63 286.909 1661.31 291.245C1652.81 295.202 1646.34 302.373 1636.51 296.309C1635.3 295.563 1633.98 292.756 1637.17 290.562C1645.14 285.097 1656.63 275.533 1658.18 272.384C1660.3 268.091 1664.96 245.023 1672.17 203.179Z" clip-rule="evenodd"/><path fill="#191847" fill-rule="evenodd" d="M1736.5 108.194L1745.86 106.587C1761.99 146.872 1790.14 183.477 1830.33 216.4L1799.96 253.291C1759.78 206.412 1735.02 158.047 1736.5 108.194Z" clip-rule="evenodd"/><path fill="#DDE3E9" fill-rule="evenodd" d="M1695.66 225.905H1779.07C1759.75 178.921 1750.09 139.008 1750.09 106.166L1724.93 102.418C1705.15 134.219 1699.57 173.374 1695.66 225.905Z" clip-rule="evenodd"/><path fill="#2F3676" fill-rule="evenodd" d="M1724.39 102.436C1724.4 102.43 1724.4 102.424 1724.4 102.418H1726.05C1728.01 102.485 1731 102.607 1735.03 102.784L1741.1 120.158C1741.75 141.341 1745.5 184.03 1752.37 248.226H1697.7C1697.84 252.66 1698.08 257.135 1698.4 261.652H1657.75C1663.83 193.045 1686.04 139.967 1724.37 102.418L1724.39 102.436V102.436Z" clip-rule="evenodd"/><path fill="#000" fill-opacity=".1" fill-rule="evenodd" d="M1701.31 191.495C1702.86 219.133 1706.76 238.186 1713 248.653H1697.71C1697.04 228.768 1698.24 209.715 1701.31 191.495V191.495Z" clip-rule="evenodd"/><path fill="#fff" fill-opacity=".2" fill-rule="evenodd" d="M1709.87 215.073L1736.83 202.539V215.073H1709.87Z" clip-rule="evenodd"/><path fill="#B28B67" fill-rule="evenodd" d="M1430.84 65.8005C1425.37 59.6012 1421.66 52.004 1422.28 43.491C1424.07 18.9628 1459.46 24.3587 1466.35 36.7384C1473.23 49.1182 1472.41 80.5204 1463.52 82.733C1459.97 83.6154 1452.41 81.4539 1444.71 76.9803L1449.54 109.939H1421.03L1430.84 65.8005Z" clip-rule="evenodd"/><path fill="#191847" fill-rule="evenodd" d="M1446.14 46.1999C1447.23 60.8674 1450.12 68.2012 1454.8 68.2012C1461.83 68.2012 1467.79 63.8989 1470.87 63.8989C1473.12 63.8989 1472.61 66.6115 1471.12 68.6227C1469.9 70.282 1463.91 71.8814 1463.91 74.4539C1463.91 77.0264 1468.64 75.0362 1468.64 76.5619C1468.64 79.0855 1469.47 83.8305 1464.93 83.8305C1460.33 83.8305 1447.16 82.2151 1444.9 75.636C1443.44 71.3901 1442.5 62.5918 1442.07 49.241C1441.8 49.209 1441.51 49.1926 1441.22 49.1926C1437.29 49.1926 1434.1 52.2715 1434.1 56.0695C1434.1 57.9976 1434.92 59.7403 1436.24 60.989C1434.59 63.2351 1432.74 65.5813 1430.63 68.0023C1422.67 63.3965 1416.76 49.9135 1424.54 36.9611C1426.69 30.616 1431.56 27.2268 1437.31 25.6531C1441.97 23.7737 1446.8 23.5618 1450.89 24.6885C1458.89 25.3505 1466.03 27.7039 1468.06 29.1016C1468.06 36.4086 1466.59 38.5765 1454.05 38.3854C1450.97 39.9547 1448.6 42.6571 1446.14 46.1999Z" clip-rule="evenodd"/><path fill="#191847" fill-rule="evenodd" d="M1411.52 205.069L1454.6 350.891L1486.03 458.369H1508.95L1475.55 205.069H1411.52Z" clip-rule="evenodd"/><path fill="#2F3676" fill-rule="evenodd" d="M1400 205.069C1399 280.227 1395.61 321.221 1394.56 328.049C1393.51 334.878 1377.7 378.318 1347.11 458.369H1370.85C1409.8 381.573 1431.54 338.133 1436.07 328.049C1440.61 317.965 1454.6 276.972 1475.68 205.069H1400Z" clip-rule="evenodd"/><path fill="#191847" fill-rule="evenodd" d="M1344.98 479L1346.17 454.931H1371.12C1382.95 462.954 1398.4 469.449 1417.46 474.415V479H1372.31L1356.87 476.708V479H1344.98Z" clip-rule="evenodd"/><path fill="#191847" fill-rule="evenodd" d="M1482.81 479L1484 454.931H1508.95C1520.78 462.954 1536.23 469.449 1555.29 474.415V479H1510.14L1494.69 476.708V479H1482.81Z" clip-rule="evenodd"/><path fill="#B28B67" fill-rule="evenodd" d="M1511.75 186.284L1547.62 215.616C1557.68 218.977 1566 222.876 1572.6 227.312C1574.12 228.85 1575.87 231.876 1569.17 230.921C1562.46 229.967 1555.37 229.253 1554.28 231.408C1553.19 233.563 1557.07 236.49 1554.98 239.356C1553.58 241.266 1548.02 235.865 1538.3 223.152L1501.95 205.65L1511.75 186.284ZM1349.34 173.591L1370.39 176.539C1347.8 223.818 1335.69 248.821 1334.06 251.55C1330.38 257.69 1334.7 268.383 1336.39 274.044C1327.86 276.42 1330.58 263.708 1319.8 266.879C1309.96 269.773 1301.83 276.333 1292.08 268.532C1290.89 267.573 1289.88 264.437 1293.69 262.61C1303.18 258.057 1317.11 249.726 1319.28 246.656C1322.23 242.469 1332.25 218.114 1349.34 173.591Z" clip-rule="evenodd"/><path fill="#C5CFD6" fill-rule="evenodd" d="M1437.3 90.8347L1450.34 86.6748C1468.03 129.301 1494.41 170.543 1538.48 205.379L1527.58 223.519C1488.85 201.507 1452.18 184.408 1437.3 151.378C1432.3 140.292 1436.89 104.09 1437.3 90.8347Z" clip-rule="evenodd"/><path fill="#323337" fill-rule="evenodd" d="M1392.51 210.8C1429.86 214.621 1459.26 214.621 1480.71 210.8C1483.37 210.327 1483.79 206.035 1482.56 203.122C1463.37 157.762 1450.21 118.182 1450.21 86.675C1446.69 88.3876 1440.52 88.6442 1431.72 87.445C1408.06 119.914 1397.18 157.168 1392.51 210.8Z" clip-rule="evenodd"/><path fill="#DDE3E9" fill-rule="evenodd" d="M1425.84 84.7234H1435.7C1437.99 97.7493 1445.23 274.14 1467.59 331.841H1346.63C1349.25 278.982 1369.94 215.485 1390.89 162.35C1372.36 178.707 1356.21 206.423 1342.44 245.497L1319.79 239.887C1336.63 169.861 1371.27 118.392 1423.69 85.4787C1423.81 85.2258 1423.92 84.974 1424.03 84.7234H1424.91C1425.23 84.5245 1425.55 84.3264 1425.87 84.1289L1425.84 84.7234Z" clip-rule="evenodd"/><path fill="#57331F" fill-rule="evenodd" d="M850.536 43.6652C845.508 37.1894 842.105 29.2532 842.674 20.3605C844.312 -5.26183 876.816 0.374759 883.138 13.3067C889.461 26.2387 888.71 59.0417 880.538 61.353C877.279 62.2747 870.337 60.0168 863.272 55.3436L867.707 89.7722H841.521L850.536 43.6652Z" clip-rule="evenodd"/><path fill="#191847" fill-rule="evenodd" d="M864.581 23.1902C865.583 38.5119 868.235 46.1728 872.536 46.1728C878.987 46.1728 884.46 41.6787 887.291 41.6787C889.355 41.6787 888.894 44.5123 887.526 46.6132C886.398 48.3465 880.902 50.0172 880.902 52.7044C880.902 55.3917 885.244 53.3127 885.244 54.9065C885.244 57.5427 886.007 62.4993 881.838 62.4993C877.618 62.4993 865.519 60.8119 863.445 53.9393C862.107 49.504 861.242 40.3132 860.85 26.3669C860.594 26.3335 860.333 26.3163 860.069 26.3163C856.454 26.3163 853.523 29.5326 853.523 33.5C853.523 35.5141 854.278 37.3346 855.495 38.639C853.98 40.9852 852.282 43.4361 850.337 45.9651C843.029 41.1538 837.606 27.0694 844.751 13.5393C846.726 6.91112 851.196 3.37076 856.477 1.72686C860.754 -0.236428 865.194 -0.45779 868.942 0.719181C876.289 1.41072 882.85 3.86915 884.709 5.32916C884.709 12.9621 883.361 15.2267 871.849 15.0271C869.021 16.6664 866.846 19.4893 864.581 23.1902Z" clip-rule="evenodd"/><path fill="#3D2216" fill-rule="evenodd" d="M839.42 188.85L892.972 337.584L928.89 463.327H943.073L888.163 188.85L839.42 188.85Z" clip-rule="evenodd"/><path fill="#57331F" fill-rule="evenodd" d="M828.637 188.85C828.066 241.116 819.75 311.484 818.421 314.742C817.535 316.914 786.957 344.535 726.685 397.605L736.454 409.076C807.569 363.576 844.772 337.791 848.063 331.722C852.999 322.619 869.07 238.852 881.972 188.85H828.637Z" clip-rule="evenodd"/><path fill="#E4E4E4" fill-rule="evenodd" d="M725.378 393.776C722.097 395.049 719.837 396.255 718.598 397.396C717.091 398.784 715.102 401.085 712.632 404.298C714.099 406.217 727.285 423.46 752.189 456.028C757.266 453.644 758.86 450.854 756.968 447.661C755.076 444.467 753.528 441.793 752.323 439.637L743.706 406.6C743.54 405.964 742.936 405.596 742.356 405.778C742.347 405.781 742.337 405.784 742.327 405.788L737.729 407.388C734.538 405.757 732.302 404.103 731.02 402.426C729.979 401.064 729.042 398.722 728.209 395.399L728.209 395.399C727.89 394.124 726.689 393.374 725.527 393.725C725.477 393.74 725.427 393.757 725.378 393.776Z" clip-rule="evenodd"/><path fill="#E4E4E4" fill-rule="evenodd" d="M923.082 457.522C921.862 461.097 921.251 463.773 921.251 465.548C921.251 467.707 921.579 470.858 922.235 475C924.517 475 945.03 475 983.774 475C985.373 469.198 984.45 466.066 981.004 465.604C977.559 465.141 974.697 464.724 972.418 464.351L943.815 450.358C943.264 450.089 942.619 450.361 942.374 450.964C942.37 450.975 942.366 450.985 942.362 450.996L940.523 455.89C937.334 457.523 934.742 458.339 932.748 458.339C931.127 458.339 928.89 457.621 926.035 456.185L926.035 456.185C924.939 455.634 923.644 456.162 923.142 457.364C923.12 457.416 923.1 457.468 923.082 457.522Z" clip-rule="evenodd"/><path fill="#69A1AC" fill-rule="evenodd" d="M875.426 450.375L942.859 442.344L892.883 188.85H832.485L875.426 450.375Z" clip-rule="evenodd"/><path fill="#89C5CC" fill-rule="evenodd" d="M740.633 379.098L784.866 436.55C831.455 380.714 858.617 344.281 866.351 327.251C874.085 310.221 881.037 264.087 887.208 188.85H819.211C815.84 255.04 813.568 289.676 812.395 292.756C811.221 295.836 787.301 324.617 740.633 379.098Z" clip-rule="evenodd"/><path fill="#57331F" fill-rule="evenodd" d="M934.861 174.003L965.769 207.09C974.762 211.299 982.13 215.947 987.874 221.034C989.166 222.744 990.572 226.02 984.495 224.554C978.417 223.088 971.964 221.846 970.822 224.015C969.68 226.184 973.046 229.507 970.935 232.346C969.527 234.238 964.794 228.219 956.735 214.288L924.595 193.495L934.861 174.003ZM783.72 144.058L807.612 144.157C789.415 208.85 779.756 242.723 778.634 245.774C776.109 252.64 781.452 263.097 783.736 268.716C776.295 272.37 777.088 258.838 767.701 263.63C759.133 268.005 752.615 275.93 742.716 269.228C741.499 268.404 740.166 265.301 743.388 262.876C751.416 256.836 762.985 246.264 764.548 242.784C766.679 238.039 773.07 205.13 783.72 144.058Z" clip-rule="evenodd"/><path fill="#191847" fill-rule="evenodd" d="M856.523 69.6858L865.958 67.9101C880.82 125.561 957.183 164.859 961.871 186.41C963.59 194.314 958.407 198.309 961.084 200.716L948.821 210.567C946.744 207.909 942.313 212.772 933.058 209.37C923.804 205.968 856.523 137.95 856.523 69.6858Z" clip-rule="evenodd"/><path fill="#2F3676" fill-rule="evenodd" d="M872.393 77.3504C871.306 153.676 911.514 173.146 902.558 203.765C895.162 229.049 824.371 256.23 812.121 231.445C807.162 221.413 804.913 209.279 804.657 196.087C801.527 206.222 799.051 214.947 797.229 222.262C794.087 234.881 781.905 236.887 781.905 241.748L765.856 236.887C766.944 230.282 759.378 227.066 761.407 212.312C770.496 146.201 794.918 98.2794 834.673 68.547L835.084 62.0929C835.253 59.4544 837.338 57.4651 839.743 57.6496L869.13 59.9045C871.535 60.089 873.347 62.3776 873.179 65.0161L872.393 77.3504Z" clip-rule="evenodd"/><path fill="#B28B67" fill-rule="evenodd" d="M137.234 83.5216C132.417 77.5882 129.156 70.3168 129.701 62.1689C131.271 38.6927 162.416 43.8571 168.475 55.7059C174.533 67.5547 173.813 97.6102 165.983 99.7279C162.861 100.572 156.209 98.5037 149.438 94.2219L153.688 125.767H128.596L137.234 83.5216Z" clip-rule="evenodd"/><path fill="#191847" fill-rule="evenodd" d="M154.173 42.0496C150.866 41.4806 141.962 41.0894 140.32 41.0896C139.27 41.0896 138.133 41.3412 137.511 40.3302C137.002 39.5023 137.189 38.102 137.037 37.1413C136.861 36.0252 136.61 34.9235 136.357 33.8246C135.636 30.6975 134.545 27.7225 133.019 24.9294C130.157 19.6891 125.963 15.5844 120.668 13.1959C114.821 10.5586 108.205 9.95469 101.916 10.4896C95.1853 11.0619 89.0929 13.3931 82.7385 15.5869C76.683 17.6774 70.3406 18.5003 64.0073 17.4794C57.6262 16.451 52.8047 12.8221 47.4224 9.37783C41.9124 5.85174 35.6156 3.54555 29.1018 4.07569C23.0214 4.57072 17.4174 7.205 12.3895 10.724C7.68533 14.0165 3.8038 17.9777 1.61238 23.5529C-0.745098 29.5501 -0.742932 36.133 3.1338 41.4331C8.75297 49.1157 19.1847 51.1024 27.8635 50.9049C32.8835 50.791 37.8137 49.8295 42.5531 48.0804C48.8737 45.7477 54.3357 41.7941 60.2488 38.5862C63.0239 37.0809 65.8923 35.8446 68.8988 34.954C71.8164 34.0895 74.6901 33.693 77.3317 35.5423C80.1261 37.4986 82.6302 39.4204 85.8271 40.6451C88.894 41.8201 92.1424 42.4772 95.4099 42.4507C101.767 42.3992 108.034 40.3208 114.209 38.9287C119.244 37.7936 124.631 36.6624 129.764 37.7535C131.906 38.2089 135.035 39.1489 135.809 41.4847C122.787 43.9608 117.673 60.8576 121.344 73.2614C123.326 79.9562 135.235 87.7823 139.865 84.2628C142.799 82.033 141.018 79.1058 139.865 77.1734C137.658 73.4728 136.903 68.7192 140.987 66.1428C144.51 63.9207 148.214 69.1976 148.284 69.1917C149.253 69.1117 157.62 64.1468 163.384 56.9018C169.071 57.2555 169.934 53.321 168.576 50.1034C167.218 46.8858 158.742 42.8364 154.173 42.0496Z" clip-rule="evenodd"/><path fill="#B28B67" fill-rule="evenodd" d="M108.36 216.817C110.245 243.814 231.689 323.296 232.398 325.526C232.713 326.517 220.112 357.848 194.597 419.519L205.213 423.847C244.349 358.533 262.913 322.397 260.902 315.437C258.024 305.474 226.615 272.696 166.675 217.104L108.36 216.817Z" clip-rule="evenodd"/><path fill="#2F3676" fill-rule="evenodd" d="M197.39 405.591L214.723 412.211C251.271 368.943 265.596 333.242 262.984 315.053C261.243 302.926 229.942 270.203 169.082 216.883L107.117 216.883C109.231 279.404 221.795 325.764 223.3 328.428C224.806 331.092 209.989 357.186 197.39 405.591Z" clip-rule="evenodd"/><path fill="#E4E4E4" fill-rule="evenodd" d="M190.691 417.392C188.524 420.051 187.175 422.145 186.645 423.673C186 425.532 185.354 428.357 184.707 432.149C186.763 432.934 205.233 439.988 240.119 453.311C243.292 448.866 243.396 445.852 240.432 444.268C237.467 442.685 235.015 441.342 233.074 440.237L211.498 418.354C211.083 417.933 210.421 417.945 210.02 418.38C210.013 418.388 210.006 418.395 210 418.403L206.883 421.984C203.523 422.294 200.945 422.105 199.15 421.42C197.691 420.862 195.89 419.475 193.749 417.257L193.749 417.257C192.927 416.405 191.603 416.414 190.792 417.277C190.757 417.314 190.723 417.352 190.691 417.392Z" clip-rule="evenodd"/><path fill="#997659" fill-rule="evenodd" d="M122.323 216.817L68.2229 353.094L15.0508 468.304H27.5958L164.847 216.817H122.323Z" clip-rule="evenodd"/><path fill="#E4E4E4" fill-rule="evenodd" d="M14.3004 462.986C13.1308 466.262 12.546 468.713 12.546 470.34C12.546 472.318 12.86 475.205 13.4882 479C15.6753 479 35.3313 479 72.4561 479C73.9885 473.684 73.1039 470.815 69.8024 470.391C66.5009 469.967 63.7583 469.584 61.5745 469.243L34.1668 456.422C33.6394 456.176 33.0213 456.424 32.7862 456.978C32.7822 456.987 32.7783 456.997 32.7745 457.006L31.0128 461.49C27.9565 462.987 25.4729 463.735 23.562 463.735C22.0095 463.735 19.8655 463.077 17.1299 461.761L17.1299 461.761C16.0801 461.256 14.839 461.74 14.3578 462.841C14.337 462.889 14.3179 462.937 14.3004 462.986Z" clip-rule="evenodd"/><path fill="#5C63AB" fill-rule="evenodd" d="M19.8525 444.371L47.7276 449.856C69.2807 416.608 159.481 280.281 169.37 216.817H107.314C74.2877 262.695 40.3969 410.573 19.8525 444.371Z" clip-rule="evenodd"/><path fill="#B28B67" fill-rule="evenodd" d="M216.418 186.779L254.301 169.322C260.937 162.383 267.345 157.11 273.526 153.501C275.374 152.884 278.531 152.697 275.162 157.86C271.794 163.022 268.472 168.611 269.818 170.42C271.164 172.23 275.063 170.233 276.603 173.175C277.63 175.136 271.058 177.483 256.886 180.214L228.514 203.038L216.418 186.779ZM63.2612 191.587L84.6852 196.047C63.1397 238.177 51.5853 260.506 50.0218 263.034C46.5041 268.722 49.7862 279.146 50.9986 284.635C43.3927 286.493 46.3923 274.481 36.7672 276.989C27.9818 279.278 20.5329 285.153 12.3409 277.23C11.3338 276.256 10.5965 273.211 14.0304 271.65C22.5855 267.759 35.2249 260.474 37.2744 257.646C40.0693 253.789 48.7315 231.769 63.2612 191.587Z" clip-rule="evenodd"/><path fill="#DB2721" fill-rule="evenodd" d="M142.914 107.482L151.955 105.855C171.646 125.897 179.681 174.048 192.804 180.422C205.211 186.448 222.799 180.617 243.705 172.743L250.107 187.752C231.112 209.315 190.645 227.532 174.243 217.132C148.018 200.505 141.964 141.118 142.914 107.482Z" clip-rule="evenodd"/><path fill="#DDE3E9" fill-rule="evenodd" d="M103.504 226.691C139.753 226.691 166.417 226.691 183.497 226.691C187.152 226.691 186.463 221.153 185.935 218.358C179.836 186.106 156.031 151.339 156.031 105.429L132.958 101.633C113.873 133.839 107.273 173.491 103.504 226.691Z" clip-rule="evenodd"/><path fill="#FF4133" fill-rule="evenodd" d="M95.5257 194.036C79.2187 224.9 65.5118 247.12 54.405 260.697L37.6379 257.252C48.4385 186.969 79.7156 135.096 131.469 101.633H135.634L140.605 101.633C161.319 175.721 167.029 225.086 157.736 249.728H85.7307C86.8699 231.697 90.5226 212.628 95.5257 194.036H95.5257Z" clip-rule="evenodd"/><path fill="#191847" fill-rule="evenodd" d="M535.003 89.1402C538.84 102.028 543.841 130.995 538.738 135.539H506.456C506.453 135.487 506.45 135.435 506.447 135.383C494.482 134.176 485.176 124.93 485.176 113.703V92.3968C485.176 80.3495 495.891 70.5833 509.109 70.5833H511.335C523.339 70.5833 533.278 78.6376 535.003 89.1402Z" clip-rule="evenodd"/><path fill="#D4A181" fill-rule="evenodd" d="M497.713 109.635C492.583 104.147 489.112 97.4219 489.692 89.8862C491.363 68.1736 524.524 72.9501 530.975 83.9087C537.426 94.8674 536.659 122.665 528.322 124.623C524.998 125.405 517.915 123.491 510.707 119.531L515.231 148.706H488.515L497.713 109.635Z" clip-rule="evenodd"/><path fill="#191847" fill-rule="evenodd" d="M504.934 105.967C506.165 118.018 505.672 131.78 502.004 135.047H469.722C467.924 106.564 485.306 117.594 485.306 90.7764C486.39 89.8112 487.414 88.856 488.428 88.0322L488.392 87.2435C493.982 76.8131 501.073 71.5979 509.667 71.5979C522.557 71.5979 526.626 77.0648 530.09 81.7063C527.5 89.8078 517.447 91.0091 508.514 96.059C507.461 95.2793 506.119 94.812 504.656 94.812C501.275 94.812 498.534 97.3103 498.534 100.392C498.534 103.474 501.275 105.972 504.656 105.972C504.749 105.972 504.842 105.97 504.934 105.967Z" clip-rule="evenodd"/><path fill="#1F28CF" fill-rule="evenodd" d="M445.556 332.435C472.26 339.243 495.299 342.647 514.674 342.647C534.049 342.647 552.045 337.405 568.663 326.921C542.53 319.934 521.009 316.44 504.1 316.44C487.19 316.44 467.675 321.772 445.556 332.435Z" clip-rule="evenodd"/><path fill="#BA8B72" fill-rule="evenodd" d="M537.791 352.459C537.534 352.107 537.316 351.723 537.144 351.307C533.574 342.703 476.401 249.886 470.705 232.917H535.074C539.405 245.819 558.897 326.786 561.64 342.94C570.295 368.421 588.115 450.946 590.39 456.663C592.784 462.677 579.318 468.942 575.73 461.549C570.02 449.784 556.416 417.231 550.359 397.355C544.681 378.72 540.057 361.956 537.791 352.459Z" clip-rule="evenodd"/><path fill="#D4A181" fill-rule="evenodd" d="M485.128 363.792C458.989 369.813 363.379 380.699 356.817 382.406C350.068 384.162 344.15 371.482 352.493 368.736C365.767 364.365 402.345 354.267 424.522 350.146C442.36 346.831 458.637 344.126 469.565 342.543C468.639 314.564 464.407 247.419 467.181 232.917H524.136C521.476 246.823 498.99 348.293 494.811 358.45C493.485 362.076 489.527 363.678 485.128 363.792Z" clip-rule="evenodd"/><path fill="#E4E4E4" fill-rule="evenodd" d="M352.436 365.323C349.068 364.709 346.607 364.527 345.052 364.779C343.16 365.084 340.463 365.831 336.96 367.019C337.4 369.115 341.351 387.944 348.814 423.508C354.204 424.155 356.77 422.864 356.512 419.636C356.254 416.407 356.068 413.721 355.956 411.576L362.705 383.34C362.835 382.796 362.473 382.243 361.897 382.103C361.887 382.1 361.877 382.098 361.867 382.096L357.225 381.101C355.18 378.405 353.966 376.141 353.582 374.311C353.27 372.823 353.468 370.668 354.176 367.844L354.176 367.844C354.448 366.76 353.736 365.646 352.586 365.355C352.536 365.343 352.486 365.332 352.436 365.323Z" clip-rule="evenodd"/><path fill="#E4E4E4" fill-rule="evenodd" d="M571.644 460.591C570.399 463.621 569.776 465.888 569.776 467.393C569.776 469.222 570.11 471.892 570.779 475.402C573.108 475.402 594.036 475.402 633.563 475.402C635.195 470.486 634.253 467.832 630.738 467.44C627.223 467.048 624.303 466.694 621.977 466.378L592.796 454.521C592.234 454.293 591.576 454.523 591.326 455.034C591.322 455.043 591.318 455.052 591.314 455.061L589.438 459.208C586.184 460.592 583.539 461.284 581.505 461.284C579.852 461.284 577.569 460.675 574.656 459.458L574.657 459.458C573.539 458.991 572.217 459.439 571.705 460.457C571.683 460.501 571.662 460.546 571.644 460.591Z" clip-rule="evenodd"/><path fill="#2B44FF" fill-rule="evenodd" d="M467.365 232.917C492.464 226.372 516.211 226.372 538.607 232.917C546.4 265.32 565.333 278.181 568.663 327.86C530.815 345 484.063 315.636 445.102 332.351C433.971 308.971 449.555 252.665 467.365 232.917Z" clip-rule="evenodd"/><path fill="#D4A181" fill-rule="evenodd" d="M575.342 192.648L619.292 187.184C628.084 182.727 636.172 179.71 643.557 178.132C645.635 178.077 648.941 178.765 644.016 182.507C639.091 186.249 634.094 190.388 634.972 192.385C635.849 194.382 640.429 193.639 641.188 196.711C641.694 198.759 634.261 199.091 618.889 197.709L583.227 210.596L575.342 192.648ZM437.276 201.921L461.652 202.004C434.924 256.826 420.987 285.53 419.842 288.115C417.267 293.934 422.717 302.795 425.048 307.556C417.456 310.653 418.265 299.186 408.688 303.247C399.947 306.953 393.298 313.67 383.198 307.99C381.957 307.292 380.596 304.662 383.884 302.608C392.074 297.489 403.877 288.53 405.471 285.582C407.646 281.56 418.248 253.673 437.276 201.921Z" clip-rule="evenodd"/><path fill="#AFB9C5" fill-rule="evenodd" d="M504.043 131.458L523.128 132.617C527.829 171.375 553.431 195.857 610.752 187.569L618.368 237.481C564.792 243.792 517.806 224.242 508.176 171.309C505.684 157.607 503.715 143.347 504.043 131.458Z" clip-rule="evenodd"/><path fill="#C5CFD6" fill-rule="evenodd" d="M494.627 126.401L523.544 132.438C523.544 177.768 539.387 206.69 547.513 240.019H469.418C468.318 251.535 467.642 263.372 467.29 275.529H408.815C422.066 211.269 450.034 161.555 492.718 126.385H494.612L494.627 126.401Z" clip-rule="evenodd"/><path fill="#000" fill-opacity=".1" fill-rule="evenodd" d="M481.739 175.348C479.726 203.596 480.91 225.152 485.29 240.019H469.418C471.597 217.205 475.442 195.648 481.739 175.348V175.348Z" clip-rule="evenodd"/></svg>