<svg width="890" height="652" viewBox="0 0 890 652" fill="none" xmlns="http://www.w3.org/2000/svg">
<g clip-path="url(#clip0)">
<path d="M783 569.51C783 569.51 664.09 528.188 699.074 485.575C734.058 442.963 783 569.51 783 569.51Z" fill="#E6E6E6" fill-opacity="0.9"/>
<path d="M798.74 582.309C798.74 582.309 850.772 401.661 774.153 410.3C697.534 418.94 798.74 582.309 798.74 582.309Z" fill="#E6E6E6" fill-opacity="0.75"/>
<path d="M826.19 561.67L824.006 591.889L823.971 592.411C823.973 597.13 823.748 601.846 823.295 606.541C820.332 637.364 807.593 651.411 792.704 651.411C777.816 651.411 765.631 637.364 762.668 606.541C762.215 601.846 761.99 597.13 761.992 592.411L761.974 591.99L761.966 591.889L759.773 561.67H826.19Z" fill="#E6E6E6"/>
<path d="M761.966 591.889L761.974 591.99L761.992 592.411C761.99 597.13 762.215 601.846 762.668 606.541H823.295C823.748 601.846 823.974 597.13 823.971 592.411L824.006 591.889H761.966Z" fill="white"/>
<path d="M47.9468 583.323C47.9468 583.323 135.59 540.69 104.801 511.126C74.012 481.562 47.9468 583.323 47.9468 583.323Z" fill="#E6E6E6" fill-opacity="0.75"/>
<path d="M49.4724 593.271C49.4724 593.271 89.7565 453.411 30.4366 460.099C-28.8834 466.788 49.4724 593.271 49.4724 593.271Z" fill="#E6E6E6" fill-opacity="0.9"/>
<path d="M78.8438 580.867L77.1529 604.263L77.1261 604.667C77.1277 608.321 76.9531 611.972 76.6028 615.606C74.3082 639.47 64.4453 650.346 52.9185 650.346C41.3918 650.346 31.9583 639.47 29.6637 615.606C29.3134 611.972 29.1388 608.321 29.1404 604.667L29.1269 604.341L29.1203 604.263L27.4227 580.867H78.8438Z" fill="#E6E6E6"/>
<path d="M29.1203 604.263L29.1269 604.341L29.1404 604.667C29.1388 608.321 29.3135 611.972 29.6637 615.606H76.6029C76.9532 611.972 77.1278 608.321 77.1263 604.667L77.1531 604.263H29.1203Z" fill="white"/>
<path d="M594.947 194.474V153.375H600.995V194.474C602.73 195.215 604.167 196.571 605.059 198.309C605.951 200.047 606.244 202.059 605.886 204C605.529 205.941 604.544 207.691 603.1 208.948C601.656 210.206 599.842 210.894 597.971 210.894C596.1 210.894 594.287 210.206 592.842 208.948C591.398 207.691 590.413 205.941 590.056 204C589.698 202.059 589.991 200.047 590.883 198.309C591.776 196.571 593.212 195.215 594.947 194.474Z" fill="#E6E6E6"/>
<path d="M580.835 609.238H622.163V78.8175H638.29V609.238H679.618C684.515 609.238 689.365 610.258 693.89 612.238C698.415 614.219 702.526 617.121 705.99 620.781C709.453 624.44 712.2 628.785 714.074 633.566C715.948 638.347 716.913 643.472 716.913 648.647V648.647H543.54V648.647C543.54 643.472 544.505 638.347 546.379 633.566C548.253 628.785 551 624.44 554.463 620.781C557.927 617.121 562.038 614.219 566.563 612.238C571.088 610.258 575.938 609.238 580.835 609.238Z" fill="#E6E6E6" fill-opacity="0.85"/>
<path d="M716.829 157.635H543.624L554.215 17.7443C554.603 12.9205 556.684 8.42451 560.05 5.14071C563.417 1.85691 567.824 0.0230602 572.405 -4.57764e-05H688.048C692.629 0.023059 697.036 1.85691 700.403 5.14069C703.769 8.42448 705.851 12.9205 706.238 17.7442L716.829 157.635Z" fill="#F2FADE"/>
<path d="M475.663 403.162C477.293 402.876 478.96 402.934 480.567 403.334C482.175 403.735 483.691 404.468 485.028 405.493C486.366 406.517 487.497 407.812 488.356 409.302C489.216 410.793 489.787 412.449 490.035 414.174L494.912 447.99L478.32 452.64L466.163 421.133C465.457 419.302 465.149 417.327 465.264 415.354C465.378 413.38 465.911 411.46 466.824 409.734C467.736 408.008 469.004 406.521 470.535 405.383C472.065 404.246 473.818 403.486 475.663 403.162Z" fill="#A0616A"/>
<path d="M475.974 447.926C466.766 486.592 470.729 521.957 505.016 549.725C546.141 537.746 573.493 508.845 590.181 466.841C591.219 464.229 591.745 461.423 591.728 458.59C591.71 455.758 591.15 452.959 590.081 450.361C589.011 447.764 587.455 445.423 585.505 443.479C583.556 441.535 581.254 440.028 578.738 439.05C574.958 437.581 570.845 437.364 566.945 438.426C563.045 439.488 559.544 441.78 556.907 444.996L516.556 494.207L497.626 444.585L475.974 447.926Z" fill="#161D20"/>
<path d="M265.264 650.785C302.815 648.677 326.142 635.053 331.791 607.115L325.743 595.399L256.5 628.731C254.752 629.572 253.28 630.944 252.272 632.672C251.263 634.399 250.764 636.405 250.837 638.433C250.91 640.461 251.552 642.421 252.682 644.063C253.811 645.705 255.378 646.954 257.181 647.653L265.264 650.785Z" fill="#E6E6E6"/>
<path d="M294.279 651.064C313.79 650.44 332.553 650.634 350.332 651.905C353.45 652.131 356.527 651.048 358.895 648.891C361.263 646.734 362.73 643.678 362.979 640.386L364.046 626.287L379.166 600.725L366.062 586.878C344.041 610.054 319.89 629.52 291.206 641.092C290.285 641.759 289.592 642.724 289.233 643.842C288.873 644.959 288.866 646.17 289.211 647.293C289.557 648.416 290.238 649.39 291.151 650.07C292.065 650.749 293.162 651.098 294.279 651.064Z" fill="#E6E6E6"/>
<path d="M400.334 550.665C425.248 597.77 449.75 629.525 481.98 646.524C521.634 660.353 550.614 642.031 573.203 604.453L507.684 558.653L498.108 568.772L411.323 498.988C409.203 496.867 406.377 495.716 403.458 495.785C400.539 495.853 397.764 497.136 395.736 499.354L321.711 595.399L330.783 611.376L400.334 550.665Z" fill="#2F2E41"/>
<path d="M378.158 606.051L412.43 550.665L404.366 534.689L359.006 584.748L378.158 606.051Z" fill="#2F2E41"/>
<path d="M575.723 429.243C556.795 429.243 541.451 413.03 541.451 393.03C541.451 373.03 556.795 356.816 575.723 356.816C594.65 356.816 609.994 373.03 609.994 393.03C609.994 413.03 594.65 429.243 575.723 429.243Z" fill="#A0616A"/>
<path d="M566.651 460.131L604.954 446.285C599.286 436.768 596.802 425.517 597.899 414.332H566.651C568.428 430.583 568.694 445.997 566.651 460.131Z" fill="#A0616A"/>
<path d="M485.004 557.056C490.747 559.547 491.167 567.624 496.596 570.369C522.844 583.639 550.613 594.407 569.675 613.506C614.221 581.542 655.509 482.267 601.93 438.829C583.642 450.138 567.305 458.23 567.659 438.829L485.004 557.056Z" fill="#F2FADE" fill-opacity="0.96"/>
<path opacity="0.2" d="M508.188 514.452L526.836 507.528L563.627 537.884L580.12 475.146C581.264 470.795 583.117 473 585.778 476.023C588.553 473.31 592.003 471.491 595.723 470.782C599.443 470.073 603.277 470.502 606.774 472.02C610.271 473.538 613.284 476.08 615.458 479.348C617.632 482.615 618.876 486.472 619.044 490.462C621.006 535.97 608.019 574.47 575.723 603.92C533.481 594.363 515.554 564.206 508.188 525.103L510.185 523.696C509.449 520.674 508.783 517.593 508.188 514.452Z" fill="#161D20"/>
<path d="M571.111 345.392C559.807 348.121 546.94 351.988 546.218 355.582C534.59 358.679 525.812 366.095 524.02 377.403C523.87 378.38 523.925 379.38 524.181 380.332C524.436 381.285 524.887 382.167 525.5 382.915C526.113 383.664 526.874 384.262 527.729 384.666C528.584 385.07 529.513 385.272 530.449 385.256C536.774 385.17 546.267 384.53 552.536 381.763C570.747 394.162 573.804 426.41 565.851 448.361L578.366 447.149L591.313 407.099L594.621 445.575L623.18 441.585L619.501 392.521C618.37 380.957 614.646 369.845 608.637 360.107C608.013 359.129 607.33 358.194 606.593 357.309C602.248 352.122 596.655 348.275 590.408 346.177C584.161 344.079 577.493 343.808 571.111 345.392Z" fill="#2F2E41"/>
<path d="M506.679 466.971L475.314 505.935L428.265 447.263L460.055 406.506L506.679 466.971Z" fill="#3F3D56"/>
<path d="M436.319 448.607L473.618 416.36C471.499 410.985 461.326 412.777 461.326 412.777L432.129 444.054C431.112 445.143 430.24 446.374 429.537 447.711L436.319 448.607Z" fill="#F2F2F2"/>
<path d="M434.623 446.367L477.009 411.433L524.058 486.677L479.764 518.252C475.526 520.044 471.287 516.908 471.287 516.908L428.053 447.039L434.623 446.367Z" fill="#3F3D56"/>
<path d="M471.724 422.337L472.124 422.926L444.995 443.525L444.594 442.936L471.724 422.337Z" fill="#161D20"/>
<path d="M444.235 450.646L479.839 507.527L479.266 507.927L443.662 451.046L444.235 450.646Z" fill="#161D20"/>
<path d="M512.407 486.828L512.814 487.412L483.998 509.815L483.591 509.231L512.407 486.828Z" fill="#161D20"/>
<path d="M476.867 423.318L513.743 479.303L513.18 479.718L476.304 423.733L476.867 423.318Z" fill="#161D20"/>
<path d="M465.477 412.332L465.763 412.662L432.223 445.189L431.937 444.859L465.477 412.332Z" fill="#B3B3B3"/>
<path d="M468.271 412.611L468.551 412.947L433.498 445.647L433.217 445.311L468.271 412.611Z" fill="#B3B3B3"/>
<path d="M470.464 413.263L470.735 413.607L434.346 445.658L434.075 445.314L470.464 413.263Z" fill="#B3B3B3"/>
<path d="M489.749 478.409C491.104 477.413 492.634 476.71 494.249 476.344C495.864 475.977 497.531 475.953 499.155 476.273C500.779 476.593 502.326 477.251 503.707 478.208C505.088 479.165 506.276 480.403 507.2 481.849L525.324 510.191L512.22 521.907L488.455 498.949C487.075 497.615 485.996 495.969 485.298 494.135C484.601 492.3 484.304 490.323 484.428 488.35C484.552 486.378 485.095 484.46 486.016 482.739C486.937 481.018 488.213 479.538 489.749 478.409Z" fill="#A0616A"/>
<path d="M508.188 521.712C515.554 560.816 533.481 590.973 575.723 600.53C608.019 571.08 621.006 532.579 619.044 487.071C618.922 484.242 618.259 481.468 617.094 478.917C615.93 476.366 614.288 474.09 612.268 472.228C610.248 470.366 607.892 468.956 605.342 468.082C602.792 467.209 600.101 466.89 597.432 467.146C593.421 467.531 589.616 469.198 586.524 471.924C583.431 474.65 581.198 478.306 580.12 482.406L563.627 545.144L526.395 508.886L508.188 521.712Z" fill="#F2FADE" fill-opacity="0.55"/>
<path d="M425.029 97.4642C425.564 97.4647 426.076 97.6893 426.454 98.0887C426.832 98.4881 427.045 99.0296 427.045 99.5944V265.75C427.045 266.315 426.832 266.857 426.454 267.256C426.076 267.655 425.564 267.88 425.029 267.88H293.991C293.457 267.88 292.945 267.655 292.567 267.256C292.189 266.856 291.976 266.315 291.976 265.75V99.5944C291.976 99.0296 292.189 98.4881 292.567 98.0888C292.945 97.6894 293.457 97.4648 293.991 97.4642H425.029Z" fill="#E6E6E6"/>
<path d="M411.422 251.371H307.599V113.973H411.422V251.371Z" fill="white"/>
<path d="M206.869 141.133C207.188 141.134 207.494 141.268 207.719 141.506C207.945 141.745 208.072 142.068 208.072 142.405V225.07C208.072 225.407 207.945 225.73 207.719 225.969C207.494 226.207 207.188 226.341 206.869 226.341H112.991C112.672 226.341 112.366 226.207 112.14 225.969C111.914 225.73 111.788 225.407 111.787 225.07V142.405C111.788 142.068 111.914 141.745 112.14 141.506C112.366 141.268 112.672 141.134 112.991 141.133L206.869 141.133Z" fill="#E6E6E6"/>
<path d="M198.745 150.99V216.485H121.115V150.99H198.745Z" fill="white"/>
<path d="M341.179 109.18H377.842C378.728 109.184 379.599 108.94 380.368 108.474C381.136 108.007 381.774 107.334 382.217 106.524C382.66 105.713 382.892 104.793 382.89 103.856C382.889 102.92 382.653 102.001 382.207 101.192L363.875 67.6413C363.86 67.6138 363.845 67.5862 363.829 67.5586C363.429 66.845 362.874 66.2416 362.211 65.7977C361.547 65.3537 360.794 65.0818 360.012 65.0041L359.986 65.0014C359.829 64.9864 359.67 64.9786 359.51 64.9786C358.625 64.973 357.753 65.2167 356.986 65.6847C356.219 66.1527 355.584 66.828 355.146 67.6413L336.814 101.192C336.372 102.002 336.139 102.92 336.139 103.855C336.139 104.79 336.372 105.708 336.814 106.517C337.257 107.327 337.893 107.999 338.659 108.467C339.425 108.934 340.294 109.18 341.179 109.18ZM378.854 103.85C378.852 104.039 378.805 104.224 378.715 104.387C378.628 104.551 378.501 104.686 378.348 104.78C378.194 104.873 378.019 104.922 377.842 104.92H341.179C341.001 104.922 340.827 104.874 340.673 104.78C340.52 104.686 340.393 104.551 340.306 104.387C340.216 104.224 340.169 104.039 340.167 103.85C340.168 103.664 340.216 103.482 340.306 103.323L358.637 69.7715C358.726 69.6096 358.853 69.4751 359.006 69.3817C359.16 69.2882 359.334 69.239 359.51 69.239C359.687 69.239 359.861 69.2882 360.015 69.3817C360.168 69.4751 360.295 69.6096 360.384 69.7715L378.715 103.322C378.805 103.482 378.853 103.664 378.854 103.85Z" fill="#E6E6E6"/>
<path d="M359.51 75.097C357.84 75.097 356.487 73.6664 356.487 71.9017C356.487 70.137 357.84 68.7064 359.51 68.7064C361.181 68.7064 362.534 70.137 362.534 71.9017C362.534 73.6664 361.181 75.097 359.51 75.097Z" fill="#E6E6E6"/>
<path d="M149.991 143.796H169.869C170.349 143.798 170.821 143.666 171.238 143.413C171.654 143.16 172 142.795 172.241 142.356C172.481 141.916 172.607 141.417 172.606 140.91C172.605 140.402 172.477 139.904 172.235 139.465L162.296 121.275L162.271 121.23C162.054 120.843 161.754 120.516 161.394 120.275C161.034 120.035 160.626 119.887 160.202 119.845L160.188 119.844C160.103 119.836 160.017 119.831 159.93 119.831C159.45 119.828 158.977 119.96 158.561 120.214C158.146 120.468 157.801 120.834 157.564 121.275L147.625 139.465C147.385 139.904 147.259 140.402 147.259 140.909C147.259 141.416 147.385 141.913 147.625 142.352C147.865 142.791 148.21 143.156 148.625 143.409C149.04 143.663 149.511 143.796 149.991 143.796ZM170.417 140.906C170.417 141.008 170.391 141.109 170.342 141.198C170.295 141.286 170.226 141.359 170.143 141.41C170.06 141.461 169.965 141.487 169.869 141.486H149.991C149.895 141.487 149.8 141.461 149.717 141.41C149.634 141.36 149.565 141.286 149.518 141.198C149.469 141.109 149.443 141.009 149.442 140.906C149.443 140.806 149.469 140.707 149.518 140.62L159.456 122.43C159.504 122.342 159.573 122.269 159.657 122.218C159.74 122.168 159.834 122.141 159.93 122.141C160.026 122.141 160.12 122.168 160.203 122.218C160.286 122.269 160.355 122.342 160.403 122.43L170.342 140.62C170.391 140.707 170.417 140.805 170.417 140.906Z" fill="#E6E6E6"/>
<path d="M159.93 125.317C159.024 125.317 158.29 124.542 158.29 123.585C158.29 122.628 159.024 121.852 159.93 121.852C160.835 121.852 161.569 122.628 161.569 123.585C161.569 124.542 160.835 125.317 159.93 125.317Z" fill="#E6E6E6"/>
<path d="M410.234 199.055C408.785 195.54 406.674 192.375 404.029 189.751C401.384 187.127 398.261 185.101 394.85 183.795C391.303 182.348 387.502 181.728 383.708 181.977C379.913 182.227 376.214 183.34 372.864 185.24C364.998 189.651 358.71 196.587 350.721 200.808C342.953 204.875 334.406 207.002 325.737 207.028C315.922 207.108 306.26 204.458 297.722 199.344C297.39 199.122 297.153 198.773 297.06 198.371C296.967 197.968 297.025 197.543 297.223 197.185C297.421 196.827 297.743 196.564 298.121 196.452C298.499 196.34 298.903 196.388 299.248 196.585C306.987 201.167 315.678 203.655 324.547 203.827C333.417 203.999 342.189 201.849 350.081 197.57C358.096 193.13 364.446 185.96 372.61 181.799C376.076 180.022 379.842 178.989 383.688 178.761C387.535 178.533 391.386 179.114 395.018 180.47C399.056 181.902 402.761 184.223 405.887 187.28C409.012 190.337 411.488 194.061 413.15 198.205C413.884 200.109 410.96 200.937 410.234 199.055V199.055Z" fill="#E6E6E6"/>
<path d="M412.623 228.923C395.842 224.964 378.434 225.028 361.679 229.109C346.795 232.757 331.43 239.319 316.084 234.425C309.228 232.238 302.945 227.865 299.423 221.136C298.48 219.335 301.091 217.721 302.034 219.523C308.666 232.194 324.202 234.332 336.473 232.253C344.672 230.864 352.574 228.078 360.645 226.085C377.995 221.787 396.042 221.703 413.427 225.842C415.325 226.29 414.522 229.371 412.623 228.923Z" fill="#E6E6E6"/>
<path d="M413.713 157.499C397.623 154.607 381.142 155.226 365.287 159.319C350.475 163.154 335.996 171.915 320.334 170.402C313.083 169.701 305.904 166.883 300.978 161.022C299.69 159.489 301.821 157.221 303.116 158.762C307.366 163.819 313.486 166.44 319.767 167.148C327.006 167.964 334.119 166.379 341.009 164.127C348.636 161.635 356.045 158.477 363.799 156.417C380.387 152.016 397.664 151.335 414.517 154.418C416.431 154.763 415.619 157.843 413.713 157.499Z" fill="#E6E6E6"/>
<path d="M185.226 149.91C178.274 157.433 173.479 166.882 171.395 177.163C169.792 185.342 169.973 193.799 171.923 201.894C173.873 209.988 177.542 217.507 182.651 223.88C183.904 225.438 181.775 227.709 180.513 226.139C173.553 217.474 169.108 206.869 167.713 195.599C166.697 186.9 167.551 178.07 170.214 169.768C172.876 161.466 177.276 153.906 183.088 147.651C184.453 146.18 186.59 148.44 185.226 149.91Z" fill="#E6E6E6"/>
<path d="M139.856 143.092C149.124 150.274 154.312 161.867 155.042 173.858C155.802 186.334 151.299 198.383 144.047 208.069C139.817 213.647 134.763 218.467 129.08 222.345C127.447 223.475 125.93 220.709 127.554 219.586C136.812 213.186 144.734 204.093 148.941 193.182C150.992 187.999 152.055 182.439 152.07 176.821C152.085 171.204 151.051 165.638 149.029 160.443C146.763 154.654 143.068 149.615 138.33 145.851C136.777 144.647 138.284 141.873 139.856 143.092Z" fill="#E6E6E6"/>
<path d="M352.455 175.217C344.661 175.217 338.343 168.541 338.343 160.305C338.343 152.07 344.661 145.394 352.455 145.394C360.248 145.394 366.566 152.07 366.566 160.305C366.566 168.541 360.248 175.217 352.455 175.217Z" fill="#E6E6E6"/>
</g>
<defs>
<clipPath id="clip0">
<rect width="890" height="652" fill="white" transform="matrix(-1 0 0 1 890 0)"/>
</clipPath>
</defs>
</svg>
