<svg width="305" height="235" viewBox="0 0 305 235" fill="none" xmlns="http://www.w3.org/2000/svg">
<g clip-path="url(#clip0)">
<path d="M156.515 234C155.526 234 154.527 233.985 153.546 233.955L153.569 233.26C154.977 233.302 156.414 233.314 157.829 233.295L157.839 233.991C157.398 233.997 156.957 234 156.515 234ZM162.128 233.839L162.087 233.144C163.497 233.063 164.925 232.949 166.332 232.805L166.407 233.497C164.989 233.642 163.55 233.757 162.128 233.839V233.839ZM149.261 233.73C147.838 233.624 146.401 233.485 144.989 233.315L145.076 232.625C146.478 232.793 147.904 232.931 149.315 233.036L149.261 233.73ZM170.664 232.965L170.557 232.277C171.958 232.07 173.37 231.829 174.753 231.561L174.892 232.243C173.498 232.513 172.076 232.756 170.664 232.965ZM140.742 232.711C139.337 232.478 137.919 232.211 136.527 231.916L136.678 231.236C138.06 231.529 139.467 231.794 140.861 232.024L140.742 232.711ZM179.082 231.332L178.91 230.657C180.286 230.325 181.669 229.958 183.022 229.567L183.224 230.234C181.861 230.628 180.468 230.998 179.082 231.332ZM132.355 230.933C130.976 230.576 129.59 230.182 128.233 229.763L128.447 229.1C129.794 229.516 131.17 229.906 132.538 230.261L132.355 230.933ZM187.31 228.95L187.076 228.293C188.411 227.84 189.753 227.35 191.067 226.837L191.332 227.483C190.008 228 188.655 228.494 187.31 228.95L187.31 228.95ZM124.16 228.405C122.821 227.925 121.475 227.407 120.157 226.865L120.434 226.224C121.741 226.761 123.078 227.275 124.406 227.752L124.16 228.405ZM195.27 225.841L194.975 225.208C196.257 224.64 197.545 224.033 198.805 223.405L199.129 224.024C197.86 224.657 196.562 225.269 195.27 225.841ZM116.233 225.148C114.946 224.549 113.655 223.913 112.395 223.256L112.731 222.642C113.982 223.294 115.263 223.926 116.54 224.52L116.233 225.148ZM202.899 222.036L202.546 221.432C203.775 220.747 205.002 220.028 206.192 219.293L206.573 219.88C205.374 220.621 204.138 221.347 202.899 222.036ZM108.651 221.195C107.428 220.484 106.202 219.735 105.009 218.968L105.402 218.387C106.586 219.148 107.802 219.892 109.016 220.597L108.651 221.195ZM210.144 217.563L209.736 216.993C210.893 216.203 212.048 215.377 213.169 214.536L213.603 215.088C212.474 215.935 211.31 216.768 210.144 217.563ZM101.477 216.583C100.326 215.767 99.1763 214.913 98.0597 214.042L98.5046 213.499C99.6127 214.362 100.754 215.21 101.895 216.02L101.477 216.583ZM216.944 212.462L216.485 211.93C217.564 211.041 218.637 210.115 219.677 209.178L220.16 209.688C219.114 210.633 218.032 211.566 216.944 212.462ZM94.7657 211.353C93.6939 210.437 92.6292 209.485 91.6011 208.521L92.0948 208.019C93.1152 208.975 94.1718 209.921 95.2353 210.83L94.7657 211.353ZM223.245 206.774L222.737 206.286C223.732 205.302 224.715 204.284 225.661 203.261L226.191 203.726C225.238 204.758 224.247 205.783 223.245 206.774V206.774ZM88.5727 205.553C87.5894 204.544 86.6183 203.501 85.6864 202.453L86.2249 201.997C87.1497 203.037 88.1133 204.072 89.0893 205.073L88.5727 205.553ZM228.991 200.55L228.44 200.108C229.339 199.041 230.224 197.94 231.071 196.835L231.642 197.251C230.788 198.365 229.897 199.475 228.991 200.55ZM82.9481 199.229C82.0651 198.14 81.1956 197.016 80.3637 195.887L80.9423 195.481C81.7679 196.6 82.6308 197.716 83.5072 198.797L82.9481 199.229ZM234.135 193.837L233.545 193.447C234.34 192.304 235.119 191.128 235.86 189.951L236.467 190.315C235.721 191.501 234.936 192.686 234.135 193.837ZM77.939 192.435C77.1621 191.273 76.4018 190.077 75.6789 188.88L76.293 188.527C77.0105 189.715 77.7651 190.902 78.536 192.055L77.939 192.435ZM238.632 186.691L238.008 186.355C238.693 185.146 239.358 183.905 239.985 182.665L240.624 182.973C239.992 184.222 239.322 185.473 238.632 186.691ZM73.5882 185.228C72.9232 184.002 72.2785 182.743 71.6719 181.488L72.3166 181.191C72.9187 182.437 73.5584 183.686 74.2183 184.903L73.5882 185.228ZM242.44 179.169L241.787 178.89C242.355 177.623 242.9 176.327 243.408 175.036L244.074 175.285C243.562 176.586 243.012 177.893 242.44 179.169V179.169ZM69.9338 177.668C69.3872 176.387 68.8638 175.078 68.3781 173.774L69.0483 173.537C69.5301 174.83 70.0495 176.13 70.5917 177.4L69.9338 177.668ZM245.523 171.33L244.846 171.111C245.291 169.803 245.711 168.466 246.094 167.136L246.78 167.324C246.394 168.664 245.971 170.012 245.523 171.33L245.523 171.33ZM67.0048 169.805C66.5806 168.479 66.1819 167.125 65.8201 165.779L66.5097 165.602C66.8688 166.938 67.2644 168.282 67.6853 169.598L67.0048 169.805ZM247.846 163.266L247.152 163.109C247.471 161.768 247.763 160.398 248.02 159.039L248.721 159.165C248.462 160.535 248.168 161.915 247.847 163.266L247.846 163.266ZM64.8271 161.703C64.5298 160.344 64.2607 158.959 64.0275 157.587L64.7307 157.473C64.9624 158.835 65.2294 160.209 65.5245 161.557L64.8271 161.703ZM249.4 155.029L248.693 154.934C248.885 153.572 249.047 152.182 249.175 150.804L249.885 150.866C249.756 152.255 249.593 153.655 249.4 155.029L249.4 155.029ZM63.4221 153.44C63.2539 152.063 63.1159 150.66 63.0116 149.271L63.7229 149.22C63.8261 150.599 63.9633 151.991 64.1302 153.358L63.4221 153.44ZM250.175 146.687L249.463 146.656C249.527 145.277 249.559 143.879 249.559 142.5H250.272C250.272 143.89 250.24 145.299 250.176 146.687L250.175 146.687ZM62.7956 145.087C62.7713 144.233 62.7589 143.363 62.7587 142.5C62.7587 141.965 62.7634 141.43 62.7728 140.897L63.4858 140.909C63.4764 141.438 63.4717 141.969 63.4717 142.5C63.4719 143.357 63.4842 144.22 63.5083 145.068L62.7956 145.087ZM249.554 141.529C249.539 140.15 249.492 138.751 249.413 137.373L250.125 137.334C250.204 138.723 250.252 140.132 250.267 141.522L249.554 141.529ZM63.655 136.755L62.9435 136.711C63.0324 135.321 63.1553 133.917 63.3083 132.538L64.0171 132.613C63.8651 133.981 63.7435 135.375 63.655 136.755ZM249.08 133.229C248.938 131.857 248.76 130.469 248.554 129.103L249.259 129.002C249.467 130.378 249.646 131.776 249.789 133.159L249.08 133.229ZM64.5722 128.491L63.8676 128.385C64.086 127.008 64.3398 125.621 64.622 124.261L65.3207 124.399C65.0408 125.748 64.7889 127.125 64.5722 128.491ZM247.834 125.007C247.562 123.649 247.255 122.283 246.922 120.946L247.615 120.781C247.951 122.129 248.26 123.505 248.534 124.873L247.834 125.007ZM66.261 120.344L65.5694 120.175C65.9156 118.827 66.2991 117.468 66.7092 116.136L67.3919 116.336C66.9851 117.658 66.6046 119.007 66.261 120.344ZM245.819 116.93C245.421 115.605 244.987 114.272 244.528 112.968L245.202 112.742C245.665 114.056 246.103 115.399 246.503 116.734L245.819 116.93ZM68.7154 112.372L68.0428 112.142C68.5166 110.826 69.0282 109.505 69.5633 108.213L70.2244 108.474C69.6933 109.755 69.1855 111.067 68.7154 112.372H68.7154ZM243.05 109.069C242.53 107.788 241.973 106.503 241.395 105.249L242.045 104.963C242.628 106.227 243.189 107.522 243.713 108.812L243.05 109.069ZM71.9154 104.65L71.2675 104.359C71.863 103.094 72.4968 101.824 73.1513 100.587L73.7849 100.906C73.1352 102.134 72.5063 103.394 71.9154 104.65ZM239.561 101.506C238.923 100.278 238.247 99.0467 237.551 97.8479L238.172 97.5051C238.873 98.7133 239.554 99.9535 240.197 101.191L239.561 101.506ZM75.8286 97.2513L75.2106 96.9041C75.9219 95.6988 76.6719 94.4923 77.4401 93.3185L78.041 93.6929C77.2787 94.8579 76.5343 96.0552 75.8286 97.2513H75.8286ZM235.372 94.2819C234.619 93.1114 233.83 91.9454 233.027 90.816L233.613 90.4195C234.422 91.5575 235.217 92.7324 235.976 93.9119L235.372 94.2819ZM80.4177 90.2379L79.8349 89.837C80.6568 88.6993 81.5162 87.5654 82.3897 86.4666L82.953 86.893C82.0863 87.9836 81.2332 89.1089 80.4177 90.2379ZM230.522 87.4574C229.663 86.3591 228.768 85.2673 227.862 84.2124L228.409 83.7654C229.322 84.8285 230.223 85.9285 231.089 87.035L230.522 87.4574ZM85.6414 83.6655L85.0987 83.2143C86.0211 82.157 86.9824 81.1046 87.956 80.0864L88.4772 80.561C87.5111 81.5716 86.557 82.6162 85.6414 83.6655ZM225.053 81.0882C224.096 80.0708 223.102 79.0624 222.101 78.0913L222.604 77.5977C223.613 78.5763 224.613 79.5922 225.578 80.6172L225.053 81.0882ZM91.4539 77.5868L90.9553 77.0894C91.9748 76.116 93.0299 75.1537 94.0908 74.2292L94.5656 74.7483C93.5127 75.6657 92.4657 76.6207 91.4539 77.5868H91.4539ZM219.012 75.2281C217.962 74.299 216.879 73.3827 215.791 72.5046L216.246 71.9685C217.341 72.8532 218.433 73.7765 219.491 74.7127L219.012 75.2281ZM97.8059 72.051L97.3558 71.5115C98.4585 70.6351 99.5981 69.7707 100.743 68.9424L101.168 69.5013C100.031 70.3235 98.9003 71.1812 97.8059 72.051ZM212.446 69.9264C211.314 69.0941 210.148 68.2775 208.983 67.4993L209.385 66.9251C210.56 67.7091 211.734 68.5318 212.875 69.3705L212.446 69.9264ZM104.644 67.1047L104.246 66.5275C105.426 65.7525 106.641 64.9936 107.858 64.2715L108.228 64.8661C107.021 65.5826 105.815 66.3358 104.644 67.1047ZM205.409 65.2291C204.204 64.5013 202.967 63.7919 201.732 63.1202L202.078 62.5124C203.323 63.1892 204.57 63.9042 205.784 64.6372L205.409 65.2291ZM111.912 62.7902L111.57 62.1796C112.819 61.5129 114.099 60.866 115.375 60.2566L115.688 60.8818C114.422 61.4864 113.151 62.1283 111.912 62.7902L111.912 62.7902ZM197.958 61.178C196.689 60.5612 195.39 59.9653 194.095 59.4069L194.384 58.7705C195.688 59.3332 196.998 59.9337 198.276 60.5553L197.958 61.178ZM119.549 59.1448L119.265 58.5064C120.57 57.9544 121.905 57.4251 123.232 56.933L123.486 57.5836C122.168 58.0718 120.844 58.5971 119.549 59.1448L119.549 59.1448ZM190.152 57.8107C188.832 57.3111 187.481 56.8344 186.136 56.3941L186.363 55.7343C187.718 56.1782 189.079 56.6584 190.41 57.1621L190.152 57.8107ZM127.502 56.1976L127.279 55.5364C128.634 55.1029 130.017 54.6947 131.388 54.3235L131.579 54.9938C130.218 55.3623 128.846 55.7672 127.502 56.1976L127.502 56.1976ZM182.067 55.163C180.707 54.7847 179.32 54.4324 177.945 54.1159L178.108 53.4388C179.495 53.7576 180.892 54.1127 182.263 54.4937L182.067 55.163ZM135.709 53.9747L135.55 53.2964C136.939 52.9867 138.354 52.7045 139.755 52.4579L139.882 53.1425C138.491 53.3874 137.087 53.6674 135.709 53.9747V53.9747ZM173.777 53.2556C172.389 53.0013 170.975 52.7751 169.574 52.5831L169.673 51.8941C171.084 52.0876 172.51 52.3155 173.909 52.5717L173.777 53.2556ZM144.09 52.4985L143.996 51.8088C145.407 51.625 146.843 51.4704 148.262 51.3498L148.324 52.0429C146.916 52.1628 145.491 52.316 144.09 52.4985L144.09 52.4985ZM165.343 52.0993C163.939 51.9702 162.509 51.8706 161.094 51.8039L161.129 51.1087C162.554 51.1762 163.995 51.2764 165.41 51.4065L165.343 52.0993ZM152.576 51.776L152.546 51.0809C153.856 51.0275 155.191 51.0003 156.515 51L156.838 51.0005L156.836 51.6963L156.515 51.6958C155.202 51.6961 153.876 51.7232 152.576 51.776V51.776Z" fill="#1F1F1F" fill-opacity="0.48"/>
<path d="M156.442 231.904V183.562C156.443 182.885 156.768 182.236 157.346 181.757C157.924 181.278 158.708 181.008 159.525 181.008H166.525C167.342 181.008 168.126 181.278 168.704 181.757C169.282 182.236 169.607 182.885 169.608 183.562V231.904C169.607 232.581 169.282 233.23 168.704 233.709C168.126 234.188 167.342 234.457 166.525 234.458H159.525C158.708 234.457 157.924 234.188 157.346 233.709C156.768 233.23 156.443 232.581 156.442 231.904Z" fill="#F2FADE" fill-opacity="0.5"/>
<path d="M142.598 231.904V183.562C142.598 182.885 142.924 182.236 143.501 181.757C144.079 181.278 144.863 181.008 145.68 181.008H152.68C153.497 181.008 154.281 181.278 154.859 181.757C155.437 182.236 155.762 182.885 155.763 183.562V231.904C155.762 232.581 155.437 233.23 154.859 233.709C154.281 234.188 153.497 234.457 152.68 234.458H145.68C144.863 234.457 144.079 234.188 143.501 233.709C142.924 233.23 142.598 232.581 142.598 231.904Z" fill="#F2FADE" fill-opacity="0.5"/>
<path d="M170.273 167.602H141.932C140.36 167.602 139.086 168.658 139.086 169.96V196.488C139.086 197.791 140.36 198.846 141.932 198.846H170.273C171.845 198.846 173.119 197.791 173.119 196.488V169.96C173.119 168.658 171.845 167.602 170.273 167.602Z" fill="#2F2E41"/>
<path d="M108.456 91.6522C108.456 91.6522 94.1531 97.1579 82.0495 100.809C74.5386 86.7599 63.7179 87.2857 63.7179 87.2857L57.1578 91.0286L58.3408 96.6425L58.0181 105.821L56.2974 110.633L58.7666 111.003L60.1615 111.212L60.3717 111.055C60.0237 112.198 59.8828 113.377 59.9539 114.554L122.007 106.534C122.007 106.534 119.856 98.2466 108.456 91.6522Z" fill="#E6E6E6"/>
<path d="M90.1325 163.913L94.2929 168.577C95.227 169.625 97.0087 169.846 98.2726 169.072L145.19 140.34C146.454 139.566 146.722 138.09 145.788 137.042L141.627 132.378C140.693 131.331 138.911 131.109 137.647 131.883L90.7297 160.615C89.4658 161.389 89.1985 162.866 90.1325 163.913Z" fill="#3F3D56" fill-opacity="0.84"/>
<path d="M170.079 130.793L163.896 133.512C162.507 134.123 161.979 135.55 162.716 136.7L190.064 179.402C190.801 180.552 192.523 180.99 193.911 180.379L200.095 177.66C201.483 177.05 202.011 175.623 201.274 174.472L173.926 131.771C173.189 130.621 171.467 130.183 170.079 130.793Z" fill="#3F3D56"/>
<path d="M187.412 149.745L177.314 155.292C175.771 155.97 173.923 155.588 173.186 154.438L162.034 137.024C161.297 135.874 161.951 134.392 163.494 133.713L170.367 130.691C171.91 130.012 173.759 130.394 174.495 131.545L188.873 146.433C189.609 147.584 188.955 149.066 187.412 149.745Z" fill="#CCCCCC"/>
<path d="M118.597 144.644L125.161 151.866C125.677 152.322 126.391 152.59 127.145 152.609C127.9 152.629 128.633 152.4 129.183 151.972L146.53 138.481C147.08 138.053 147.402 137.461 147.426 136.836C147.45 136.211 147.173 135.604 146.657 135.148L141.866 130.919C141.35 130.463 140.636 130.195 139.882 130.176C139.127 130.156 138.394 130.385 137.844 130.813L118.724 141.311C118.174 141.739 117.852 142.331 117.828 142.956C117.804 143.581 118.081 144.188 118.597 144.644Z" fill="#CCCCCC"/>
<path d="M172.005 130.099H140.2C138.629 130.099 137.355 131.154 137.355 132.456V188.446C137.355 189.748 138.629 190.804 140.2 190.804H172.005C173.577 190.804 174.851 189.748 174.851 188.446V132.456C174.851 131.154 173.577 130.099 172.005 130.099Z" fill="#CCCCCC"/>
<path d="M155.917 126.445C169.935 126.445 181.299 117.028 181.299 105.413C181.299 93.7973 169.935 84.3811 155.917 84.3811C141.899 84.3811 130.535 93.7973 130.535 105.413C130.535 117.028 141.899 126.445 155.917 126.445Z" fill="#F2FADE" fill-opacity="0.93"/>
<path d="M158.875 112.435C157.307 112.399 155.355 112.353 153.853 111.444C153.405 111.162 153.038 110.802 152.775 110.39C152.513 109.977 152.363 109.523 152.335 109.057C152.308 108.726 152.374 108.395 152.527 108.089C152.68 107.783 152.916 107.51 153.218 107.292C154.002 106.742 155.149 106.613 156.385 106.914L155.105 99.1621L156.045 99.0554L157.549 108.169L156.765 107.871C155.855 107.524 154.606 107.349 153.83 107.892C153.64 108.034 153.491 108.211 153.396 108.408C153.302 108.605 153.263 108.818 153.284 109.03C153.306 109.376 153.419 109.714 153.614 110.021C153.809 110.328 154.081 110.597 154.413 110.809C155.581 111.517 157.137 111.608 158.902 111.649L158.875 112.435Z" fill="black"/>
<path d="M150.457 99.8306H145.349V100.617H150.457V99.8306Z" fill="black"/>
<path d="M166.582 99.8306H161.474V100.617H166.582V99.8306Z" fill="black"/>
<path d="M139.149 88.9775C135.035 88.5888 131.849 85.3228 131.499 82.0089C131.083 78.0665 133.854 74.3221 137.655 72.1098C141.63 69.7963 146.583 68.8301 151.375 68.6175C160.724 68.232 169.911 70.7412 177.15 75.6571C180.741 78.1283 184.095 81.2762 185.366 85.0785C186.47 88.3806 185.571 92.1215 182.366 94.4342C181.573 95.0009 180.647 95.4253 179.647 95.6807C178.646 95.936 177.592 96.0166 176.552 95.9175C174.065 95.7036 171.77 94.62 169.784 93.4234C165.92 91.0956 162.748 87.8528 158.041 86.6364C154.59 85.7445 150.111 86.5296 148.001 89.1159C147.523 89.7079 147.213 90.3823 147.094 91.0881C147.051 91.2386 147.078 91.3973 147.17 91.5319C147.262 91.6665 147.413 91.7671 147.591 91.8132C147.773 91.8538 147.967 91.8333 148.131 91.7563C148.295 91.6792 148.415 91.5517 148.466 91.4015C149.02 88.144 153.854 86.9284 157.246 87.6724C162.192 88.757 165.512 92.4141 169.57 94.7375C171.703 95.9591 174.13 96.9358 176.746 97.1111C179.002 97.2577 181.241 96.6879 183.008 95.5171C186.475 93.2489 187.801 89.3476 187.034 85.8352C186.146 81.7677 182.842 78.2817 179.217 75.5827C171.868 70.169 162.327 67.2485 152.496 67.4032C147.481 67.4986 142.249 68.3564 137.929 70.5526C133.738 72.6829 130.499 76.2468 130.076 80.3895C129.703 84.0359 132.064 87.8499 136.117 89.4474C137.073 89.8225 138.098 90.0621 139.149 90.1565C140.057 90.2423 140.05 89.0626 139.149 88.9775H139.149Z" fill="#F2FADE" fill-opacity="0.77"/>
<path d="M60.1152 110.499L63.1264 109.697C63.449 109.185 62.8586 109.514 63.1404 109.016C70.7588 95.5481 63.7179 87.2856 63.7179 87.2856L58.2711 90.3932C58.2577 90.3677 58.2467 90.3412 58.2331 90.3155C58.2332 90.3155 57.2653 88.5333 55.7597 89.87C55.7597 89.87 60.4916 99.405 55.2219 111.257L61.3519 113.574L63.7179 111.257L63.7716 111.034L59.5374 110.715L60.1152 110.499Z" fill="#CCCCCC"/>
<path d="M145.989 160.536C121.791 156.08 99.2611 165.303 99.2611 165.303L99.1998 165.258L90.2274 158.62L55.1682 111.212L63.7179 111.257C87.485 99.4942 120.931 101.098 120.931 101.098C135.342 114.643 145.989 160.536 145.989 160.536Z" fill="#4B4962"/>
<path opacity="0.1" d="M99.1998 165.258L90.2274 158.62L55.1682 111.212L63.7179 111.257C63.7179 111.257 97.7942 148.549 99.1998 165.258Z" fill="black"/>
<path d="M103.138 128.268C110.463 126.406 115.243 121.769 113.815 117.911C112.387 114.053 105.291 112.434 97.9657 114.296C90.6406 116.158 85.8602 120.795 87.2884 124.653C88.7165 128.511 95.8125 130.13 103.138 128.268Z" fill="white" fill-opacity="0.95"/>
<path d="M28.2411 88.2264C26.3091 94.1443 19.6914 97.8094 19.6914 97.8094C19.6914 97.8094 16.2062 91.8797 18.1382 85.9617C20.0702 80.0438 26.6879 76.3787 26.6879 76.3787C26.6879 76.3787 30.1732 82.3084 28.2411 88.2264Z" fill="#CCCCCC"/>
<path d="M10.6649 88.2264C12.5969 94.1443 19.2146 97.8094 19.2146 97.8094C19.2146 97.8094 22.6998 91.8797 20.7678 85.9617C18.8358 80.0438 12.2181 76.3787 12.2181 76.3787C12.2181 76.3787 8.73282 82.3084 10.6649 88.2264Z" fill="#CCCCCC"/>
<path d="M13.5039 86.9545C18.8055 91.2308 19.453 97.8046 19.453 97.8046C19.453 97.8046 11.505 97.445 6.20345 93.1686C0.901876 88.8923 0.254333 82.3185 0.254333 82.3185C0.254333 82.3185 8.20232 82.6782 13.5039 86.9545Z" fill="#3F3D56"/>
<path d="M25.4021 86.9545C20.1006 91.2308 19.453 97.8046 19.453 97.8046C19.453 97.8046 27.401 97.445 32.7026 93.1686C38.0041 88.8923 38.6517 82.3185 38.6517 82.3185C38.6517 82.3185 30.7037 82.6782 25.4021 86.9545Z" fill="#4B4962"/>
<path d="M294.301 155.032C292.369 160.95 285.751 164.615 285.751 164.615C285.751 164.615 282.266 158.686 284.198 152.768C286.13 146.85 292.747 143.185 292.747 143.185C292.747 143.185 296.233 149.114 294.301 155.032Z" fill="#CCCCCC"/>
<path d="M276.724 155.032C278.656 160.95 285.274 164.615 285.274 164.615C285.274 164.615 288.759 158.686 286.827 152.768C284.895 146.85 278.278 143.185 278.278 143.185C278.278 143.185 274.792 149.114 276.724 155.032Z" fill="#CCCCCC"/>
<path d="M279.563 153.761C284.865 158.037 285.513 164.611 285.513 164.611C285.513 164.611 277.565 164.251 272.263 159.975C266.961 155.698 266.314 149.125 266.314 149.125C266.314 149.125 274.262 149.484 279.563 153.761Z" fill="#3F3D56"/>
<path d="M291.462 153.761C286.16 158.037 285.513 164.611 285.513 164.611C285.513 164.611 293.461 164.251 298.762 159.975C304.064 155.698 304.711 149.125 304.711 149.125C304.711 149.125 296.763 149.484 291.462 153.761Z" fill="#4B4962"/>
<path d="M211.756 234.214H101.728V235H211.756V234.214Z" fill="#3F3D56"/>
</g>
<defs>
<clipPath id="clip0">
<rect width="304.457" height="235" fill="white" transform="translate(0.254333)"/>
</clipPath>
</defs>
</svg>
