<svg width="305" height="213" viewBox="0 0 305 213" fill="none" xmlns="http://www.w3.org/2000/svg">
<g clip-path="url(#clip0)">
<path d="M156.523 212C155.535 212 154.538 211.985 153.559 211.955L153.581 211.26C154.987 211.302 156.422 211.314 157.834 211.295L157.844 211.991C157.404 211.997 156.964 212 156.523 212ZM162.127 211.839L162.085 211.144C163.494 211.063 164.92 210.949 166.324 210.805L166.399 211.497C164.983 211.642 163.546 211.757 162.127 211.839V211.839ZM149.28 211.73C147.86 211.624 146.425 211.485 145.015 211.315L145.102 210.625C146.501 210.793 147.925 210.931 149.334 211.036L149.28 211.73ZM170.649 210.965L170.543 210.277C171.942 210.07 173.351 209.829 174.732 209.561L174.87 210.243C173.479 210.513 172.059 210.756 170.649 210.965ZM140.774 210.711C139.372 210.478 137.956 210.211 136.566 209.916L136.717 209.236C138.096 209.529 139.501 209.794 140.893 210.024L140.774 210.711ZM179.054 209.332L178.883 208.657C180.256 208.325 181.637 207.958 182.988 207.567L183.19 208.234C181.829 208.628 180.438 208.998 179.054 209.332ZM132.4 208.933C131.024 208.576 129.639 208.182 128.285 207.763L128.499 207.1C129.844 207.516 131.218 207.906 132.583 208.261L132.4 208.933ZM187.27 206.95L187.036 206.293C188.369 205.84 189.709 205.35 191.02 204.837L191.285 205.483C189.963 206 188.613 206.494 187.27 206.95L187.27 206.95ZM124.218 206.405C122.882 205.925 121.537 205.407 120.222 204.865L120.498 204.224C121.803 204.761 123.138 205.275 124.464 205.752L124.218 206.405ZM195.217 203.841L194.922 203.208C196.202 202.64 197.489 202.033 198.746 201.405L199.07 202.024C197.803 202.657 196.507 203.269 195.217 203.841ZM116.304 203.148C115.019 202.549 113.73 201.913 112.472 201.256L112.807 200.642C114.056 201.294 115.335 201.926 116.61 202.52L116.304 203.148ZM202.834 200.036L202.481 199.432C203.708 198.747 204.934 198.028 206.122 197.293L206.502 197.88C205.305 198.621 204.071 199.347 202.834 200.036ZM108.734 199.195C107.512 198.484 106.289 197.735 105.098 196.968L105.49 196.387C106.671 197.148 107.886 197.892 109.098 198.597L108.734 199.195ZM210.067 195.563L209.66 194.993C210.816 194.203 211.969 193.377 213.088 192.536L213.522 193.088C212.394 193.935 211.232 194.768 210.067 195.563ZM101.571 194.583C100.422 193.767 99.2739 192.913 98.159 192.042L98.6032 191.499C99.7096 192.362 100.849 193.21 101.989 194.02L101.571 194.583ZM216.857 190.462L216.398 189.93C217.476 189.041 218.548 188.115 219.585 187.178L220.068 187.688C219.023 188.633 217.943 189.566 216.857 190.462ZM94.8701 189.353C93.8001 188.437 92.737 187.485 91.7105 186.521L92.2034 186.019C93.2222 186.975 94.2771 187.921 95.339 188.83L94.8701 189.353ZM223.148 184.774L222.641 184.286C223.634 183.302 224.616 182.284 225.56 181.261L226.089 181.726C225.138 182.758 224.148 183.783 223.148 184.774V184.774ZM88.6869 183.553C87.7051 182.544 86.7355 181.501 85.805 180.453L86.3427 179.997C87.2661 181.037 88.2282 182.072 89.2027 183.073L88.6869 183.553ZM228.885 178.55L228.335 178.108C229.232 177.041 230.116 175.94 230.961 174.835L231.531 175.251C230.679 176.365 229.789 177.475 228.885 178.55ZM83.071 177.229C82.1894 176.14 81.3213 175.016 80.4907 173.887L81.0684 173.481C81.8927 174.6 82.7542 175.716 83.6293 176.797L83.071 177.229ZM234.021 171.837L233.432 171.447C234.226 170.304 235.003 169.128 235.743 167.951L236.35 168.315C235.604 169.501 234.821 170.686 234.021 171.837ZM78.0698 170.435C77.2941 169.273 76.535 168.077 75.8132 166.88L76.4264 166.527C77.1427 167.715 77.8962 168.902 78.6659 170.055L78.0698 170.435ZM238.511 164.691L237.888 164.355C238.571 163.146 239.235 161.905 239.862 160.665L240.5 160.973C239.869 162.222 239.2 163.473 238.511 164.691ZM73.7258 163.228C73.0619 162.002 72.4182 160.743 71.8125 159.488L72.4562 159.191C73.0574 160.437 73.6961 161.686 74.3549 162.903L73.7258 163.228ZM242.313 157.169L241.66 156.89C242.228 155.623 242.772 154.327 243.28 153.036L243.944 153.285C243.433 154.586 242.884 155.893 242.313 157.169V157.169ZM70.0771 155.668C69.5314 154.387 69.0088 153.078 68.5239 151.774L69.193 151.537C69.6741 152.83 70.1927 154.13 70.7341 155.4L70.0771 155.668ZM245.391 149.33L244.715 149.111C245.159 147.803 245.578 146.466 245.961 145.136L246.646 145.324C246.261 146.664 245.838 148.012 245.391 149.33L245.391 149.33ZM67.1527 147.805C66.7292 146.479 66.3312 145.125 65.9699 143.779L66.6584 143.602C67.017 144.938 67.412 146.282 67.8322 147.598L67.1527 147.805ZM247.711 141.266L247.018 141.109C247.336 139.768 247.628 138.398 247.884 137.039L248.584 137.165C248.326 138.535 248.032 139.915 247.711 141.266L247.711 141.266ZM64.9785 139.703C64.6817 138.344 64.413 136.959 64.1801 135.587L64.8822 135.473C65.1135 136.835 65.3801 138.209 65.6747 139.557L64.9785 139.703ZM249.262 133.029L248.557 132.934C248.748 131.572 248.91 130.182 249.037 128.804L249.746 128.866C249.618 130.255 249.455 131.655 249.262 133.029L249.262 133.029ZM63.5756 131.44C63.4078 130.063 63.2699 128.66 63.1658 127.271L63.876 127.22C63.979 128.599 64.116 129.991 64.2826 131.358L63.5756 131.44ZM250.036 124.687L249.325 124.656C249.388 123.277 249.421 121.879 249.421 120.5H250.133C250.133 121.89 250.1 123.299 250.036 124.687L250.036 124.687ZM62.9502 123.087C62.9258 122.233 62.9135 121.363 62.9133 120.5C62.9133 119.965 62.918 119.43 62.9274 118.897L63.6393 118.909C63.6299 119.438 63.6252 119.969 63.6252 120.5C63.6254 121.357 63.6377 122.22 63.6617 123.068L62.9502 123.087ZM249.415 119.529C249.401 118.15 249.354 116.751 249.275 115.373L249.986 115.334C250.065 116.723 250.112 118.132 250.127 119.522L249.415 119.529ZM63.8082 114.755L63.0978 114.711C63.1866 113.321 63.3093 111.917 63.462 110.538L64.1697 110.613C64.018 111.981 63.8965 113.375 63.8082 114.755ZM248.942 111.229C248.8 109.857 248.623 108.469 248.417 107.103L249.121 107.002C249.329 108.378 249.507 109.776 249.651 111.159L248.942 111.229ZM64.7239 106.491L64.0204 106.385C64.2385 105.008 64.4919 103.621 64.7737 102.261L65.4713 102.399C65.1918 103.748 64.9403 105.125 64.7239 106.491ZM247.698 103.007C247.427 101.649 247.121 100.283 246.788 98.9456L247.479 98.7812C247.815 100.129 248.124 101.505 248.397 102.873L247.698 103.007ZM66.4101 98.3441L65.7196 98.1749C66.0653 96.8273 66.4482 95.4684 66.8576 94.1359L67.5393 94.336C67.1331 95.6583 66.7532 97.0068 66.4101 98.3441ZM245.687 94.9299C245.29 93.605 244.856 92.2723 244.397 90.9683L245.07 90.7421C245.533 92.0561 245.97 93.3993 246.37 94.7342L245.687 94.9299ZM68.8606 90.3723L68.1891 90.1416C68.6622 88.8262 69.1729 87.5045 69.7072 86.2133L70.3673 86.4742C69.837 87.7555 69.33 89.0671 68.8606 90.3723H68.8606ZM242.922 87.069C242.403 85.7885 241.847 84.5033 241.269 83.2491L241.918 82.9634C242.501 84.2273 243.061 85.5223 243.584 86.8125L242.922 87.069ZM72.0556 82.6496L71.4088 82.3591C72.0033 81.0935 72.6361 79.8244 73.2896 78.587L73.9222 78.906C73.2736 80.1341 72.6457 81.3935 72.0556 82.6496ZM239.438 79.506C238.801 78.2777 238.126 77.0467 237.432 75.8479L238.051 75.5051C238.751 76.7133 239.431 77.9535 240.073 79.1914L239.438 79.506ZM75.9627 75.2513L75.3457 74.9041C76.0558 73.6988 76.8047 72.4923 77.5717 71.3185L78.1716 71.6929C77.4106 72.8579 76.6673 74.0552 75.9627 75.2513H75.9627ZM235.256 72.2819C234.504 71.1114 233.716 69.9454 232.915 68.816L233.5 68.4195C234.307 69.5575 235.101 70.7324 235.859 71.9119L235.256 72.2819ZM80.5446 68.2379L79.9627 67.837C80.7834 66.6993 81.6414 65.5654 82.5135 64.4666L83.0759 64.893C82.2106 65.9836 81.3588 67.1089 80.5446 68.2379ZM230.414 65.4574C229.556 64.3591 228.663 63.2673 227.758 62.2124L228.304 61.7654C229.215 62.8285 230.115 63.9285 230.98 65.035L230.414 65.4574ZM85.7602 61.6655L85.2183 61.2143C86.1392 60.157 87.0991 59.1046 88.0711 58.0864L88.5914 58.561C87.6269 59.5716 86.6743 60.6162 85.7602 61.6655ZM224.954 59.0882C223.997 58.0708 223.005 57.0624 222.006 56.0913L222.508 55.5977C223.515 56.5763 224.514 57.5922 225.478 58.6172L224.954 59.0882ZM91.5635 55.5868L91.0657 55.0894C92.0836 54.116 93.137 53.1537 94.1963 52.2292L94.6704 52.7483C93.6191 53.6657 92.5738 54.6207 91.5635 55.5868H91.5635ZM218.922 53.2281C217.874 52.299 216.792 51.3827 215.706 50.5046L216.16 49.9685C217.254 50.8532 218.344 51.7765 219.4 52.7127L218.922 53.2281ZM97.9056 50.051L97.4561 49.5115C98.5571 48.6351 99.695 47.7707 100.838 46.9424L101.262 47.5013C100.128 48.3235 98.9982 49.1812 97.9056 50.051ZM212.366 47.9264C211.235 47.0941 210.072 46.2775 208.908 45.4993L209.31 44.9251C210.483 45.7091 211.655 46.5318 212.794 47.3705L212.366 47.9264ZM104.733 45.1047L104.336 44.5275C105.514 43.7525 106.727 42.9936 107.941 42.2715L108.311 42.8661C107.106 43.5826 105.903 44.3358 104.733 45.1047ZM205.34 43.2291C204.137 42.5013 202.902 41.7919 201.668 41.1202L202.015 40.5124C203.258 41.1892 204.502 41.9042 205.715 42.6372L205.34 43.2291ZM111.99 40.7902L111.648 40.1796C112.895 39.5129 114.173 38.866 115.447 38.2566L115.76 38.8818C114.495 39.4864 113.227 40.1283 111.99 40.7902L111.99 40.7902ZM197.901 39.178C196.634 38.5612 195.336 37.9653 194.044 37.4069L194.332 36.7705C195.634 37.3332 196.942 37.9337 198.218 38.5553L197.901 39.178ZM119.614 37.1448L119.331 36.5064C120.634 35.9544 121.967 35.4251 123.292 34.933L123.545 35.5836C122.23 36.0718 120.907 36.5971 119.614 37.1448L119.614 37.1448ZM190.107 35.8107C188.789 35.3111 187.44 34.8344 186.097 34.3941L186.324 33.7343C187.677 34.1782 189.036 34.6584 190.364 35.1621L190.107 35.8107ZM127.555 34.1976L127.333 33.5364C128.686 33.1029 130.066 32.6947 131.435 32.3235L131.625 32.9938C130.267 33.3623 128.897 33.7672 127.555 34.1976L127.555 34.1976ZM182.035 33.163C180.677 32.7847 179.292 32.4324 177.919 32.1159L178.082 31.4388C179.466 31.7576 180.861 32.1127 182.23 32.4937L182.035 33.163ZM135.749 31.9747L135.59 31.2964C136.977 30.9867 138.39 30.7045 139.789 30.4579L139.916 31.1425C138.527 31.3874 137.125 31.6674 135.749 31.9747V31.9747ZM173.758 31.2556C172.372 31.0013 170.96 30.7751 169.561 30.5831L169.66 29.8941C171.069 30.0876 172.492 30.3155 173.889 30.5717L173.758 31.2556ZM144.118 30.4985L144.023 29.8088C145.433 29.625 146.866 29.4704 148.283 29.3498L148.345 30.0429C146.938 30.1628 145.516 30.316 144.118 30.4985L144.118 30.4985ZM165.337 30.0993C163.935 29.9702 162.507 29.8706 161.094 29.8039L161.129 29.1087C162.553 29.1762 163.991 29.2764 165.404 29.4065L165.337 30.0993ZM152.589 29.776L152.559 29.0809C153.868 29.0275 155.201 29.0003 156.523 29L156.845 29.0005L156.843 29.6963L156.523 29.6958C155.211 29.6961 153.888 29.7232 152.589 29.776V29.776Z" fill="#1F1F1F" fill-opacity="0.48"/>
<path d="M156.45 209.904V161.562C156.451 160.885 156.776 160.236 157.353 159.757C157.93 159.278 158.712 159.008 159.528 159.008H166.517C167.333 159.008 168.115 159.278 168.692 159.757C169.269 160.236 169.594 160.885 169.595 161.562V209.904C169.594 210.581 169.269 211.23 168.692 211.709C168.115 212.188 167.333 212.457 166.517 212.458H159.528C158.712 212.457 157.93 212.188 157.353 211.709C156.776 211.23 156.451 210.581 156.45 209.904Z" fill="#2F2E41"/>
<path d="M142.627 209.904V161.562C142.628 160.885 142.952 160.236 143.529 159.757C144.106 159.278 144.889 159.008 145.705 159.008H152.694C153.51 159.008 154.292 159.278 154.869 159.757C155.446 160.236 155.771 160.885 155.772 161.562V209.904C155.771 210.581 155.446 211.23 154.869 211.709C154.292 212.188 153.51 212.457 152.694 212.458H145.705C144.889 212.457 144.106 212.188 143.529 211.709C142.952 211.23 142.628 210.581 142.627 209.904Z" fill="#2F2E41"/>
<path d="M170.259 145.602H141.962C140.393 145.602 139.121 146.658 139.121 147.96V174.488C139.121 175.791 140.393 176.846 141.962 176.846H170.259C171.829 176.846 173.101 175.791 173.101 174.488V147.96C173.101 146.658 171.829 145.602 170.259 145.602Z" fill="#2F2E41"/>
<path d="M108.539 69.6522C108.539 69.6522 94.2585 75.1579 82.1738 78.8092C74.6747 64.7599 63.871 65.2857 63.871 65.2857L57.3212 69.0286L58.5023 74.6425L58.1802 83.821L56.4622 88.6331L58.9275 89.0028L60.3201 89.2124L60.5301 89.0548C60.1826 90.1976 60.042 91.3769 60.1129 92.554L122.068 84.5341C122.068 84.5341 119.921 76.2466 108.539 69.6522Z" fill="#E6E6E6"/>
<path d="M90.2442 141.913L94.3981 146.577C95.3307 147.625 97.1096 147.846 98.3715 147.072L145.216 118.34C146.478 117.566 146.745 116.09 145.812 115.042L141.658 110.378C140.725 109.331 138.947 109.109 137.685 109.883L90.8404 138.615C89.5785 139.389 89.3116 140.866 90.2442 141.913Z" fill="#3F3D56" fill-opacity="0.84"/>
<path d="M170.065 108.793L163.892 111.512C162.506 112.123 161.978 113.55 162.714 114.7L190.019 157.402C190.755 158.552 192.474 158.99 193.86 158.379L200.034 155.66C201.42 155.05 201.947 153.623 201.212 152.472L173.907 109.771C173.171 108.621 171.451 108.183 170.065 108.793Z" fill="#3F3D56"/>
<path d="M187.372 127.745L177.289 133.292C175.748 133.97 173.903 133.588 173.168 132.438L162.033 115.024C161.297 113.874 161.95 112.392 163.491 111.713L170.353 108.691C171.894 108.012 173.739 108.394 174.475 109.545L188.829 124.433C189.565 125.584 188.912 127.066 187.372 127.745Z" fill="#CCCCCC"/>
<path d="M118.664 122.644L125.217 129.866C125.733 130.322 126.446 130.59 127.199 130.609C127.952 130.629 128.684 130.4 129.233 129.972L146.553 116.481C147.102 116.053 147.424 115.461 147.448 114.836C147.472 114.211 147.196 113.604 146.68 113.148L141.897 108.919C141.381 108.463 140.668 108.195 139.915 108.176C139.162 108.156 138.43 108.385 137.881 108.813L118.791 119.311C118.242 119.739 117.92 120.331 117.896 120.956C117.872 121.581 118.149 122.188 118.664 122.644Z" fill="#CCCCCC"/>
<path d="M171.988 108.099H140.233C138.664 108.099 137.392 109.154 137.392 110.456V166.446C137.392 167.748 138.664 168.804 140.233 168.804H171.988C173.557 168.804 174.829 167.748 174.829 166.446V110.456C174.829 109.154 173.557 108.099 171.988 108.099Z" fill="#CCCCCC"/>
<path d="M155.925 104.445C169.921 104.445 181.267 95.0284 181.267 83.4129C181.267 71.7973 169.921 62.3811 155.925 62.3811C141.929 62.3811 130.583 71.7973 130.583 83.4129C130.583 95.0284 141.929 104.445 155.925 104.445Z" fill="#3F3D56" fill-opacity="0.96"/>
<path d="M158.879 90.4351C157.313 90.3986 155.365 90.3533 153.865 89.4438C153.418 89.1618 153.051 88.802 152.789 88.3897C152.527 87.9774 152.377 87.5226 152.35 87.0572C152.323 86.7265 152.388 86.395 152.541 86.0888C152.694 85.7825 152.93 85.5098 153.231 85.2918C154.014 84.7423 155.159 84.6126 156.393 84.9142L155.115 77.1621L156.053 77.0554L157.555 86.1687L156.772 85.8705C155.864 85.5244 154.617 85.3486 153.842 85.892C153.652 86.0341 153.504 86.2106 153.409 86.4078C153.314 86.6051 153.276 86.8179 153.296 87.0295C153.319 87.3759 153.432 87.7142 153.626 88.0213C153.821 88.3283 154.093 88.597 154.424 88.809C155.59 89.5167 157.144 89.6084 158.906 89.6491L158.879 90.4351Z" fill="white"/>
<path d="M150.475 77.8306H145.374V78.6166H150.475V77.8306Z" fill="white"/>
<path d="M166.574 77.8306H161.474V78.6166H166.574V77.8306Z" fill="white"/>
<path d="M139.184 66.9775C135.076 66.5888 131.895 63.3228 131.546 60.0089C131.13 56.0665 133.897 52.3221 137.692 50.1098C141.661 47.7963 146.606 46.8301 151.391 46.6175C160.725 46.232 169.898 48.7412 177.126 53.6571C180.711 56.1283 184.059 59.2762 185.328 63.0785C186.43 66.3806 185.534 70.1215 182.333 72.4342C181.542 73.0009 180.617 73.4253 179.618 73.6807C178.619 73.936 177.567 74.0166 176.528 73.9175C174.045 73.7036 171.754 72.62 169.771 71.4234C165.913 69.0956 162.746 65.8528 158.046 64.6364C154.6 63.7445 150.128 64.5296 148.022 67.1159C147.544 67.7079 147.235 68.3823 147.117 69.0881C147.073 69.2386 147.1 69.3973 147.192 69.5319C147.284 69.6665 147.435 69.7671 147.613 69.8132C147.794 69.8538 147.988 69.8333 148.151 69.7563C148.315 69.6792 148.435 69.5517 148.486 69.4015C149.039 66.144 153.866 64.9284 157.252 65.6724C162.191 66.757 165.505 70.4141 169.557 72.7375C171.687 73.9591 174.11 74.9358 176.722 75.1111C178.975 75.2577 181.21 74.6879 182.974 73.5171C186.436 71.2489 187.759 67.3476 186.994 63.8352C186.108 59.7677 182.809 56.2817 179.189 53.5827C171.852 48.169 162.326 45.2485 152.51 45.4032C147.503 45.4986 142.279 46.3564 137.965 48.5526C133.782 50.6829 130.548 54.2468 130.125 58.3895C129.753 62.0359 132.11 65.8499 136.157 67.4474C137.111 67.8225 138.134 68.0621 139.184 68.1565C140.091 68.2423 140.083 67.0626 139.184 66.9775H139.184Z" fill="#2F2E41" fill-opacity="0.77"/>
<path d="M60.274 88.4995L63.2805 87.6974C63.6027 87.1851 63.0132 87.5138 63.2945 87.0156C70.9009 73.5481 63.8711 65.2856 63.8711 65.2856L58.4328 68.3932C58.4195 68.3677 58.4085 68.3412 58.3949 68.3155C58.395 68.3155 57.4286 66.5333 55.9253 67.87C55.9253 67.87 60.6498 77.405 55.3884 89.2569L61.5088 91.5738L63.8711 89.2569L63.9248 89.0341L59.6971 88.7152L60.274 88.4995Z" fill="#CCCCCC"/>
<path d="M146.013 138.536C121.854 134.08 99.3585 143.303 99.3585 143.303L99.2973 143.258L90.339 136.62L55.3347 89.2124L63.871 89.2569C87.6009 77.4942 120.995 79.0982 120.995 79.0982C135.383 92.6432 146.013 138.536 146.013 138.536Z" fill="#3F3D56"/>
<path opacity="0.1" d="M99.2973 143.258L90.339 136.62L55.3347 89.2124L63.871 89.257C63.871 89.257 97.8939 126.549 99.2973 143.258Z" fill="black"/>
<path d="M103.229 106.268C110.542 104.406 115.315 99.7694 113.889 95.9112C112.464 92.0529 105.379 90.4344 98.0651 92.2961C90.7515 94.1578 85.9786 98.7947 87.4045 102.653C88.8304 106.511 95.9153 108.13 103.229 106.268Z" fill="white" fill-opacity="0.95"/>
<path d="M28.4499 66.2264C26.5209 72.1443 19.9136 75.8094 19.9136 75.8094C19.9136 75.8094 16.4338 69.8797 18.3628 63.9617C20.2918 58.0438 26.8991 54.3787 26.8991 54.3787C26.8991 54.3787 30.3789 60.3084 28.4499 66.2264Z" fill="#CCCCCC"/>
<path d="M10.9011 66.2264C12.8302 72.1443 19.4375 75.8094 19.4375 75.8094C19.4375 75.8094 22.9172 69.8797 20.9882 63.9617C19.0592 58.0438 12.4519 54.3787 12.4519 54.3787C12.4519 54.3787 8.97212 60.3084 10.9011 66.2264Z" fill="#CCCCCC"/>
<path d="M13.7357 64.9545C19.029 69.2308 19.6755 75.8046 19.6755 75.8046C19.6755 75.8046 11.74 75.445 6.44674 71.1686C1.15349 66.8923 0.506958 60.3185 0.506958 60.3185C0.506958 60.3185 8.44248 60.6782 13.7357 64.9545Z" fill="#3F3D56"/>
<path d="M25.6153 64.9545C20.3221 69.2308 19.6755 75.8046 19.6755 75.8046C19.6755 75.8046 27.6111 75.445 32.9043 71.1686C38.1976 66.8923 38.8441 60.3185 38.8441 60.3185C38.8441 60.3185 30.9086 60.6782 25.6153 64.9545Z" fill="#3F3D56"/>
<path d="M294.092 133.032C292.163 138.95 285.556 142.615 285.556 142.615C285.556 142.615 282.076 136.686 284.005 130.768C285.934 124.85 292.541 121.185 292.541 121.185C292.541 121.185 296.021 127.114 294.092 133.032Z" fill="#CCCCCC"/>
<path d="M276.544 133.032C278.473 138.95 285.08 142.615 285.08 142.615C285.08 142.615 288.56 136.686 286.631 130.768C284.702 124.85 278.094 121.185 278.094 121.185C278.094 121.185 274.615 127.114 276.544 133.032Z" fill="#CCCCCC"/>
<path d="M279.378 131.761C284.671 136.037 285.318 142.611 285.318 142.611C285.318 142.611 277.382 142.251 272.089 137.975C266.796 133.698 266.149 127.125 266.149 127.125C266.149 127.125 274.085 127.484 279.378 131.761Z" fill="#3F3D56"/>
<path d="M291.258 131.761C285.964 136.037 285.318 142.611 285.318 142.611C285.318 142.611 293.253 142.251 298.547 137.975C303.84 133.698 304.486 127.125 304.486 127.125C304.486 127.125 296.551 127.484 291.258 131.761Z" fill="#3F3D56"/>
<path d="M211.677 212.214H101.822V213H211.677V212.214Z" fill="#3F3D56"/>
</g>
<defs>
<clipPath id="clip0">
<rect width="303.98" height="235" fill="white" transform="translate(0.506958 -22)"/>
</clipPath>
</defs>
</svg>
