<svg width="24" height="24" viewBox="0 0 24 24" fill="none" xmlns="http://www.w3.org/2000/svg">
<path fill-rule="evenodd" clip-rule="evenodd" d="M14.001 5.00048C13.7357 5.00048 13.4814 5.10584 13.2939 5.29338C13.1063 5.48091 13.001 5.73527 13.001 6.00048C13.001 6.2657 13.1063 6.52005 13.2939 6.70759C13.4814 6.89513 13.7357 7.00048 14.001 7.00048C14.2662 7.00048 14.5205 6.89513 14.7081 6.70759C14.8956 6.52005 15.001 6.2657 15.001 6.00048C15.001 5.73527 14.8956 5.48091 14.7081 5.29338C14.5205 5.10584 14.2662 5.00048 14.001 5.00048ZM11.001 6.00048C11.0009 5.35009 11.2123 4.71731 11.6032 4.19747C11.9941 3.67764 12.5433 3.29891 13.1681 3.11835C13.7929 2.93779 14.4595 2.96518 15.0674 3.19639C15.6753 3.4276 16.1916 3.8501 16.5386 4.40025C16.8855 4.95039 17.0442 5.59838 16.9908 6.24658C16.9375 6.89478 16.6749 7.50808 16.2427 7.99409C15.8105 8.48009 15.232 8.81246 14.5945 8.94113C13.9569 9.0698 13.2948 8.9878 12.708 8.70748L10.708 10.7075C10.896 11.0985 11.001 11.5375 11.001 12.0005C11.001 12.4635 10.896 12.9025 10.708 13.2935L12.708 15.2935C13.3466 14.9885 14.0724 14.919 14.7573 15.0974C15.4421 15.2758 16.0418 15.6906 16.4504 16.2684C16.859 16.8462 17.0502 17.5499 16.9902 18.2551C16.9301 18.9602 16.6227 19.6214 16.1223 20.1218C15.6219 20.6223 14.9607 20.9297 14.2555 20.9897C13.5504 21.0497 12.8467 20.8586 12.2689 20.45C11.6911 20.0414 11.2763 19.4416 11.0979 18.7568C10.9195 18.0719 10.9889 17.3461 11.294 16.7075L9.29396 14.7075C8.83667 14.9257 8.33155 15.0246 7.82572 14.9948C7.3199 14.9651 6.82986 14.8077 6.4013 14.5373C5.97274 14.267 5.61964 13.8925 5.37494 13.4488C5.13023 13.0051 5.00189 12.5067 5.00189 12C5.00189 11.4933 5.13023 10.9948 5.37494 10.5512C5.61964 10.1075 5.97274 9.73298 6.4013 9.46264C6.82986 9.1923 7.3199 9.03491 7.82572 9.00516C8.33155 8.97541 8.83667 9.07425 9.29396 9.29248L11.294 7.29348C11.1008 6.88984 11.0006 6.44798 11.001 6.00048ZM8.00096 11.0005C7.73575 11.0005 7.48139 11.1058 7.29386 11.2934C7.10632 11.4809 7.00096 11.7353 7.00096 12.0005C7.00096 12.2657 7.10632 12.5201 7.29386 12.7076C7.48139 12.8951 7.73575 13.0005 8.00096 13.0005C8.26618 13.0005 8.52053 12.8951 8.70807 12.7076C8.8956 12.5201 9.00096 12.2657 9.00096 12.0005C9.00096 11.7353 8.8956 11.4809 8.70807 11.2934C8.52053 11.1058 8.26618 11.0005 8.00096 11.0005ZM14.001 17.0005C13.8696 17.0002 13.7395 17.0259 13.6181 17.0762C13.4968 17.1265 13.3866 17.2004 13.294 17.2935C13.1304 17.4571 13.0286 17.6724 13.006 17.9026C12.9833 18.1329 13.0412 18.3638 13.1698 18.5562C13.2984 18.7485 13.4896 18.8904 13.7111 18.9575C13.9325 19.0246 14.1703 19.0129 14.384 18.9243C14.5978 18.8357 14.7742 18.6758 14.8832 18.4717C14.9922 18.2677 15.0271 18.0321 14.9819 17.8052C14.9367 17.5783 14.8143 17.3741 14.6354 17.2273C14.4565 17.0806 14.2323 17.0004 14.001 17.0005Z" fill="black"/>
</svg>
