<svg width="24" height="24" viewBox="0 0 24 24" fill="none" xmlns="http://www.w3.org/2000/svg">
<path fill-rule="evenodd" clip-rule="evenodd" d="M14.849 5.658C14.3922 5.65781 13.941 5.75905 13.528 5.95442C13.115 6.14978 12.7506 6.4344 12.461 6.78772C12.1714 7.14104 11.9639 7.55425 11.8534 7.99752C11.7429 8.4408 11.7321 8.90308 11.822 9.351C11.8529 9.5062 11.8466 9.66652 11.8035 9.81879C11.7604 9.97107 11.6818 10.1109 11.5741 10.2269C11.4665 10.3429 11.3328 10.4316 11.1841 10.4859C11.0355 10.5402 10.8761 10.5584 10.719 10.539C8.56873 10.2749 6.54172 9.39095 4.885 7.995C4.916 8.597 5.125 9.237 5.578 9.907L6.257 10.911L5.142 11.386L4.927 11.478C5.087 11.661 5.279 11.848 5.494 12.033C5.78141 12.279 6.08547 12.5049 6.404 12.709L6.415 12.716H6.416L7.964 13.655L6.344 14.465C6.264 14.505 6.184 14.541 6.104 14.573C6.45234 14.8624 6.83609 15.1064 7.246 15.299L8.636 15.956L7.472 16.96C6.837 17.508 6.198 17.917 5.369 18.133C6.64044 18.8102 8.05944 19.163 9.5 19.16C14.306 19.16 18.176 15.325 18.176 10.626V10.106L18.601 9.807C19.265 9.341 19.734 8.711 20.07 7.99H17.91L17.638 7.42C17.3875 6.89267 16.9926 6.4472 16.4991 6.13531C16.0056 5.82342 15.4338 5.65791 14.85 5.658H14.849ZM3.569 12.958C3.47463 13.0661 3.40463 13.1932 3.36373 13.3307C3.32284 13.4682 3.31202 13.6129 3.332 13.755C3.445 14.556 3.924 15.246 4.454 15.773C4.598 15.916 4.752 16.053 4.914 16.184L4.839 16.204C4.358 16.324 3.709 16.349 2.628 16.244C2.42386 16.224 2.2185 16.2672 2.03975 16.3678C1.86101 16.4685 1.71754 16.6216 1.62879 16.8065C1.54004 16.9915 1.5103 17.1992 1.54361 17.4016C1.57692 17.604 1.67166 17.7913 1.815 17.938C2.81577 18.9609 4.01129 19.773 5.33102 20.3264C6.65075 20.8798 8.06795 21.1632 9.499 21.16C15.212 21.16 19.898 16.724 20.163 11.126C21.453 10.043 22.098 8.576 22.446 7.243C22.4847 7.09505 22.4889 6.9402 22.4584 6.79035C22.4279 6.64051 22.3634 6.49966 22.2699 6.37864C22.1764 6.25762 22.0564 6.15966 21.9191 6.09229C21.7818 6.02491 21.6309 5.98992 21.478 5.99H19.125C18.5494 5.09632 17.7083 4.40544 16.7199 4.01443C15.7314 3.62342 14.6453 3.55195 13.6141 3.81004C12.583 4.06814 11.6586 4.64284 10.9709 5.45338C10.2832 6.26392 9.8667 7.26956 9.78 8.329C7.93666 7.84915 6.28733 6.8098 5.059 5.354C4.95022 5.22538 4.81071 5.12633 4.65342 5.06603C4.49613 5.00573 4.32615 4.98615 4.15927 5.00909C3.99239 5.03203 3.83401 5.09676 3.69882 5.19726C3.56364 5.29777 3.45604 5.4308 3.386 5.584C2.78 6.906 2.664 8.43 3.34 9.98L3.106 10.08C2.88207 10.1754 2.70064 10.3492 2.5957 10.5689C2.49077 10.7885 2.46954 11.0388 2.536 11.273C2.722 11.925 3.14 12.501 3.568 12.958H3.569Z" fill="black"/>
</svg>
