<svg width="24" height="24" viewBox="0 0 24 24" fill="none" xmlns="http://www.w3.org/2000/svg">
<path fill-rule="evenodd" clip-rule="evenodd" d="M3.49999 12.0004C3.49999 10.3193 3.99851 8.6759 4.9325 7.27808C5.86649 5.88026 7.19401 4.7908 8.74718 4.14745C10.3004 3.50411 12.0094 3.33578 13.6583 3.66375C15.3071 3.99173 16.8217 4.80127 18.0104 5.99002C19.1991 7.17877 20.0087 8.69332 20.3367 10.3422C20.6646 11.991 20.4963 13.7001 19.853 15.2532C19.2096 16.8064 18.1202 18.1339 16.7223 19.0679C15.3245 20.0019 13.6811 20.5004 12 20.5004C10.3918 20.5033 8.81622 20.0475 7.45799 19.1864C7.33717 19.11 7.20137 19.0604 7.05975 19.0409C6.91812 19.0214 6.77396 19.0325 6.63699 19.0734L3.75699 19.9324L4.84199 17.3954C4.90506 17.2477 4.93162 17.087 4.91944 16.9269C4.90725 16.7667 4.85668 16.6119 4.77199 16.4754C3.93792 15.132 3.49724 13.5817 3.49999 12.0004ZM12 1.50043C6.20099 1.50043 1.49999 6.20143 1.49999 12.0004C1.49999 13.8384 1.97299 15.5684 2.80499 17.0734L1.07999 21.1074C1.00533 21.2822 0.982004 21.4746 1.01275 21.6621C1.04349 21.8496 1.12702 22.0245 1.25357 22.1663C1.38011 22.308 1.54443 22.4108 1.72728 22.4625C1.91012 22.5143 2.10392 22.5129 2.28599 22.4584L6.78599 21.1164C8.37302 22.0259 10.1709 22.5031 12 22.5004C17.799 22.5004 22.5 17.7994 22.5 12.0004C22.5 6.20143 17.799 1.50043 12 1.50043ZM14.293 14.1824L12.978 15.1084C12.2535 14.6916 11.5882 14.1793 11 13.5854C10.3685 12.9548 9.82253 12.2441 9.37599 11.4714L10.211 10.7624C10.385 10.6148 10.5033 10.4121 10.5462 10.188C10.5891 9.96393 10.5541 9.73189 10.447 9.53043L9.38299 7.53043C9.31218 7.3976 9.21231 7.28247 9.09081 7.19363C8.96931 7.10478 8.82932 7.04451 8.68128 7.01731C8.53324 6.9901 8.38097 6.99667 8.23582 7.03651C8.09067 7.07636 7.95639 7.14845 7.84299 7.24743L7.52699 7.52243C6.76799 8.18443 6.31899 9.27243 6.69099 10.3744C7.2895 12.1175 8.2799 13.7001 9.58599 15.0004C11.399 16.8134 13.241 17.5274 14.319 17.8054C15.187 18.0284 16.008 17.7294 16.587 17.2574L17.178 16.7754C17.3026 16.6738 17.4009 16.5437 17.4645 16.396C17.5281 16.2484 17.5551 16.0875 17.5433 15.9272C17.5316 15.7668 17.4813 15.6117 17.3968 15.4749C17.3123 15.3381 17.1961 15.2237 17.058 15.1414L15.38 14.1414C15.2141 14.0424 15.023 13.9936 14.8299 14.0009C14.6368 14.0082 14.45 14.0712 14.292 14.1824H14.293Z" fill="black"/>
</svg>
